<svg width="147" height="103" viewBox="0 0 147 103" fill="none" xmlns="http://www.w3.org/2000/svg">
<g id="SVG">
<g id="Clip path group">
<mask id="mask0_44_661" style="mask-type:luminance" maskUnits="userSpaceOnUse" x="0" y="12" width="147" height="79">
<g id="clip0_4263_49059">
<path id="Vector" d="M146.66 12.0146H0.330017V90.9853H146.66V12.0146Z" fill="white"/>
</g>
</mask>
<g mask="url(#mask0_44_661)">
<g id="Group">
<path id="Vector_2" d="M60.8399 48.9688H55.7421V70.6203H60.8399V48.9688Z" fill="#778187"/>
<path id="Vector_3" d="M84.3087 48.9688V57.4226C84.8793 56.8837 85.5521 56.466 86.2891 56.1946C87.0254 55.9233 87.8089 55.804 88.5924 55.8439C93.4135 55.8439 95.5403 59.7906 95.5403 63.4767C95.5403 67.163 93.4135 71.1018 88.5924 71.1018C86.0158 71.1018 84.4271 69.9098 83.7086 68.7338V70.644H79.2112V48.9688H84.3087ZM87.2174 60.0195C86.6135 60.0178 86.0212 60.1848 85.5072 60.5013C84.9938 60.8179 84.5781 61.2716 84.3087 61.8113V65.1186C84.5773 65.6594 84.9915 66.1141 85.5056 66.4309C86.0205 66.7477 86.6135 66.9138 87.2174 66.9104C89.3752 66.9104 90.2996 65.1501 90.2996 63.4767C90.2996 61.8034 89.3752 60.0353 87.2174 60.0353" fill="#778187"/>
<path id="Vector_4" d="M111.654 56.2632V70.6449H107.157V68.9794C106.589 69.6381 105.886 70.1661 105.094 70.5272C104.303 70.8883 103.442 71.0739 102.573 71.0712C98.6212 71.0712 96.8188 68.4111 96.8188 65.1748V56.2632H101.901V64.4881C101.873 64.7839 101.911 65.0821 102.011 65.3618C102.111 65.6414 102.272 65.8957 102.481 66.1065C102.691 66.3172 102.944 66.4795 103.224 66.5818C103.503 66.6841 103.801 66.7238 104.098 66.6982C104.575 66.6844 105.043 66.5645 105.468 66.3474C105.893 66.1303 106.265 65.8215 106.556 65.4432V56.2632H111.654Z" fill="#778187"/>
<path id="Vector_5" d="M120.001 55.8141C122.577 55.8141 124.166 57.0061 124.885 58.1821V56.264H129.382V70.03C129.382 75.7686 125.217 77.6549 120.87 77.6549C118.728 77.6726 116.609 77.2142 114.666 76.3131L115.859 72.5875C117.227 73.1666 118.697 73.4671 120.183 73.4715C122.491 73.4715 124.285 72.7769 124.285 70.3142V69.4617C123.715 70.0006 123.041 70.4182 122.305 70.6896C121.569 70.9609 120.784 71.0803 120.001 71.0404C115.18 71.0404 113.054 67.0936 113.054 63.4154C113.054 59.737 115.18 55.7825 120.001 55.7825M121.384 59.974C119.227 59.974 118.294 61.7341 118.294 63.4154C118.294 65.0966 119.227 66.849 121.384 66.849C121.98 66.8586 122.568 66.702 123.081 66.3967C123.593 66.0913 124.01 65.6494 124.285 65.1204V61.7972C124.017 61.2576 123.603 60.8038 123.091 60.487C122.578 60.1704 121.987 60.0035 121.384 60.0054" fill="#778187"/>
<path id="Vector_6" d="M54.0629 67.4859L54.6319 70.5407C53.8068 70.843 52.9342 70.9953 52.0553 70.9906C51.3981 71.0452 50.7379 70.9284 50.1394 70.6516C49.5409 70.3749 49.0246 69.9477 48.641 69.412C47.2259 70.5535 45.457 71.1674 43.638 71.1485C40.8797 71.1169 38.6666 69.4672 38.6666 66.6966C38.6666 63.0736 42.1126 61.9606 44.8947 61.9606C45.9416 61.9588 46.9857 62.0699 48.0087 62.2921V61.7791C48.0087 60.7608 47.0524 59.9873 45.0132 59.9873C43.5904 60.0158 42.1824 60.2826 40.8481 60.7766L39.9786 56.8299C41.7906 56.2423 43.6779 55.918 45.5823 55.8669C50.1664 55.8669 53.1065 57.4456 53.1065 62.5763V66.5861C53.1065 67.2729 53.5887 67.4781 54.0945 67.4781M45.6455 67.6912C46.4983 67.7176 47.3345 67.4531 48.0166 66.9413V64.9838C47.4249 64.8037 46.8094 64.7132 46.1909 64.7154C44.9895 64.7154 43.9146 65.1338 43.9146 66.2941C43.9146 67.0439 44.5706 67.6991 45.6534 67.6991" fill="#778187"/>
<path id="Vector_7" d="M77.5629 67.488L78.1317 70.5427C77.3069 70.845 76.4343 70.9974 75.5554 70.9926C74.8981 71.0472 74.238 70.9304 73.6395 70.6537C73.0409 70.377 72.5246 69.9498 72.1411 69.414C70.7174 70.5476 68.9427 71.1505 67.1222 71.119C64.3639 71.119 62.1114 69.4693 62.1114 66.6907C62.1114 63.0677 65.5574 61.9548 68.3473 61.9548C69.3942 61.9533 70.4382 62.0645 71.4614 62.2863V61.7732C71.4614 60.7549 70.505 59.9814 68.4659 59.9814C67.043 60.0099 65.635 60.2768 64.3007 60.7707L63.4313 56.8241C65.2433 56.2364 67.1304 55.9121 69.035 55.8611C73.619 55.8611 76.5592 57.4398 76.5592 62.5704V66.5803C76.5592 67.267 77.0334 67.4722 77.5471 67.4722M69.0981 67.6853C69.9509 67.7117 70.7872 67.4472 71.4693 66.9355V64.9858C70.8775 64.8058 70.2621 64.7152 69.6435 64.7174C68.4421 64.7174 67.3673 65.1358 67.3673 66.2961C67.3673 67.046 68.0233 67.7011 69.106 67.7011" fill="#778187"/>
<path id="Vector_8" d="M146.091 67.4866L146.66 70.5414C145.834 70.8437 144.962 70.996 144.083 70.9913C143.426 71.0459 142.766 70.9291 142.168 70.6524C141.569 70.3757 141.053 69.9484 140.669 69.4127C139.254 70.5541 137.485 71.1682 135.666 71.1492C132.908 71.1492 130.655 69.4995 130.655 66.721C130.655 63.098 134.101 61.985 136.891 61.985C137.938 61.9836 138.982 62.0947 140.005 62.3166V61.8035C140.005 60.7852 139.048 60.0117 137.01 60.0117C135.587 60.0402 134.179 60.307 132.845 60.801L131.975 56.8543C133.787 56.2667 135.674 55.9424 137.579 55.8914C142.163 55.8914 145.103 57.47 145.103 62.6007V66.6105C145.103 67.2973 145.577 67.5024 146.091 67.5024M137.642 67.7156C138.495 67.7419 139.331 67.4774 140.013 66.9658V64.9845C139.422 64.8044 138.806 64.7139 138.188 64.7161C136.986 64.7161 135.911 65.1345 135.911 66.2948C135.911 67.0446 136.567 67.6998 137.65 67.6998" fill="#778187"/>
<path id="Vector_9" d="M14.7469 18.9044L15.1056 19.1091L15.3107 19.232L16.0385 19.6619L16.1923 19.7541L16.5305 19.9588L16.7765 20.1124L17.1148 20.3273L17.3813 20.5014L17.7094 20.7061L17.9964 20.9006L18.4986 21.2385L18.8472 21.4739L19.1444 21.6889L19.4622 21.9039L19.7594 22.1189L20.0875 22.3543L20.3745 22.5591L20.805 22.8764L21.1433 23.1324L21.5636 23.4498L21.8301 23.6647L22.1889 23.9412L22.4656 24.1561L22.8449 24.4632L23.0909 24.6578L23.5829 25.057L24.0647 24.6578L24.321 24.453L24.69 24.1561L24.9668 23.9309C25.0898 23.849 25.2025 23.7569 25.3152 23.6647L25.592 23.4498L25.9815 23.1528L26.3916 22.856L26.7811 22.5591L27.0784 22.3441L27.3859 22.1189L27.7036 21.9039L28.0009 21.6889L28.3085 21.4739L28.6262 21.2282L29.1798 20.8597L29.4463 20.6754L29.7845 20.4604L30.0511 20.3273L30.3893 20.1124L30.6251 19.969L30.9839 19.7438H31.0761L31.8552 19.1808L32.1011 19.1091L32.4702 18.9044L32.6445 18.802C29.8166 16.2937 26.7858 14.0235 23.5829 12.0146C20.3926 14.0231 17.3754 16.2934 14.5624 18.802L14.7469 18.9044Z" fill="#778187"/>
<path id="Vector_10" d="M39.9801 26.5726L39.6008 26.7774L39.4061 26.8899L39.037 27.0947L38.8525 27.2073L38.0222 27.6987H37.9607L37.6019 27.9137L37.3661 28.057L37.0177 28.2822L36.7716 28.4357L36.4334 28.661L36.1669 28.835L35.5928 29.2138L35.2956 29.4185L34.9777 29.6438L34.6907 29.8485L34.373 30.0738L34.0655 30.2887L33.7682 30.5139L33.3684 30.8006C33.2454 30.903 33.1019 30.9951 32.9686 31.0974L32.5791 31.3944L32.3023 31.6196L31.9539 31.8858L31.6669 32.111L31.3901 32.3362L31.9641 32.9505L32.1486 33.1449L32.5996 33.6363L32.8149 33.8718L33.2556 34.353L33.4402 34.5679L34.0655 35.2743L34.6805 35.9807L34.865 36.2059L35.2853 36.7075L35.4903 36.9532L35.9208 37.4651C35.9823 37.5367 36.0336 37.6084 36.0951 37.6698L36.6691 38.3864L36.7511 38.4888L37.2431 39.1031L37.4379 39.3488L37.8172 39.8401L38.0119 40.0961L38.258 40.4134L38.6475 40.0961L38.914 39.8914L39.283 39.6558L39.5393 39.4511L39.9801 39.1236L40.2876 38.888L40.7386 38.5605L41.0154 38.3557L41.3536 38.11L41.6509 37.9053L41.9687 37.68L42.2557 37.4753L42.635 37.2194L43.0962 36.9122C43.1983 36.8381 43.3043 36.7698 43.4141 36.7075L43.7216 36.5027L43.9983 36.3185L44.3263 36.1138L44.5928 35.95L44.9208 35.7453L45.1259 35.6224L45.7922 35.2333L46.0177 35.1002L46.3559 34.9058L46.5815 34.7829L46.8274 34.6498C45.0644 32.1929 43.127 29.7461 41.0359 27.3506L40.2363 26.4497L40.1236 26.5112L39.9699 26.593" fill="#778187"/>
<path id="Vector_11" d="M23.6909 25.1494L23.9061 25.3234L24.3674 25.7022L24.6032 25.9069L25.0029 26.255L25.249 26.4597L25.6795 26.8488L25.8743 27.0125L26.4995 27.5756L26.6636 27.7292L27.1249 28.1489L27.3606 28.3639L27.7809 28.7631L28.0064 28.9679L28.4882 29.4388L28.6317 29.5719L29.257 30.1861L29.4312 30.3602L29.8925 30.8209L30.1078 31.0461L30.5485 31.4863L30.7536 31.7012C30.9381 31.8855 31.1123 32.08 31.2968 32.2745C31.3291 32.2964 31.3569 32.3242 31.3788 32.3564L31.4301 32.4076L31.7069 32.1824L31.9939 31.9572L32.3424 31.691L32.6191 31.4658L33.0087 31.1689L33.4084 30.872L33.8083 30.5854C33.9029 30.5047 34.0021 30.4295 34.1055 30.3602L34.413 30.1452L34.7308 29.92L35.0178 29.7152L35.3356 29.49L35.6329 29.2853L36.2069 28.9064L36.4734 28.7325L36.8116 28.5072L37.0577 28.3536L37.4062 28.1284L37.642 27.9851L38.0007 27.7701H38.0622L38.8925 27.2787L39.0771 27.1661L39.4461 26.9614L39.6409 26.8488L40.0201 26.644L40.1738 26.5621L40.2866 26.5007C37.8885 23.8119 35.3315 21.1836 32.636 18.7922L32.3759 18.8739L32.0735 18.9828L31.8043 19.1552L31.0816 19.6929H30.9893L30.6305 19.9181L30.3948 20.0614L30.0565 20.3276L29.7508 20.1441L29.3637 20.5312L28.9766 20.9183L28.6317 21.2285L28.3139 21.4435L28.0064 21.6585L27.7091 21.8734L27.3913 22.0884L27.0838 22.3136L26.7866 22.5286L26.397 22.8255L25.987 23.1224L25.5975 23.4193L25.3208 23.6342L24.9722 23.9107L24.6954 24.1256L24.3264 24.4225L24.0702 24.6272L23.5933 25.0494L23.6484 25.1044" fill="#778187"/>
<path id="Vector_12" d="M0.801545 34.8855L1.15007 35.0801L1.37558 35.2132L2.03162 35.6021L2.23663 35.725L2.56465 35.9297L2.83117 36.0935L3.15918 36.2983L3.4052 36.4826L3.72297 36.6873L4.03048 36.8921L4.49176 37.1992L4.87103 37.4551L5.15805 37.6599L5.48607 37.8851L5.77309 38.0898L6.11136 38.3355L6.38812 38.5402L6.83915 38.8678L7.14666 39.1032L7.58744 39.4308L7.84371 39.6356L8.21276 39.9222L8.47925 40.1372L8.86876 40.4443L9.11481 40.127C9.17628 40.0348 9.24805 39.9529 9.30952 39.871L9.68882 39.3796L9.88361 39.1339L10.3653 38.53L10.4576 38.4174L11.0316 37.7008C11.0951 37.6373 11.1534 37.5689 11.2059 37.496L11.6364 36.9842L11.8415 36.7384L12.2617 36.2368L12.4565 36.0116L13.0612 35.3053L13.6866 34.5989L13.8813 34.3839L14.3119 33.9027L14.5271 33.6673L14.9781 33.1759L15.1626 32.9814L15.7812 32.3238L15.4818 32.0971L15.1975 31.8369L14.889 31.5375L14.5563 31.3803L14.1692 31.0506L13.8245 30.7543L13.386 30.5032L13.1168 30.2673L12.7811 30.0345L12.4847 29.8469L12.1793 29.6201L11.8829 29.3994L11.6057 29.2448L11.0624 28.8864L10.7857 28.7022L10.4576 28.4872L10.1911 28.3131L9.8528 28.1084L9.57833 27.9326L9.21546 27.7209L9.10954 27.6271L8.33842 27.1795L8.1749 27.0465L7.80589 26.8418L7.61557 26.747L7.25266 26.5323L7.05607 26.4748L6.92905 26.4072C6.66254 26.7041 6.37787 27.0233 6.12161 27.3304C4.03048 29.7259 2.09312 32.1726 0.330017 34.6296L0.576032 34.7627L0.801545 34.8855Z" fill="#778187"/>
<path id="Vector_13" d="M30.4572 47.3736L30.2625 47.1278L29.7807 46.5239C29.7477 46.4908 29.72 46.4528 29.6987 46.4112L29.1144 45.7049L28.9402 45.4899L28.5199 44.978L28.3046 44.7733L27.8844 44.2716L27.6999 44.0566L27.0848 43.34C26.8798 43.1046 26.6748 42.8691 26.4595 42.6439L26.275 42.4289L25.8342 41.9375L25.619 41.7021C25.4652 41.5382 25.3217 41.3745 25.1679 41.2209L24.9834 41.0162L24.3684 40.3507L24.2761 40.2688C24.1019 40.0743 23.9173 39.8901 23.7328 39.6955L23.5894 39.542L23.4356 39.6955L22.9025 40.2586L22.8103 40.3507L22.185 41.0162L22.0005 41.2209L21.5494 41.7021L21.3342 41.9375L20.9037 42.4289L20.7089 42.6439L20.0836 43.34L19.4686 44.0566L19.2841 44.2716L18.8638 44.7733L18.6588 45.0189L18.2283 45.5308L18.054 45.7458L17.48 46.4522L17.398 46.5546L16.906 47.179L16.7112 47.4145L16.619 47.5475L16.7522 47.6909L17.3057 48.2539L17.3878 48.3461L18.013 49.0115L18.1873 49.206L18.6383 49.6974L18.8536 49.9226L19.2944 50.414L19.4891 50.629L20.1041 51.3354L20.7192 52.0417L20.9037 52.267L21.3342 52.7584L21.5392 53.0143L21.9595 53.5159L22.1337 53.7309L22.718 54.4475L22.8 54.5499L23.2921 55.1642L23.4766 55.4098L23.5894 55.5429L23.6919 55.4098L23.8866 55.1642L24.3684 54.5499L24.4504 54.4475L25.0347 53.7309L25.209 53.5159L25.6292 53.0143L25.8444 52.7584L26.2648 52.267L26.4493 52.0417L27.0643 51.3354L27.6896 50.629L27.8741 50.414L28.3149 49.892L28.5301 49.6667L28.9811 49.1753L29.1657 48.9808C29.3707 48.7555 29.5757 48.5303 29.791 48.3154L29.8729 48.2232L30.4162 47.6602L30.5495 47.5169L30.4572 47.3838" fill="#778187"/>
<path id="Vector_14" d="M7.16483 26.5562L7.53386 26.761L7.72862 26.8736L8.09766 27.0784L8.29237 27.191L9.08169 27.6619L9.1739 27.7233L9.53268 27.9383L9.76851 28.0816L10.1068 28.2966L10.3733 28.4707L10.7013 28.6857L10.9781 28.8699L11.5213 29.2282L11.8391 29.4432L12.1466 29.6582L12.4541 29.8732L12.7616 30.0882L13.0794 30.3236L13.3664 30.5386C13.5099 30.6307 13.6432 30.7331 13.7867 30.8457L14.1455 31.1118L14.5555 31.4293L14.8322 31.634L15.1808 31.9104L15.4576 32.1254L15.6936 32.3592L15.7446 32.3096L15.8369 32.2175C16.0111 32.023 16.1956 31.8388 16.3698 31.6545L16.5851 31.4395L17.0054 30.9993L17.2309 30.774L17.7229 30.3236L17.9074 30.1393C18.1125 29.9346 18.3175 29.7298 18.5327 29.5354L18.748 29.4023L19.2195 28.9518L19.4553 28.7266L19.7731 28.3785C19.8466 28.2983 19.9253 28.2231 20.0088 28.1533L20.4598 27.7438L20.6444 27.5698L21.2491 27.0272L21.4644 26.8327L21.8847 26.4744L22.141 26.2492L22.5203 25.9215L22.7765 25.7066L23.207 25.338L23.4018 25.1742L23.5462 25.0333L23.1364 24.6873L22.8482 24.4474L22.469 24.1403L22.1922 23.9253L21.8231 23.6489L21.5567 23.4339L21.1364 23.1165L20.7982 22.8606L20.3676 22.5432L20.0806 22.3385L19.7731 22.1031L19.4758 21.8881L19.158 21.6731L18.8607 21.4581L18.4712 21.2124L17.9689 20.8745L17.7229 20.6903L17.3949 20.4856L17.1284 20.3115L16.7902 20.0965L16.5441 19.943L16.2059 19.7382L16.0521 19.6461L15.3243 19.2161L15.1193 19.0933L14.7605 18.8885L14.576 18.7861C11.883 21.1802 9.32975 23.7266 6.92908 26.4129L7.03158 26.4744L7.20584 26.5562" fill="#778187"/>
<path id="Vector_15" d="M41.3699 88.4484V83.0861H42.7072C43.1689 83.0861 43.555 83.1536 43.8655 83.2887C44.1838 83.4158 44.4386 83.6025 44.6296 83.8488C44.8206 84.095 44.956 84.3929 45.0356 84.7425C45.1231 85.084 45.1669 85.4694 45.1669 85.8983C45.1669 86.367 45.1073 86.7643 44.9878 87.09C44.8684 87.4157 44.7092 87.6818 44.5102 87.8884C44.3112 88.0869 44.0843 88.2299 43.8296 88.3174C43.5749 88.4047 43.3122 88.4484 43.0415 88.4484H41.3699ZM39.4953 81.5132V90.0214H43.1729C43.8256 90.0214 44.3908 89.9138 44.8684 89.6993C45.354 89.4771 45.756 89.1753 46.0744 88.794C46.4007 88.4127 46.6435 87.9598 46.8027 87.4355C46.9619 86.9112 47.0416 86.3392 47.0416 85.7196C47.0416 85.0126 46.942 84.3969 46.743 83.8725C46.5519 83.3482 46.2814 82.9114 45.9311 82.5618C45.5888 82.2122 45.1789 81.9501 44.7012 81.7753C44.2316 81.6005 43.7222 81.5132 43.1729 81.5132H39.4953Z" fill="#778187"/>
<path id="Vector_16" d="M48.3445 81.5132V90.0214H54.8161V88.4484H50.2192V86.3631H54.3505V84.9093H50.2192V83.0861H54.7207V81.5132H48.3445Z" fill="#778187"/>
<path id="Vector_17" d="M60.0511 90.0214L62.881 81.5132H60.9467L59.0243 87.4951H59.0005L57.1019 81.5132H55.1796L57.9377 90.0214H60.0511Z" fill="#778187"/>
<path id="Vector_18" d="M63.6115 81.5132V90.0214H70.083V88.4484H65.4861V86.3631H69.6174V84.9093H65.4861V83.0861H69.9875V81.5132H63.6115Z" fill="#778187"/>
<path id="Vector_19" d="M71.3538 81.5132V90.0214H77.3836V88.4484H73.2284V81.5132H71.3538Z" fill="#778187"/>
<path id="Vector_20" d="M79.9359 85.803C79.9359 85.4296 79.9753 85.0682 80.0551 84.7186C80.1426 84.369 80.2781 84.0593 80.4608 83.7891C80.6443 83.5111 80.8827 83.2926 81.1777 83.1338C81.4719 82.9669 81.8304 82.8835 82.2523 82.8835C82.6743 82.8835 83.032 82.9669 83.3269 83.1338C83.6211 83.2926 83.8604 83.5111 84.0431 83.7891C84.2266 84.0593 84.3574 84.369 84.4372 84.7186C84.5247 85.0682 84.5688 85.4296 84.5688 85.803C84.5688 86.1605 84.5247 86.51 84.4372 86.8516C84.3574 87.1853 84.2266 87.4871 84.0431 87.7573C83.8604 88.0273 83.6211 88.2458 83.3269 88.4126C83.032 88.5715 82.6743 88.6509 82.2523 88.6509C81.8304 88.6509 81.4719 88.5715 81.1777 88.4126C80.8827 88.2458 80.6443 88.0273 80.4608 87.7573C80.2781 87.4871 80.1426 87.1853 80.0551 86.8516C79.9753 86.51 79.9359 86.1605 79.9359 85.803ZM78.0615 85.803C78.0615 86.4227 78.1567 87.0026 78.3479 87.5427C78.5384 88.075 78.8132 88.5398 79.1717 88.9369C79.5302 89.3341 79.9676 89.6482 80.4848 89.8782C81.0105 90.1011 81.5997 90.2119 82.2523 90.2119C82.9127 90.2119 83.5019 90.1011 84.0191 89.8782C84.5371 89.6482 84.9745 89.3341 85.333 88.9369C85.6906 88.5398 85.9655 88.075 86.1567 87.5427C86.348 87.0026 86.4432 86.4227 86.4432 85.803C86.4432 85.1674 86.348 84.5796 86.1567 84.0394C85.9655 83.4912 85.6906 83.0146 85.333 82.6095C84.9745 82.2043 84.5371 81.8865 84.0191 81.6562C83.5019 81.4258 82.9127 81.3105 82.2523 81.3105C81.5997 81.3105 81.0105 81.4258 80.4848 81.6562C79.9676 81.8865 79.5302 82.2043 79.1717 82.6095C78.8132 83.0146 78.5384 83.4912 78.3479 84.0394C78.1567 84.5796 78.0615 85.1674 78.0615 85.803Z" fill="#778187"/>
<path id="Vector_21" d="M89.5959 85.517V82.9669H91.053C91.2675 82.9669 91.475 82.9828 91.674 83.0146C91.8729 83.0464 92.0479 83.1099 92.1989 83.2052C92.3506 83.2927 92.4699 83.4198 92.5574 83.5866C92.6526 83.7534 92.7006 83.9719 92.7006 84.242C92.7006 84.5121 92.6526 84.7305 92.5574 84.8974C92.4699 85.0642 92.3506 85.1953 92.1989 85.2906C92.0479 85.378 91.8729 85.4376 91.674 85.4694C91.475 85.5011 91.2675 85.517 91.053 85.517H89.5959ZM87.7216 81.5132V90.0214H89.5959V86.9708H91.5663C92.0998 86.9708 92.5535 86.8953 92.9274 86.7444C93.3014 86.5855 93.6041 86.3789 93.8348 86.1248C94.0741 85.8705 94.2452 85.5806 94.3481 85.2548C94.4596 84.9212 94.5154 84.5836 94.5154 84.242C94.5154 83.8924 94.4596 83.5548 94.3481 83.2291C94.2452 82.9034 94.0741 82.6134 93.8348 82.3593C93.6041 82.105 93.3014 81.9025 92.9274 81.7515C92.5535 81.5926 92.0998 81.5132 91.5663 81.5132H87.7216Z" fill="#778187"/>
<path id="Vector_22" d="M95.6876 81.5132V90.0214H97.4428V84.0513H97.466L99.5556 90.0214H101L103.09 83.9918H103.114V90.0214H104.869V81.5132H102.231L100.344 87.3641H100.32L98.3262 81.5132H95.6876Z" fill="#778187"/>
<path id="Vector_23" d="M106.521 81.5132V90.0214H112.992V88.4484H108.395V86.3631H112.526V84.9093H108.395V83.0861H112.896V81.5132H106.521Z" fill="#778187"/>
<path id="Vector_24" d="M114.263 81.5132V90.0214H116.018V84.3254H116.042L119.589 90.0214H121.463V81.5132H119.708V87.2211H119.684L116.126 81.5132H114.263Z" fill="#778187"/>
<path id="Vector_25" d="M125.002 83.0861V90.0214H126.877V83.0861H129.432V81.5132H122.447V83.0861H125.002Z" fill="#778187"/>
<path id="Vector_26" fill-rule="evenodd" clip-rule="evenodd" d="M45.0368 84.7407C44.9572 84.3911 44.8219 84.0932 44.6308 83.847C44.4398 83.6007 44.1851 83.414 43.8667 83.2869C43.5562 83.1518 43.1702 83.0843 42.7085 83.0843H41.3712V88.4466H43.0428C43.3135 88.4466 43.5761 88.4029 43.8308 88.3155C44.0856 88.2281 44.3125 88.0851 44.5114 87.8865C44.7104 87.68 44.8697 87.4139 44.9891 87.0882C45.1085 86.7625 45.1681 86.3652 45.1681 85.8966C45.1681 85.4676 45.1244 85.0822 45.0368 84.7407ZM44.4286 87.8052C44.614 87.6125 44.7652 87.3614 44.8801 87.0481C44.9934 86.7389 45.052 86.3561 45.052 85.8966C45.052 85.4752 45.009 85.0999 44.9243 84.7695L44.9236 84.7664C44.8472 84.431 44.7183 84.1492 44.5391 83.9181C44.3619 83.6898 44.1248 83.515 43.8236 83.3947L43.8204 83.3934C43.5288 83.2666 43.1596 83.2004 42.7085 83.2004H41.4873V88.3305H43.0428C43.3007 88.3305 43.5506 88.2889 43.7932 88.2057C44.0301 88.1244 44.2417 87.9915 44.4286 87.8052ZM39.3804 81.3952H43.1741C43.7357 81.3952 44.259 81.4846 44.7427 81.6646C45.2356 81.845 45.6602 82.1162 46.0148 82.4783C46.3782 82.841 46.6572 83.2926 46.8532 83.8303C47.0581 84.3706 47.1589 85.0005 47.1589 85.7178C47.1589 86.3474 47.078 86.9309 46.9151 87.4675C46.7518 88.0055 46.5018 88.4726 46.1644 88.8672C45.8341 89.2625 45.4179 89.5747 44.9181 89.8031L44.9172 89.8038C44.4215 90.026 43.8393 90.136 43.1741 90.136H39.3804V81.3952ZM45.9324 82.56C45.59 82.2104 45.1801 81.9483 44.7025 81.7735C44.2329 81.5988 43.7234 81.5114 43.1741 81.5114H39.4965V90.0198H43.1741C43.8269 90.0198 44.3921 89.9122 44.8697 89.6978C45.3552 89.4756 45.7573 89.1735 46.0756 88.7922C46.402 88.4109 46.6448 87.958 46.804 87.4337C46.9632 86.9094 47.0428 86.3374 47.0428 85.7178C47.0428 85.0108 46.9433 84.3951 46.7443 83.8707C46.5532 83.3464 46.2826 82.9095 45.9324 82.56ZM48.2307 81.3952H54.8391V83.2004H50.3376V84.7914H54.4689V86.4774H50.3376V88.3305H54.9346V90.136H48.2307V81.3952ZM54.8185 88.4466V90.0198H48.3468V81.5114H54.723V83.0843H50.2215V84.9075H54.3528V86.3613H50.2215V88.4466H54.8185ZM60.1374 90.136H57.8557L55.0222 81.3952H57.1893L59.0154 87.1489L60.8645 81.3952H63.0445L60.1374 90.136ZM60.9491 81.5114H62.8834L60.0536 90.0198H57.9401L55.1819 81.5114H57.1043L59.0028 87.4933H59.0268L60.9491 81.5114ZM63.4943 81.3952H70.1027V83.2004H65.6012V84.7914H69.7325V86.4774H65.6012V88.3305H70.1982V90.136H63.4943V81.3952ZM70.0821 88.4466V90.0198H63.6104V81.5114H69.9866V83.0843H65.485V84.9075H69.6164V86.3613H65.485V88.4466H70.0821ZM71.2369 81.3952H73.3438V88.3305H77.499V90.136H71.2369V81.3952ZM77.3829 88.4466V90.0198H71.353V81.5114H73.2277V88.4466H77.3829ZM80.4608 83.7874C80.2781 84.0575 80.1426 84.3672 80.0551 84.7168C79.9753 85.0664 79.9351 85.4279 79.9351 85.8012C79.9351 86.1587 79.9753 86.5082 80.0551 86.8499C80.1426 87.1835 80.2781 87.4854 80.4608 87.7555C80.6435 88.0255 80.8827 88.244 81.1769 88.4109C81.4719 88.5697 81.8296 88.6492 82.2516 88.6492C82.6735 88.6492 83.032 88.5697 83.3262 88.4109C83.6212 88.244 83.8597 88.0255 84.0431 87.7555C84.2259 87.4854 84.3575 87.1835 84.4372 86.8499C84.5247 86.5082 84.5681 86.1587 84.5681 85.8012C84.5681 85.4279 84.5247 85.0664 84.4372 84.7168C84.3575 84.3672 84.2259 84.0575 84.0431 83.7874C83.8597 83.5093 83.6212 83.2908 83.3262 83.132C83.032 82.9651 82.6735 82.8817 82.2516 82.8817C81.8296 82.8817 81.4719 82.9651 81.1769 83.132C80.8827 83.2908 80.6435 83.5093 80.4608 83.7874ZM83.2705 88.3092C83.5492 88.151 83.7745 87.9447 83.9464 87.6903C84.1213 87.4324 84.2475 87.1436 84.3242 86.8229V86.821C84.4094 86.4889 84.4519 86.1491 84.4519 85.8012C84.4519 85.437 84.4094 85.085 84.3242 84.7451L84.3234 84.7426C84.2468 84.4057 84.1213 84.1096 83.9464 83.8525L83.9456 83.8512C83.7737 83.5893 83.5492 83.384 83.2712 83.2342L83.2689 83.233C82.9956 83.0782 82.6588 82.9979 82.2516 82.9979C81.8451 82.9979 81.5075 83.0782 81.2342 83.233L81.2327 83.2342C80.9547 83.384 80.7302 83.5893 80.5576 83.8512L80.5568 83.8525C80.3826 84.11 80.2525 84.4066 80.1681 84.7438C80.0907 85.0842 80.0512 85.4366 80.0512 85.8012C80.0512 86.1494 80.0899 86.4896 80.1673 86.8219C80.2517 87.143 80.3818 87.4321 80.5568 87.6903C80.7294 87.9447 80.954 88.151 81.2335 88.3092C81.5068 88.4565 81.8451 88.533 82.2516 88.533C82.6588 88.533 82.9964 88.4565 83.2705 88.3092ZM78.2379 87.5797C78.0421 87.0261 77.9445 86.4329 77.9445 85.8012C77.9445 85.1541 78.0421 84.5531 78.2379 83.9994C78.4331 83.438 78.7157 82.948 79.0842 82.5307C79.4543 82.1126 79.9056 81.7851 80.4375 81.5483C80.9795 81.3106 81.585 81.1926 82.2516 81.1926C82.9259 81.1926 83.5314 81.3102 84.0664 81.5483C84.5983 81.7851 85.0496 82.1126 85.4197 82.5307C85.7883 82.9479 86.0701 83.4377 86.266 83.9989C86.4618 84.5528 86.5594 85.1539 86.5594 85.8012C86.5594 86.4329 86.4618 87.0261 86.266 87.5797C86.0701 88.1253 85.7875 88.6039 85.419 89.013C85.0489 89.4229 84.5975 89.7458 84.0664 89.9827L84.0648 89.9835C83.5306 90.2126 82.9259 90.3264 82.2516 90.3264C81.5857 90.3264 80.9811 90.2126 80.4391 89.9835L80.4375 89.9827C79.9064 89.7458 79.455 89.4229 79.085 89.013C78.7164 88.6039 78.4338 88.1253 78.2379 87.5797ZM78.3471 84.0376C78.1567 84.5778 78.0606 85.1657 78.0606 85.8012C78.0606 86.4209 78.1567 87.0008 78.3471 87.5409C78.5383 88.0732 78.8132 88.538 79.1709 88.9352C79.5294 89.3324 79.9676 89.6459 80.4848 89.8766C81.0097 90.0988 81.5989 90.2103 82.2516 90.2103C82.9128 90.2103 83.502 90.0988 84.0191 89.8766C84.5363 89.6459 84.9745 89.3324 85.3322 88.9352C85.6907 88.538 85.9656 88.0732 86.156 87.5409C86.3473 87.0008 86.4433 86.4209 86.4433 85.8012C86.4433 85.1657 86.3473 84.5778 86.156 84.0376C85.9656 83.4894 85.6907 83.0128 85.3322 82.6077C84.9745 82.2025 84.5363 81.8847 84.0191 81.6544C83.502 81.424 82.9128 81.3088 82.2516 81.3088C81.5989 81.3088 81.0097 81.424 80.4848 81.6544C79.9676 81.8847 79.5294 82.2025 79.1709 82.6077C78.8132 83.0128 78.5383 83.4894 78.3471 84.0376ZM92.202 83.2034C92.051 83.1081 91.8753 83.0446 91.6763 83.0128C91.4773 82.981 91.2706 82.9651 91.0554 82.9651H89.599V85.5152H91.0554C91.2706 85.5152 91.4773 85.4993 91.6763 85.4676C91.8753 85.4358 92.051 85.3762 92.202 85.2888C92.353 85.1935 92.473 85.0624 92.5605 84.8956C92.6557 84.7287 92.7037 84.5102 92.7037 84.2402C92.7037 83.9701 92.6557 83.7516 92.5605 83.5848C92.473 83.418 92.353 83.2908 92.202 83.2034ZM89.7152 85.3991H91.0554C91.2652 85.3991 91.4657 85.3836 91.6585 85.3528C91.8443 85.3231 92.0054 85.2681 92.1416 85.1893C92.274 85.1056 92.3793 84.9906 92.4575 84.8416L92.4591 84.8378C92.5419 84.6943 92.5876 84.4978 92.5876 84.2402C92.5876 83.9825 92.5419 83.786 92.4591 83.6425L92.4575 83.6388C92.3793 83.4898 92.2748 83.3796 92.1439 83.304L92.1401 83.3018C92.0038 83.2158 91.8435 83.1571 91.6585 83.1275C91.4657 83.0967 91.2652 83.0813 91.0554 83.0813H89.7152V85.3991ZM87.6085 81.3952H91.5695C92.113 81.3952 92.5829 81.4761 92.9747 81.6425C93.3618 81.7985 93.6792 82.0099 93.9231 82.2786C94.1724 82.5447 94.3528 82.849 94.4612 83.1907C94.5766 83.5284 94.6346 83.8784 94.6346 84.2402C94.6346 84.5945 94.5766 84.9444 94.4612 85.2893C94.3528 85.6312 94.1732 85.9357 93.9231 86.2018C93.6792 86.4702 93.3618 86.6854 92.9755 86.8495L92.9739 86.8503C92.5822 87.0083 92.113 87.0852 91.5695 87.0852H89.7152V90.136H87.6085V81.3952ZM93.838 86.123C94.0764 85.8687 94.2475 85.5788 94.3513 85.253C94.4628 84.9194 94.5185 84.5818 94.5185 84.2402C94.5185 83.8906 94.4628 83.553 94.3513 83.2273C94.2475 82.9016 94.0764 82.6116 93.838 82.3574C93.6072 82.1032 93.3045 81.9007 92.9306 81.7497C92.5558 81.5908 92.1021 81.5114 91.5695 81.5114H87.7246V90.0198H89.599V86.969H91.5695C92.1021 86.969 92.5558 86.8935 92.9306 86.7426C93.3045 86.5837 93.6072 86.3771 93.838 86.123ZM95.5722 81.3952H98.4106L100.331 87.0293L102.147 81.3952H104.987V90.136H102.999V84.6108L101.085 90.136H99.4744L97.5597 84.6646V90.136H95.5722V81.3952ZM97.4436 84.0495H97.4676L99.5572 90.0198H101.002L103.092 83.99H103.116V90.0198H104.871V81.5114H102.231L100.345 87.3622H100.321L98.327 81.5114H95.6884V90.0198H97.4436V84.0495ZM106.405 81.3952H113.013V83.2004H108.512V84.7914H112.643V86.4774H108.512V88.3305H113.109V90.136H106.405V81.3952ZM112.992 88.4466V90.0198H106.521V81.5114H112.897V83.0843H108.396V84.9075H112.527V86.3613H108.396V88.4466H112.992ZM114.148 81.3952H116.191L119.592 86.8517V81.3952H121.579V90.136H119.525L116.135 84.6915V90.136H114.148V81.3952ZM116.019 84.3236H116.043L119.589 90.0198H121.463V81.5114H119.708V87.2192H119.685L116.127 81.5114H114.264V90.0198H116.019V84.3236ZM122.445 83.0843V81.5114H129.43V83.0843H126.875V90.0198H125.001V83.0843H122.445ZM124.885 83.2004H122.329V81.3952H129.546V83.2004H126.991V90.136H124.885V83.2004Z" fill="#778187"/>
</g>
</g>
</g>
</g>
</svg>
