<svg width="147" height="151" viewBox="0 0 147 151" fill="none" xmlns="http://www.w3.org/2000/svg">
<g id="integration" clip-path="url(#clip0_44_694)">
<path id="Vector" d="M54.2438 68.9568V82.542H51.3491V73.6074L45.5791 82.542H42.6848V68.9568H45.5791V77.9107L51.3491 68.9568H54.2438Z" fill="#778187"/>
<path id="Vector_2" d="M65.3625 72.5652V82.542H62.5449V78.6441H59.0137V82.542H56.1962V72.5652H59.0137V76.2127H62.5449V72.5652H65.3625Z" fill="#778187"/>
<path id="Vector_3" d="M75.1865 74.997H72.1953V82.542H69.3782V74.997H66.3874V72.5652H75.1865V74.997Z" fill="#778187"/>
<path id="Vector_4" d="M78.5276 76.3864H82.503C82.4256 75.2482 81.692 74.5337 80.5723 74.5337C79.4539 74.5337 78.6817 75.2288 78.5276 76.3864ZM78.5081 78.3546V78.3932C78.5081 79.6091 79.4149 80.5544 80.7663 80.5544C81.7305 80.5544 82.29 80.0721 82.4256 79.6864H85.1461C84.8759 81.0756 83.5443 82.7736 80.7077 82.7736C77.6785 82.7736 75.671 80.8439 75.671 77.6022C75.671 74.3406 77.6586 72.3337 80.5536 72.3337C83.4092 72.3337 85.2426 74.302 85.2426 77.3899V78.3546H78.5081Z" fill="#778187"/>
<path id="Vector_5" d="M93.5232 74.997H89.2594V82.542H86.4418V72.5652H93.5232V74.997Z" fill="#778187"/>
<path id="Vector_6" d="M101.726 77.5632C101.726 75.865 100.877 74.7648 99.5653 74.7648C98.2527 74.7648 97.3851 75.8457 97.3851 77.5245V77.6018C97.3851 79.2805 98.2527 80.342 99.5653 80.342C100.877 80.342 101.726 79.2612 101.726 77.5632ZM104.563 77.5632C104.563 80.8436 102.614 82.7733 100.164 82.7733C98.8898 82.7733 97.9446 82.2715 97.4426 81.577V86.2275H94.6251V72.5652H97.3266V73.7234C97.828 72.9706 98.7737 72.3335 100.24 72.3335C102.614 72.3335 104.563 74.2251 104.563 77.5632Z" fill="#778187"/>
<path id="Vector_7" d="M111.474 78.779V78.3353H109.506C108.637 78.3353 108.02 78.7597 108.02 79.4736C108.02 80.1688 108.58 80.5932 109.448 80.5932C110.529 80.5932 111.474 79.9372 111.474 78.779ZM114.233 76.0195V82.5421H111.628V81.4613C111.011 82.2718 109.969 82.7736 108.676 82.7736C106.746 82.7736 105.202 81.6161 105.202 79.6091C105.202 77.5634 106.746 76.3864 109.294 76.3864H111.474V75.9233C111.474 74.9972 110.779 74.5148 109.834 74.5148C108.869 74.5148 108.367 74.9585 108.213 75.4796H105.588C105.859 73.7623 107.345 72.3337 109.949 72.3337C112.517 72.3337 114.233 73.5882 114.233 76.0195Z" fill="#778187"/>
<path id="Vector_8" d="M126.375 80.1106V85.0118H123.673V82.5419H115.877V72.5652H118.694V80.1106H122.148V72.5652H124.965V80.1106H126.375Z" fill="#778187"/>
<path id="Vector_9" d="M136.68 72.5652V82.542H133.922V76.7145L130.063 82.542H127.4V72.5652H130.159V78.3545L134.018 72.5652H136.68Z" fill="#778187"/>
<path id="Vector_10" d="M143.766 77.3509V74.7648H142.318C141.431 74.7648 140.891 75.3053 140.891 76.0387C140.891 76.7912 141.412 77.3509 142.318 77.3509H143.766ZM146.545 72.5652V82.542H143.766V79.4928H142.589L140.62 82.542H137.514L139.848 78.9717C138.729 78.3545 138.112 77.2735 138.112 76.0193C138.112 74.0898 139.385 72.5652 141.933 72.5652H146.545Z" fill="#778187"/>
<path id="Vector_11" d="M28.3597 87.1984V63.8948H33.0796V87.1984H28.3597Z" fill="#778187"/>
<path id="Vector_12" d="M9.61523 87.2274V77.9422H0.330017V73.1758H9.61523V63.8906H14.3817V73.1758H23.6668V77.9422H14.3817V87.2274" fill="#778187"/>
</g>
<defs>
<clipPath id="clip0_44_694">
<rect width="146.33" height="150" fill="white" transform="translate(0.330017 0.5)"/>
</clipPath>
</defs>
</svg>
