<svg width="147" height="150" viewBox="0 0 147 150" fill="none" xmlns="http://www.w3.org/2000/svg">
<g id="softline" clip-path="url(#clip0_44_754)">
<g id="Group" style="mix-blend-mode:luminosity">
<path id="Vector" d="M0.150136 83.4129L7.73834 82.693C7.95521 83.4588 8.41508 84.1334 9.04862 84.6152C9.72296 85.0343 10.5091 85.2378 11.3021 85.1984C12.148 85.2494 12.9868 85.0162 13.6851 84.536C13.8859 84.4009 14.0505 84.2188 14.1647 84.0054C14.2789 83.7921 14.3392 83.5541 14.3402 83.3121C14.327 83.0427 14.2383 82.7823 14.0843 82.5609C13.9302 82.3394 13.7171 82.1656 13.4691 82.0594C12.4029 81.6834 11.3001 81.4203 10.1789 81.2747C8.30595 80.9977 6.45907 80.5666 4.65698 79.986C3.61436 79.5824 2.7097 78.8877 2.05078 77.9845C1.34707 77.0636 0.974236 75.9325 0.992473 74.7736C0.96123 73.5425 1.36389 72.3396 2.12998 71.3754C2.95174 70.3674 4.04653 69.6176 5.28333 69.2156C7.02488 68.6846 8.84139 68.4414 10.6613 68.4956C12.4281 68.4488 14.1927 68.6523 15.9025 69.1004C16.9861 69.4098 17.9757 69.9838 18.7823 70.7707C19.6171 71.6565 20.2593 72.7056 20.6685 73.8521L13.3539 74.6152C13.2192 74.0426 12.8912 73.5341 12.4252 73.1753C11.784 72.7569 11.0307 72.5434 10.2654 72.5633C9.61015 72.5091 8.95518 72.671 8.40069 73.0241C8.22395 73.153 8.07898 73.3205 7.97669 73.5139C7.8744 73.7073 7.81751 73.9214 7.81034 74.14C7.80796 74.3752 7.87499 74.6058 8.00306 74.8029C8.13111 75.0002 8.31453 75.1553 8.53026 75.2487C9.58088 75.624 10.6784 75.8518 11.7917 75.9255C13.7243 76.0793 15.629 76.4834 17.4576 77.1278C18.5989 77.5676 19.5855 78.3338 20.2941 79.3308C20.9431 80.2455 21.2882 81.341 21.2805 82.4625C21.2662 83.662 20.9063 84.8319 20.2438 85.8319C19.4346 87.0077 18.2909 87.9132 16.9608 88.4309C15.0116 89.1518 12.9396 89.482 10.8629 89.4028C7.22478 89.4028 4.63539 88.8844 3.09471 87.8477C1.56033 86.8166 0.492506 85.2239 0.121338 83.4129" fill="#778187"/>
<path id="Vector_2" d="M25.744 86.9622C27.7262 88.5893 30.318 89.4029 33.5194 89.4029C37.1095 89.4029 39.9245 88.4237 41.9643 86.4655C42.9696 85.4891 43.7604 84.3139 44.286 83.0148C44.8116 81.7157 45.0605 80.3212 45.0168 78.9205C45.0828 76.3905 44.1993 73.9274 42.5402 72.0162C40.4956 69.7076 37.4791 68.5509 33.4905 68.5461C29.9916 68.5461 27.2175 69.5324 25.168 71.505C24.1564 72.4732 23.3599 73.6434 22.8302 74.9396C22.3006 76.2358 22.0497 77.629 22.0939 79.0285C22.0496 80.5393 22.3546 82.0399 22.9852 83.4135C23.6158 84.7871 24.5549 85.9966 25.7296 86.9479M30.8412 74.9896C31.1719 74.574 31.5941 74.2402 32.0748 74.0142C32.5555 73.7882 33.0819 73.6761 33.6129 73.6864C34.1243 73.6825 34.6298 73.796 35.0903 74.0182C35.5509 74.2404 35.9543 74.5653 36.2695 74.968C37.0615 76.1081 37.4377 77.4857 37.335 78.8701C37.335 80.7467 36.9823 82.1098 36.2767 82.9594C35.9465 83.3618 35.5311 83.6859 35.0606 83.9085C34.5899 84.131 34.0759 84.2465 33.5553 84.2465C33.0348 84.2465 32.5207 84.131 32.0501 83.9085C31.5796 83.6859 31.1642 83.3618 30.834 82.9594C30.114 82.1002 29.754 80.7708 29.754 78.9708C29.754 77.1998 30.114 75.8751 30.8412 75.0112" fill="#778187"/>
<path id="Vector_3" d="M55.3205 68.9996H58.9634V74.6152H55.3205V88.9493H47.6603V74.6152H44.7805V68.9996H47.6603V68.0997C47.6683 67.2011 47.755 66.305 47.9194 65.4215C48.0477 64.5548 48.3891 63.7335 48.913 63.0313C49.4529 62.3675 50.1511 61.8501 50.9432 61.5266C52.1727 61.0875 53.4765 60.8942 54.7805 60.9579C56.7413 61.0018 58.6979 61.1581 60.6409 61.4259L59.7769 66.0335C59.0418 65.9049 58.2983 65.8303 57.5523 65.8103C57.0306 65.765 56.5081 65.8886 56.062 66.1631C55.7276 66.4422 55.501 66.8292 55.4212 67.2574C55.3379 67.8342 55.3066 68.4173 55.3277 68.9996" fill="#778187"/>
<path id="Vector_4" d="M69.0491 74.6152V81.6922C69.0028 82.2645 69.0839 82.8398 69.2868 83.3769C69.4243 83.5947 69.6197 83.7699 69.8511 83.8831C70.0824 83.9962 70.3407 84.0428 70.597 84.0176C71.4042 83.9733 72.2002 83.8084 72.9585 83.5281L73.5272 88.7837C71.7909 89.1808 70.0167 89.3884 68.2356 89.4028C66.7972 89.4923 65.3578 89.2459 64.0311 88.6829C63.129 88.1923 62.4225 87.407 62.0297 86.4583C61.5163 84.9046 61.299 83.2684 61.389 81.6347V74.6152H58.5812V68.9996H61.389V65.3351L69.0491 61.4114V74.6152Z" fill="#778187"/>
<path id="Vector_5" d="M82.9011 61.4114H75.2407V88.9493H82.9011V61.4114Z" fill="#778187"/>
<path id="Vector_6" d="M93.7876 68.9996H86.1271V88.9493H93.7876V68.9996Z" fill="#778187"/>
<path id="Vector_7" d="M93.7876 61.4114H86.1271V66.6454H93.7876V61.4114Z" fill="#778187"/>
<path id="Vector_8" d="M96.7111 68.9996H103.853V72.2466C104.714 71.0736 105.81 70.0929 107.071 69.3669C108.309 68.766 109.676 68.4745 111.052 68.5173C111.965 68.4638 112.879 68.6042 113.734 68.9293C114.589 69.2544 115.366 69.7569 116.012 70.4036C117.208 71.6635 117.798 73.6073 117.798 76.2351V88.9493H110.145V77.9774C110.227 77.0323 109.972 76.0886 109.425 75.3136C109.176 75.0484 108.871 74.8412 108.533 74.7068C108.194 74.5725 107.83 74.5142 107.467 74.536C107.04 74.5284 106.616 74.6184 106.23 74.7994C105.843 74.9803 105.503 75.2473 105.235 75.5799C104.659 76.2999 104.378 77.5382 104.378 79.3597V88.9493H96.7111V68.9996Z" fill="#778187"/>
<path id="Vector_9" d="M142.614 80.0364C142.704 77.8228 142.259 75.6203 141.318 73.6145C140.481 71.9867 139.158 70.6604 137.532 69.8204C135.881 68.9565 133.632 68.5245 130.786 68.5245C127.273 68.5245 124.52 69.4844 122.528 71.4043C121.53 72.3889 120.748 73.5711 120.232 74.8753C119.716 76.1794 119.478 77.5768 119.533 78.9781C119.479 80.999 119.992 82.9944 121.017 84.7377C121.901 86.2579 123.206 87.4903 124.774 88.287C126.736 89.1174 128.859 89.4986 130.987 89.4028C134.026 89.4028 136.351 88.9709 137.978 88.0998C139.745 87.0835 141.186 85.5852 142.132 83.7801L134.623 83.1034C134.265 83.5987 133.818 84.0234 133.306 84.3561C132.662 84.7273 131.932 84.921 131.189 84.9176C130.643 84.9356 130.099 84.8289 129.601 84.6056C129.101 84.3823 128.66 84.0483 128.309 83.6289C127.715 82.8391 127.373 81.8879 127.33 80.9004H142.614V80.0364ZM127.381 77.2647C127.415 76.3044 127.703 75.3705 128.216 74.5577C128.525 74.1484 128.917 73.8081 129.365 73.5589C129.813 73.3095 130.31 73.1567 130.82 73.1099C131.331 73.0632 131.846 73.1236 132.333 73.2873C132.818 73.451 133.266 73.7145 133.644 74.0609C134.388 74.9656 134.806 76.0938 134.832 77.2647H127.381Z" fill="#778187"/>
<path id="Vector_10" d="M35.2834 64.0609C42.181 64.696 48.9999 66.0029 55.6435 67.9629C62.4253 69.7916 73.2173 68.9996 73.2173 68.9996V74.6152C66.1134 75.3165 58.9415 74.4943 52.1806 72.2034C38.5016 67.2286 32.3461 66.2207 25.0387 65.7239C15.1395 65.004 3.34677 66.5231 3.34677 66.5231L3.23157 65.5007C3.23157 65.5007 20.3014 62.477 35.2834 64.0609Z" fill="#778187"/>
<path id="Vector_11" d="M142.456 65.112H142.83C143.371 65.112 143.421 64.8384 143.421 64.6944C143.421 64.32 142.902 64.3272 142.83 64.3272H142.456V65.112ZM143.125 63.6721C143.896 63.6721 144.299 64.0825 144.299 64.6224C144.302 64.8165 144.236 65.0051 144.111 65.1543C143.987 65.3034 143.814 65.4034 143.622 65.436C143.786 65.5084 143.918 65.6393 143.989 65.8031L144.551 67.1638H143.622L143.169 66.0551C143.133 65.9676 143.071 65.8935 142.991 65.8432C142.91 65.7928 142.817 65.7688 142.722 65.7743H142.456V67.1638H141.599V63.6649L143.125 63.6721ZM142.896 68.0494C143.418 68.0494 143.929 67.8944 144.363 67.6041C144.798 67.3137 145.136 66.9011 145.337 66.4183C145.536 65.9355 145.588 65.4042 145.487 64.8917C145.385 64.3792 145.133 63.9084 144.764 63.5388C144.394 63.1693 143.923 62.9177 143.411 62.8157C142.898 62.7138 142.367 62.7661 141.884 62.9661C141.401 63.1661 140.989 63.5047 140.698 63.9392C140.408 64.3737 140.253 64.8846 140.253 65.4072C140.255 66.1073 140.534 66.7783 141.029 67.2734C141.524 67.7685 142.195 68.0475 142.896 68.0494ZM142.896 61.973C143.574 61.973 144.239 62.1744 144.803 62.5518C145.368 62.9291 145.808 63.4655 146.068 64.093C146.328 64.7205 146.396 65.411 146.264 66.0771C146.131 66.7433 145.804 67.3552 145.324 67.8355C144.844 68.3157 144.231 68.6428 143.565 68.7753C142.899 68.9078 142.209 68.8398 141.581 68.5799C140.953 68.32 140.417 67.8798 140.04 67.3151C139.663 66.7503 139.461 66.0864 139.461 65.4072C139.461 64.9559 139.548 64.5089 139.721 64.0919C139.893 63.6748 140.146 63.2958 140.465 62.9768C140.784 62.6577 141.163 62.4047 141.58 62.2325C141.997 62.0603 142.444 61.9721 142.896 61.973Z" fill="#778187"/>
</g>
</g>
<defs>
<clipPath id="clip0_44_754">
<rect width="146.33" height="150" fill="white"/>
</clipPath>
</defs>
</svg>
