<svg width="147" height="150" viewBox="0 0 147 150" fill="none" xmlns="http://www.w3.org/2000/svg">
<g id="ibs" clip-path="url(#clip0_44_790)">
<path id="Vector" fill-rule="evenodd" clip-rule="evenodd" d="M-7.43866e-05 46.3031V60.0737H4.87595V89.9206H-7.43866e-05V103.69H31.7055V89.9196H26.8278V60.073H31.7055V46.3031H-7.43866e-05ZM75.4294 46.3031H34.1448V60.0737H39.0208V89.9206H34.1448V103.69H77.4295C86.8377 103.69 92.675 96.4775 92.675 86.9635C92.675 80.3239 89.19 74.9105 83.1813 72.7007C90.0608 68.9301 90.2357 63.3548 90.2357 60.4047C90.2374 50.1521 82.7455 46.2195 75.4294 46.3031ZM58.5309 60.073H65.6714C68.0245 60.073 69.9392 61.8751 69.9392 64.0918C69.9392 66.3066 68.0237 68.1071 65.6714 68.1071H58.5309V60.073ZM58.5309 81.8837H66.4578C68.81 81.8837 70.7248 83.6851 70.7248 85.9C70.7248 88.1099 68.81 89.9188 66.4578 89.9188H58.5309V81.8837ZM143.892 46.3031H113.407C99.1211 46.3031 92.6758 54.8285 92.6758 63.7608C92.6758 74.2573 99.9058 81.8847 110.617 81.8847H122.552C124.901 81.8847 126.818 83.6859 126.818 85.9008C126.818 88.1107 124.901 89.9196 122.552 89.9196H114.624V85.3261H95.1143V103.689H127.08C138.666 103.689 146.33 97.6238 146.33 86.636C146.33 67.6994 129.347 68.1062 124.555 68.1062H118.456C116.106 68.1062 114.192 66.3066 114.192 64.0908C114.192 61.8741 116.106 60.072 118.456 60.072H124.378V64.6631H143.892V46.3031Z" fill="#778187"/>
</g>
<defs>
<clipPath id="clip0_44_790">
<rect width="146.33" height="150" fill="white"/>
</clipPath>
</defs>
</svg>
