<svg width="147" height="150" viewBox="0 0 147 150" fill="none" xmlns="http://www.w3.org/2000/svg">
<g id="gazprom" clip-path="url(#clip0_44_816)">
<path id="Vector" d="M45.1658 86.0808H54.4398V89.111H50.028V110.402H45.1658V86.0808Z" fill="#778187"/>
<path id="Vector_2" d="M59.9388 101.272L60.7721 89.111H61.0512L61.8845 101.272H59.9388ZM54.5542 110.402H59.3148L59.7654 103.943H62.0579L62.5105 110.402H67.2692L64.7333 86.0808H57.09L54.5542 110.402Z" fill="#778187"/>
<path id="Vector_3" d="M74.234 101.89V106.475C74.234 107.093 74.7124 107.272 74.9915 107.272C75.4501 107.272 75.769 106.894 75.769 106.475V100.813C75.769 100.056 75.6295 99.2184 73.8153 99.2184H71.8417V96.547H73.8951C75.2706 96.547 75.769 96.228 75.769 94.7329V89.9085C75.769 89.4898 75.4501 89.111 74.9915 89.111C74.7124 89.111 74.234 89.2705 74.234 89.9085V93.8756H69.3697V90.4268C69.3697 88.7323 69.569 86.0808 72.978 86.0808H77.005C80.4137 86.0808 80.6332 88.7323 80.6332 90.4268V94.3142C80.6332 96.9656 78.7797 97.6834 77.324 97.6236V97.8627C80.5938 97.783 80.6332 100.295 80.6332 101.152V106.056C80.6332 107.771 80.4137 110.402 77.005 110.402H72.978C69.569 110.402 69.3697 107.771 69.3697 106.056V101.89H74.234Z" fill="#778187"/>
<path id="Vector_4" d="M83.8196 86.0808H95.0829V110.402H90.2187V89.111H88.6838V110.402H83.8196V86.0808Z" fill="#778187"/>
<path id="Vector_5" d="M103.14 99.4576V89.111H103.778C104.296 89.111 104.675 89.5496 104.675 90.3271V98.2415C104.675 99.019 104.296 99.4576 103.778 99.4576H103.14ZM98.2755 110.402H103.14V102.129H105.931C109.32 102.129 109.539 99.4975 109.539 97.783V90.4268C109.539 88.7323 109.32 86.0808 105.931 86.0808H98.2755V110.402Z" fill="#778187"/>
<path id="Vector_6" d="M119.131 106.475C119.131 106.894 118.812 107.272 118.353 107.272C118.074 107.272 117.596 107.093 117.596 106.475V89.9085C117.596 89.2705 118.074 89.111 118.353 89.111C118.812 89.111 119.131 89.4898 119.131 89.9085V106.475ZM112.732 106.056C112.732 107.771 112.951 110.402 116.34 110.402H120.387C123.776 110.402 123.995 107.771 123.995 106.056V90.4268C123.995 88.7323 123.776 86.0808 120.387 86.0808H116.34C112.951 86.0808 112.732 88.7323 112.732 90.4268V106.056Z" fill="#778187"/>
<path id="Vector_7" d="M139.82 86.0808H146.16V110.402H141.296V95.1515H141.116L138.604 110.402H134.717L132.225 95.1515H132.045V110.402H127.181V86.0808H133.501L136.671 103.186L139.82 86.0808Z" fill="#778187"/>
<path id="Vector_8" d="M38.8621 52.8272C37.3728 46.3082 33.6409 41.0054 33.1266 40.1481C32.3132 41.3642 29.3368 46.0491 27.8237 51.2324C26.171 57.0337 25.9278 62.1771 26.498 67.2208C27.0641 72.2844 29.2032 77.4876 29.2032 77.4876C30.3396 80.1989 32.0421 83.1294 33.1505 84.5648C34.7753 82.4516 38.5092 76.152 39.6734 67.9385C40.3213 63.3532 40.3493 59.3462 38.8621 52.8272ZM33.1266 82.9301C32.3949 81.5545 31.2586 78.943 31.151 74.8761C31.1231 70.9686 32.692 67.5996 33.1505 66.9018C33.5592 67.5996 34.9108 70.5301 35.0723 74.5372C35.1819 78.4446 33.8821 81.5345 33.1266 82.9301ZM38.4295 63.8915C38.3736 66.3835 38.0766 69.015 37.6978 70.5899C37.8334 67.8787 37.5085 64.0709 36.8864 61.0806C36.2644 58.1102 34.5041 53.1262 33.0986 50.8337C31.8009 53.0266 30.202 57.3327 29.3647 61.0607C28.5234 64.7886 28.4995 69.314 28.4995 70.6696C28.2762 69.5333 27.718 65.4465 27.8755 61.3597C28.0071 57.9905 28.7965 54.5018 29.2291 52.907C30.8798 47.5842 32.7478 44.1751 33.0986 43.6369C33.4495 44.1751 35.8019 48.3816 37.022 52.7873C38.2361 57.1931 38.4813 61.4195 38.4295 63.8915Z" fill="#778187"/>
<path id="Vector_9" d="M35.6518 86.0797H24.3304V93.6752C24.3404 93.6752 24.3483 93.6553 24.3583 93.6553C27.0256 90.9839 31.3517 90.9839 34.0211 93.6553C36.6885 96.3067 36.6885 100.633 34.0211 103.304C34.0091 103.324 33.9971 103.324 33.9852 103.344C33.9713 103.344 33.9572 103.364 33.9453 103.384C31.2839 106.015 27.8071 107.331 24.3304 107.331C20.8376 107.331 17.3449 106.015 14.6815 103.344C9.98463 98.6591 9.42843 91.3825 13.0089 86.0797C13.4913 85.362 14.0475 84.6842 14.6815 84.0462C17.3449 81.3749 20.8376 80.0591 24.3304 80.0591V61.7981C10.9096 61.7981 0.0307617 72.6629 0.0307617 86.0797C0.0307617 99.4964 10.9096 110.381 24.3304 110.381C31.3278 110.381 37.6314 107.411 42.0652 102.686V86.0797H35.6518Z" fill="#778187"/>
</g>
<defs>
<clipPath id="clip0_44_816">
<rect width="146.33" height="150" fill="white"/>
</clipPath>
</defs>
</svg>
