<svg width="147" height="150" viewBox="0 0 147 150" fill="none" xmlns="http://www.w3.org/2000/svg">
<g id="graitek" clip-path="url(#clip0_44_770)">
<path id="Vector" d="M102.53 81.8036V89.062C102.53 89.2297 102.53 89.3974 102.527 89.5644C102.524 89.6992 102.451 89.7803 102.332 89.787C102.277 89.7903 102.221 89.7921 102.165 89.7924C101.401 89.7924 100.638 89.7921 99.8747 89.7915C99.7819 89.7906 99.6893 89.7808 99.5984 89.762C99.569 89.7561 99.5355 89.715 99.5254 89.6831C99.5107 89.6293 99.5036 89.5737 99.5044 89.5179C99.5014 89.3502 99.5016 89.1825 99.5016 89.0154V80.1378C99.5016 79.9701 99.495 79.8033 99.4888 79.6361C99.4888 79.6264 99.4653 79.6134 99.4505 79.609C99.4358 79.6047 99.4085 79.6016 99.4013 79.61C99.3428 79.6809 99.2806 79.7499 99.2323 79.8278C98.2803 81.3612 97.3293 82.8951 96.3795 84.4299L93.351 89.3171C93.2923 89.412 93.2235 89.5016 93.1726 89.6004C93.0928 89.7551 92.9638 89.8008 92.803 89.7928C92.7844 89.7918 92.7656 89.7928 92.7471 89.7928C91.8908 89.7928 91.0342 89.7938 90.1779 89.7915C90.0854 89.7896 89.9934 89.7783 89.9032 89.7578C89.8737 89.7513 89.8446 89.7124 89.8287 89.6815C89.8135 89.6478 89.806 89.6112 89.8065 89.5743C89.803 89.4253 89.8014 89.2762 89.8016 89.1271V74.4987C89.8016 74.3685 89.8001 74.2381 89.8029 74.1074C89.8078 73.8679 89.8588 73.8138 90.101 73.8138C90.9202 73.8116 91.7394 73.8138 92.5586 73.8138C92.5956 73.8154 92.6326 73.819 92.6695 73.8243C92.738 73.8315 92.8115 73.9006 92.8143 73.9703C92.8215 74.1557 92.8289 74.3415 92.8291 74.5272C92.8299 77.5793 92.8304 80.6317 92.8304 83.6838C92.8304 83.8507 92.8388 84.0176 92.8467 84.1843C92.8467 84.1927 92.8778 84.2029 92.8955 84.2062C92.9133 84.2096 92.9366 84.2103 92.9447 84.2009C93.0042 84.131 93.0692 84.0651 93.1162 83.9878C93.7751 82.9078 94.4326 81.8269 95.0887 80.7451C96.4234 78.5518 97.7585 76.3586 99.0938 74.1654C99.1229 74.1178 99.1558 74.0721 99.1821 74.0232C99.2594 73.88 99.3692 73.8088 99.5404 73.8098C100.434 73.8148 101.328 73.8121 102.221 73.8124C102.258 73.8124 102.296 73.8157 102.333 73.818C102.438 73.8249 102.515 73.8927 102.521 73.9864C102.527 74.0803 102.53 74.172 102.53 74.2651C102.531 74.6371 102.53 75.0094 102.53 75.3816V81.8036ZM119.534 81.7579V74.553C119.534 74.3853 119.534 74.2174 119.538 74.0497C119.541 73.882 119.607 73.8202 119.779 73.8152C119.909 73.8113 120.04 73.812 120.17 73.812H130.731C130.898 73.812 131.065 73.8194 131.233 73.8259C131.296 73.8286 131.367 73.9083 131.372 73.9767C131.377 74.0328 131.383 74.0877 131.384 74.1432C131.384 74.8321 131.384 75.521 131.384 76.2099C131.384 76.2658 131.379 76.3217 131.374 76.3766C131.369 76.4383 131.29 76.5263 131.233 76.5289C131.066 76.5361 130.899 76.5443 130.732 76.5443C128.515 76.5455 126.299 76.5455 124.083 76.5443C123.766 76.5443 123.449 76.5447 123.132 76.5452C123.076 76.5452 123.02 76.548 122.965 76.5512C122.868 76.5573 122.785 76.6353 122.78 76.7232C122.775 76.8161 122.77 76.909 122.77 77.0019C122.77 77.8769 122.77 78.7519 122.77 79.6269C122.771 79.7379 122.78 79.8486 122.797 79.9581C122.802 79.986 122.842 80.0209 122.873 80.0317C122.926 80.0493 122.981 80.0585 123.037 80.059C123.205 80.0628 123.372 80.062 123.54 80.062C125.738 80.062 127.935 80.0621 130.133 80.0626C130.301 80.0626 130.468 80.0685 130.635 80.0743C130.707 80.0768 130.78 80.146 130.786 80.2113C130.792 80.2852 130.801 80.3594 130.801 80.4332C130.802 81.0849 130.802 81.7365 130.801 82.3881C130.801 82.444 130.798 82.4999 130.795 82.5558C130.789 82.6659 130.728 82.7375 130.632 82.746C130.576 82.751 130.521 82.7562 130.465 82.7569C130.316 82.7587 130.167 82.758 130.018 82.758C127.839 82.758 125.66 82.7584 123.481 82.759C123.295 82.759 123.109 82.769 122.923 82.7782C122.856 82.7815 122.787 82.858 122.782 82.927C122.776 83.0012 122.769 83.0753 122.769 83.1495C122.769 84.3412 122.769 85.5327 122.77 86.724C122.771 86.8161 122.781 86.908 122.8 86.9981C122.805 87.0269 122.846 87.0592 122.877 87.0698C122.93 87.0865 122.985 87.0951 123.041 87.0956C123.209 87.099 123.377 87.0984 123.544 87.0984H130.975C131.161 87.0984 131.347 87.104 131.534 87.1094C131.606 87.1114 131.679 87.1793 131.685 87.2452C131.691 87.3192 131.699 87.3932 131.699 87.4673C131.701 88.1189 131.701 88.7705 131.699 89.422C131.699 89.4781 131.697 89.534 131.694 89.5899C131.687 89.7191 131.62 89.7796 131.477 89.7865C131.421 89.7893 131.365 89.7903 131.309 89.7906C131.197 89.7913 131.085 89.7906 130.973 89.7906C127.398 89.7906 123.822 89.7905 120.246 89.79C120.06 89.79 119.874 89.7819 119.689 89.7745C119.619 89.7716 119.546 89.6989 119.544 89.63C119.538 89.4442 119.532 89.2581 119.532 89.0722C119.533 86.6349 119.534 84.1968 119.534 81.7579ZM48.1024 59.2084V51.8353C48.1024 51.1476 48.0456 51.2038 48.7322 51.2036C52.5504 51.2028 56.3688 51.2028 60.187 51.2036C60.8777 51.2036 60.8284 51.1461 60.8284 51.8267V66.5722C60.8284 66.7208 60.8221 66.8694 60.8161 67.0181C60.8131 67.0894 60.7432 67.1631 60.6788 67.1697C60.6229 67.1752 60.5678 67.1846 60.5125 67.1846C59.6372 67.1856 58.7617 67.1856 57.8862 67.1846C57.8303 67.1846 57.7694 67.1869 57.7217 67.1646C57.6774 67.1438 57.6274 67.0967 57.6165 67.0528C57.5947 66.964 57.5924 66.8691 57.592 66.7765C57.5897 66.3671 57.5909 65.9574 57.5909 65.5479V54.6001C57.5909 54.4143 57.5838 54.2282 57.5769 54.0424C57.5746 53.9746 57.5013 53.9074 57.4286 53.9026C57.3359 53.8964 57.2431 53.89 57.1502 53.89C55.3622 53.8892 53.5742 53.8892 51.7862 53.89C51.6933 53.89 51.6002 53.8949 51.5075 53.9007C51.4146 53.9063 51.3454 53.9806 51.3429 54.0868C51.3386 54.2728 51.3365 54.4589 51.3367 54.645V64.2525C51.3367 65.0532 51.3363 65.8537 51.3358 66.6542C51.3378 66.7841 51.3307 66.9142 51.3148 67.0431C51.3084 67.0873 51.2589 67.1384 51.2153 67.1608C51.169 67.1849 51.107 67.1851 51.0519 67.1853C50.1578 67.1864 49.2639 67.1861 48.3698 67.1846C48.3141 67.1854 48.2586 67.1768 48.2057 67.1593C48.1749 67.1483 48.1347 67.1108 48.1322 67.082C48.1167 66.916 48.1043 66.7489 48.1043 66.5822C48.1021 64.1241 48.1015 61.6662 48.1024 59.2084ZM140.909 81.5787C141.009 81.628 141.106 81.6816 141.207 81.7255C141.768 81.9687 142.218 82.3491 142.582 82.8348C142.738 83.0431 142.891 83.2554 143.024 83.4777C143.31 83.9569 143.603 84.4337 143.856 84.9312C144.614 86.4241 145.355 87.9257 146.101 89.4248C146.141 89.5075 146.172 89.594 146.194 89.683C146.199 89.7045 146.166 89.7528 146.141 89.7622C146.089 89.7816 146.034 89.7915 145.978 89.7913C144.898 89.7929 143.818 89.7934 142.738 89.7928C142.719 89.7928 142.701 89.791 142.682 89.7916C142.533 89.7971 142.443 89.7196 142.383 89.5884C141.939 88.6251 141.486 87.6663 141.051 86.6992C140.668 85.8497 140.233 85.0282 139.778 84.2169C139.651 83.99 139.505 83.7734 139.364 83.5544C139.03 83.0349 138.534 82.8345 137.936 82.836C137.841 82.836 137.765 82.9096 137.762 83.0124C137.757 83.1798 137.754 83.3472 137.754 83.5147C137.754 85.432 137.754 87.3494 137.754 89.2668C137.754 89.8013 137.768 89.7944 137.241 89.7939C136.458 89.7929 135.676 89.7946 134.894 89.792C134.802 89.79 134.71 89.7786 134.62 89.7578C134.59 89.7515 134.561 89.7134 134.545 89.683C134.529 89.6498 134.52 89.6134 134.521 89.5766C134.517 89.4089 134.515 89.2411 134.515 89.0733V74.5531C134.515 74.3673 134.52 74.1812 134.526 73.9954C134.53 73.9044 134.614 73.8277 134.711 73.8212C134.767 73.8171 134.823 73.8134 134.879 73.8134C135.717 73.8128 136.555 73.8128 137.393 73.8134C137.467 73.8134 137.545 73.8115 137.614 73.833C137.659 73.847 137.718 73.8971 137.725 73.9386C137.745 74.0666 137.754 74.1962 137.753 74.3257C137.755 75.4055 137.756 76.4852 137.754 77.5649C137.754 78.4399 137.753 79.3147 137.756 80.1896C137.758 80.3 137.77 80.41 137.79 80.5185C137.794 80.5444 137.839 80.5654 137.868 80.5843C137.884 80.594 137.902 80.5985 137.921 80.5973C138.294 80.5753 138.656 80.4636 138.977 80.2718C139.106 80.1958 139.215 80.0898 139.294 79.9627C139.393 79.8051 139.486 79.6439 139.572 79.4795C139.899 78.8506 140.154 78.1913 140.414 77.5344C140.6 77.0675 140.786 76.5999 141.024 76.1573C141.201 75.83 141.391 75.5102 141.594 75.1986C142.008 74.5615 142.588 74.1572 143.332 73.9805C143.749 73.8813 144.165 73.7891 144.596 73.7766C144.987 73.7654 145.377 73.7388 145.767 73.7225C145.841 73.7192 145.916 73.7263 145.988 73.7434C146.039 73.7561 146.089 73.7899 146.101 73.8522C146.11 73.8881 146.116 73.9247 146.118 73.9617C146.12 74.5946 146.12 75.2274 146.12 75.8602C146.117 75.8972 146.113 75.934 146.107 75.9705C146.1 76.0365 146.027 76.1049 145.955 76.107C145.676 76.1152 145.397 76.1225 145.118 76.1287C144.912 76.1333 144.713 76.1739 144.515 76.2329C144.183 76.3319 143.914 76.5202 143.694 76.7846C143.539 76.9709 143.414 77.1803 143.323 77.4052C143.127 77.8879 142.939 78.3731 142.747 78.8571C142.61 79.2031 142.478 79.5508 142.334 79.8938C142.26 80.0645 142.177 80.2311 142.085 80.3929C141.904 80.7199 141.652 81.0018 141.346 81.2176C141.211 81.3155 141.077 81.4151 140.944 81.5155C140.931 81.5262 140.926 81.5471 140.909 81.5787ZM87.1702 67.4373C86.3996 67.4449 85.737 67.3839 85.0812 67.218C83.6402 66.8546 82.463 66.0835 81.5158 64.9515C80.6967 63.9733 80.2146 62.8347 79.9636 61.5926C79.7806 60.6792 79.71 59.7468 79.7533 58.8163C79.8048 57.6393 79.9769 56.4829 80.4133 55.3801C81.1013 53.6407 82.2787 52.352 83.984 51.5681C84.6953 51.2396 85.4598 51.0415 86.2411 50.9831C86.408 50.9703 86.5741 50.948 86.7418 50.9328C86.8345 50.9244 86.9276 50.9164 87.0206 50.9164C88.0311 50.9161 89.025 51.0251 89.9786 51.3886C90.5194 51.592 91.0281 51.8722 91.4891 52.2204C92.1673 52.735 92.7042 53.3685 93.08 54.1351C93.2787 54.5351 93.4431 54.9512 93.5713 55.3791C93.6152 55.5279 93.5565 55.6249 93.3954 55.6647C92.9258 55.7802 92.4554 55.8929 91.9853 56.0063C91.6779 56.0805 91.3734 56.171 91.063 56.2214C90.8657 56.2533 90.6777 56.3682 90.4671 56.3065C90.3399 56.1592 90.3295 55.9639 90.2585 55.7934C89.8029 54.701 89.0155 54.0161 87.846 53.7662C87.1905 53.6264 86.5461 53.6616 85.9148 53.8467C84.874 54.152 84.1304 54.8217 83.6628 55.794C83.4191 56.3008 83.2942 56.8448 83.2032 57.3976C83.0697 58.2104 83.0603 59.0292 83.1005 59.8475C83.1352 60.554 83.2248 61.2557 83.43 61.9372C83.5266 62.2585 83.646 62.5712 83.8127 62.8633C84.3073 63.7298 85.0315 64.3059 85.9991 64.5601C86.5961 64.7181 87.2226 64.7284 87.8245 64.5902C88.5775 64.4193 89.1855 64.0068 89.6515 63.3895C89.9459 62.9991 90.1539 62.5636 90.3126 62.1036C90.3852 61.8931 90.4403 61.6764 90.5044 61.4629C90.5324 61.3682 90.6184 61.3272 90.7244 61.3568C90.814 61.382 90.9031 61.4084 90.9919 61.4361C91.79 61.6871 92.5879 61.9387 93.3857 62.1909C93.4562 62.2142 93.5234 62.2461 93.5861 62.2857C93.6124 62.3022 93.6259 62.3433 93.639 62.3758C93.6449 62.391 93.639 62.413 93.6339 62.4308C93.3307 63.5392 92.8553 64.5594 92.0897 65.4303C91.303 66.3247 90.317 66.8898 89.1722 67.1935C88.4838 67.3766 87.7832 67.4533 87.1702 67.4373ZM63.5781 59.3738C63.6044 58.4021 63.655 57.511 63.8612 56.6363C64.0544 55.8169 64.3299 55.029 64.7678 54.3054C65.6394 52.8658 66.8606 51.8532 68.4642 51.3182C68.9952 51.1413 69.5365 51.0091 70.0995 50.9808C70.2481 50.9733 70.3961 50.9529 70.5445 50.9404C70.6743 50.9295 70.8045 50.9124 70.9344 50.9134C71.9641 50.9274 72.9774 51.041 73.9394 51.4389C74.9221 51.845 75.7674 52.4374 76.4009 53.3017C76.8788 53.9541 77.2103 54.6792 77.4179 55.4605C77.434 55.5211 77.3796 55.6176 77.3193 55.6372C77.2839 55.6487 77.2494 55.6615 77.2127 55.6702C76.2902 55.8906 75.3677 56.1104 74.4451 56.3299C74.3496 56.3526 74.2759 56.3055 74.2355 56.1983C74.1765 56.0417 74.1237 55.8823 74.0606 55.7276C73.7271 54.9149 73.164 54.3183 72.3546 53.9733C70.9944 53.3936 69.1893 53.6623 68.0977 54.8789C67.7565 55.2589 67.5083 55.6931 67.3404 56.171C67.1549 56.6991 67.0421 57.2443 66.9858 57.8027C66.8998 58.6362 66.8956 59.476 66.9734 60.3103C67.0229 60.8312 67.1013 61.3445 67.2371 61.8478C67.4039 62.4659 67.6704 63.0358 68.1095 63.5133C68.699 64.1537 69.4153 64.5474 70.2892 64.6418C70.622 64.6803 70.9579 64.6826 71.291 64.6485C72.1949 64.5507 72.9093 64.1241 73.4613 63.4177C73.8448 62.9271 74.0796 62.3606 74.2557 61.7674C74.2926 61.6431 74.3318 61.5191 74.3787 61.3982C74.3886 61.3726 74.4346 61.3517 74.4667 61.3466C74.5014 61.3414 74.5405 61.3537 74.5757 61.3647C75.4808 61.648 76.3855 61.9322 77.29 62.2174C77.3428 62.2354 77.3911 62.264 77.4327 62.3012C77.4566 62.3219 77.4774 62.368 77.4715 62.3971C77.4488 62.5056 77.4204 62.6129 77.3864 62.7185C77.1171 63.5771 76.7399 64.3817 76.195 65.1033C75.389 66.1703 74.3174 66.8346 73.04 67.1871C72.1875 67.4225 71.316 67.457 70.4373 67.4342C69.729 67.4148 69.0279 67.2863 68.3588 67.0532C66.8986 66.5501 65.76 65.6266 64.9024 64.3516C64.3222 63.4893 63.9875 62.5274 63.7757 61.517C63.6215 60.7837 63.6162 60.0381 63.5781 59.3738ZM30.3677 51.1222H37.9075C38.0935 51.1222 38.2794 51.129 38.4652 51.1362C38.5331 51.1385 38.6007 51.2118 38.6076 51.2834C38.6129 51.3393 38.6196 51.394 38.6204 51.4494C38.6226 51.5798 38.6217 51.71 38.6217 51.8407C38.6217 56.8098 38.6216 61.7787 38.6209 66.7474C38.6209 66.9331 38.6096 67.1184 38.602 67.3036C38.6 67.3498 38.5741 67.3762 38.5336 67.3712C38.4996 67.3673 38.4555 67.3642 38.4358 67.3425C38.3979 67.3028 38.3695 67.255 38.3529 67.2027C38.3192 67.0771 38.2903 66.9502 38.2663 66.8224C37.6583 63.7158 36.3694 60.9229 34.4 58.4442C32.4509 55.9984 30.0506 54.1305 27.1993 52.8405C25.9446 52.2718 24.6314 51.8422 23.2832 51.5594C23.0105 51.502 22.7349 51.4586 22.4613 51.4047C22.3679 51.3863 22.2826 51.3432 22.2456 51.2485C22.2361 51.2238 22.2542 51.1734 22.2763 51.1546C22.3017 51.1333 22.3462 51.1283 22.3817 51.1267C22.5494 51.1227 22.7173 51.1217 22.885 51.1217L30.3677 51.1222ZM8.24215 51.1222C10.7363 51.1222 13.2302 51.1224 15.7239 51.1231C15.9094 51.1231 16.095 51.1326 16.2801 51.1451C16.3031 51.1467 16.336 51.1906 16.3408 51.2191C16.3434 51.2364 16.3423 51.254 16.3377 51.2709C16.3331 51.2878 16.325 51.3035 16.314 51.3171C16.2464 51.3851 16.1558 51.4095 16.0624 51.4239C15.1042 51.5709 14.1698 51.8177 13.2516 52.1227C11.1991 52.8033 9.27656 53.8263 7.56542 55.1484C5.56596 56.6885 3.9269 58.5465 2.6484 60.7222C1.7992 62.1667 1.14401 63.7168 0.699743 65.3325C0.541575 65.9066 0.422867 66.4887 0.296267 67.0695C0.276702 67.1595 0.273085 67.2568 0.200577 67.3244C0.176737 67.3469 0.138428 67.3563 0.105216 67.3658C0.0623036 67.3781 0.0353394 67.3564 0.0279407 67.3099C0.0190623 67.2555 0.00492253 67.2014 0.00278513 67.1466C-0.00148968 67.0348 0.000318891 66.923 0.000318891 66.8112C0.000154475 61.7879 0.000318891 56.7646 0.000647722 51.7416C0.000647722 51.593 0.00525136 51.4442 0.0121568 51.2957C0.0162672 51.2053 0.100119 51.1331 0.20255 51.1301C0.370254 51.1254 0.537794 51.1229 0.70484 51.1226C3.21711 51.1222 5.72971 51.1221 8.24232 51.1224L8.24215 51.1222ZM8.25826 89.7551H0.713883C0.527929 89.7551 0.34181 89.7482 0.155856 89.7412C0.0966665 89.739 0.0180758 89.6547 0.0152807 89.5897C0.00821085 89.4219 0.00130539 89.2553 0.00130539 89.0881C0.000483307 87.3379 -9.94073e-06 85.5876 -9.94073e-06 83.8374V74.1732C-9.94073e-06 73.9871 0.00607344 73.8009 0.0111703 73.615C0.0128145 73.5523 0.0670717 73.505 0.111464 73.5109C0.172955 73.5188 0.219649 73.552 0.234776 73.6045C0.281141 73.7648 0.325862 73.9259 0.356772 74.0903C0.60208 75.3934 0.990759 76.6537 1.50357 77.8751C2.21648 79.5781 3.17222 81.1688 4.34106 82.5979C6.17265 84.8387 8.39226 86.5882 10.9999 87.8465C12.4144 88.5261 13.8884 89.0368 15.4325 89.3347C15.67 89.3806 15.9077 89.421 16.1435 89.4758C16.2101 89.4912 16.2717 89.5427 16.3253 89.5887C16.3429 89.6037 16.3337 89.6545 16.3309 89.6884C16.3296 89.7024 16.3138 89.7257 16.303 89.7272C16.2112 89.739 16.1188 89.7537 16.0267 89.754C15.5051 89.7566 14.9835 89.7555 14.462 89.7555L8.25826 89.7551ZM30.4223 73.4475H37.908C38.094 73.4475 38.2799 73.4544 38.4659 73.4606C38.5341 73.4627 38.602 73.5348 38.6081 73.6046C38.613 73.6605 38.6199 73.7156 38.6208 73.7713C38.6229 73.9016 38.6221 74.0318 38.6221 74.1626C38.6221 79.1327 38.6217 84.1028 38.6211 89.0728C38.6211 89.2578 38.6078 89.4429 38.5989 89.6277C38.5964 89.6747 38.5658 89.6954 38.5195 89.683C38.4854 89.6736 38.4407 89.6668 38.4216 89.6425C38.3279 89.5205 38.3047 89.3714 38.2798 89.2249C38.1921 88.7109 38.0728 88.2045 37.9346 87.7014C37.1938 85.0062 35.9298 82.5836 34.1424 80.4334C32.2537 78.1648 29.9671 76.4153 27.2818 75.1851C26.0267 74.6107 24.7256 74.1709 23.3712 73.8914C23.0798 73.8312 22.7882 73.7717 22.498 73.7069C22.4268 73.6901 22.3585 73.6628 22.2953 73.626C22.2719 73.612 22.265 73.564 22.2586 73.53C22.2507 73.4894 22.2763 73.4631 22.3237 73.4618C22.5093 73.456 22.695 73.4478 22.8806 73.4478C25.3945 73.4471 27.9084 73.447 30.4223 73.4475ZM112.698 83.164V89.1394C112.698 89.3073 112.691 89.4741 112.684 89.6412C112.681 89.7081 112.607 89.7724 112.533 89.78C112.496 89.7853 112.459 89.7888 112.422 89.7905C111.528 89.7911 110.634 89.7911 109.74 89.7905C109.685 89.7905 109.624 89.7888 109.577 89.7645C109.534 89.742 109.484 89.6913 109.478 89.6476C109.461 89.5192 109.46 89.3883 109.459 89.2581C109.458 88.5322 109.458 87.8062 109.459 87.0803V77.3628C109.459 77.214 109.46 77.0649 109.458 76.9156C109.453 76.5776 109.425 76.5478 109.064 76.5471C107.872 76.5448 106.68 76.5445 105.489 76.546C105.321 76.546 105.153 76.5475 104.985 76.5435C104.762 76.5379 104.704 76.4736 104.697 76.2297C104.695 76.1553 104.696 76.0809 104.696 76.0061C104.696 75.429 104.695 74.852 104.697 74.2749C104.696 74.1637 104.706 74.0527 104.728 73.9436C104.738 73.9009 104.795 73.8572 104.84 73.8365C104.888 73.8144 104.949 73.8149 105.004 73.8134C105.134 73.8103 105.265 73.8116 105.395 73.8116H116.736C116.885 73.8116 117.034 73.8116 117.184 73.8152C117.338 73.819 117.404 73.8937 117.411 74.0652C117.412 74.0837 117.413 74.1025 117.413 74.1211C117.413 74.8285 117.413 75.5358 117.412 76.2433C117.412 76.2982 117.4 76.3533 117.393 76.4082C117.39 76.4362 117.377 76.4624 117.358 76.483C117.339 76.5036 117.313 76.5175 117.286 76.5226C117.138 76.5386 116.989 76.5462 116.841 76.5448C115.686 76.5463 114.531 76.5468 113.377 76.5463C113.209 76.5463 113.042 76.5509 112.875 76.5575C112.777 76.5614 112.71 76.6353 112.707 76.7413C112.702 76.909 112.699 77.0764 112.699 77.2436C112.697 79.2172 112.697 81.1907 112.698 83.164ZM48.0909 81.8066V74.49C48.0909 74.3223 48.0941 74.1549 48.1003 73.9879C48.1036 73.8937 48.1825 73.8241 48.2874 73.8202C48.4178 73.8152 48.5484 73.8128 48.6789 73.8128H58.2888C58.9664 73.8128 58.9277 73.7776 58.9272 74.4468C58.9272 75.0058 58.9282 75.5638 58.9256 76.1223C58.9241 76.2143 58.9136 76.3059 58.8944 76.3959C58.8884 76.4255 58.8514 76.459 58.8209 76.4712C58.7695 76.492 58.7148 76.5038 58.6594 76.5059C58.4917 76.511 58.324 76.5098 58.1563 76.5098H52.0662C51.8985 76.5098 51.7308 76.5098 51.5631 76.5133C51.4021 76.5172 51.3307 76.5904 51.3266 76.755C51.3224 76.9227 51.323 77.0904 51.323 77.2581C51.323 81.205 51.3227 85.1519 51.3224 89.0986C51.3224 89.8659 51.3922 89.7913 50.6389 89.7934C49.9312 89.7957 49.2236 89.7957 48.5158 89.7934C48.4232 89.7934 48.3303 89.7839 48.2378 89.7772C48.173 89.7724 48.1062 89.6982 48.1023 89.6262C48.0972 89.5335 48.0914 89.4408 48.0909 89.3477C48.0895 89.0314 48.0909 88.7147 48.0909 88.3982V81.8066ZM93.5392 69.8585H93.8187C94.2442 69.8622 94.259 69.8248 94.3791 70.2848C94.5349 70.8819 94.9476 71.2182 95.5453 71.3497C95.964 71.4421 96.3979 71.4431 96.817 71.3527C97.3925 71.2321 97.7913 70.9163 97.9817 70.353C98.0054 70.2831 98.0286 70.2121 98.0498 70.1409C98.1287 69.8769 98.1409 69.8614 98.3739 69.8603C98.7269 69.859 99.0802 69.8641 99.4334 69.8688C99.5195 69.8701 99.5877 69.9354 99.5799 70.0004C99.4934 70.6948 99.2844 71.341 98.829 71.8888C98.4122 72.3898 97.8902 72.7301 97.2583 72.8929C96.5615 73.0723 95.8606 73.077 95.1618 72.9013C94.2832 72.68 93.6305 72.1647 93.2038 71.3683C92.9822 70.9548 92.8451 70.5127 92.8138 70.0416C92.8071 69.9423 92.8737 69.8729 92.9815 69.8664C93.0374 69.8629 93.0933 69.8595 93.1486 69.859C93.2786 69.858 93.4088 69.859 93.5391 69.859L93.5392 69.8585ZM82.8792 96.7767C83.1394 96.7767 83.3999 96.7744 83.6601 96.7781C83.7553 96.7792 83.8264 96.8629 83.8346 96.9622C83.8659 97.3351 83.7997 97.7097 83.6424 98.0493C83.3749 98.6364 82.9071 98.9708 82.2695 99.0576C82.085 99.0812 81.8987 99.0869 81.7131 99.0747C80.8578 99.0244 80.2927 98.5647 79.9894 97.7871C79.7433 97.1562 79.7544 96.5066 80.0016 95.8779C80.4059 94.8495 81.355 94.4999 82.2475 94.6127C82.377 94.6277 82.5046 94.657 82.6279 94.6997C83.2124 94.9093 83.5959 95.3042 83.7267 95.9236C83.7361 95.9678 83.682 96.0303 83.6266 96.0354C83.5526 96.042 83.4786 96.0466 83.4045 96.0494C83.2835 96.0546 83.187 96.013 83.1302 95.8996C83.121 95.8835 83.1126 95.8668 83.1052 95.8498C82.7738 94.9325 81.2717 94.8403 80.6913 95.8297C80.2786 96.5332 80.3102 97.2512 80.7406 97.9434C81.0722 98.4769 81.7761 98.644 82.258 98.524C82.7611 98.3982 83.0773 98.1031 83.2055 97.61C83.2886 97.2904 83.2583 97.2453 82.9347 97.2458C82.6745 97.2458 82.4139 97.2458 82.1538 97.2371C82.0138 97.2325 81.9745 97.1592 81.9747 97.0091C81.9747 96.8589 82.0306 96.7813 82.1539 96.779C82.3956 96.7743 82.6373 96.7776 82.8792 96.7776V96.7767ZM51.2605 96.7808C51.5022 96.7808 51.7439 96.7794 51.9856 96.7818C52.0598 96.7825 52.1342 96.8502 52.1416 96.9124C52.1893 97.308 52.1525 97.6942 51.9813 98.0567C51.7063 98.6392 51.2456 98.9818 50.6037 99.0573C50.3819 99.0818 50.1583 99.0836 49.9362 99.0629C49.3656 99.0131 48.9148 98.7428 48.586 98.2742C48.3694 97.9695 48.2351 97.6141 48.196 97.2424C48.1618 96.9254 48.159 96.6084 48.2207 96.2973C48.3422 95.6863 48.6401 95.1814 49.197 94.8715C49.8193 94.5253 50.4756 94.4869 51.1305 94.7666C51.6413 94.9848 51.9552 95.384 52.0677 95.9336C52.077 95.9793 52.0588 96.0035 52.0154 96.0198C51.8888 96.0683 51.7589 96.0599 51.6316 96.0352C51.5779 96.0229 51.5304 95.9918 51.4978 95.9474C51.4465 95.8712 51.4197 95.7787 51.372 95.6992C51.1897 95.3917 50.9108 95.2109 50.5654 95.1558C49.8633 95.044 49.2601 95.3253 48.952 95.9764C48.6822 96.5462 48.6822 97.1335 48.9424 97.7047C49.2875 98.4628 50.0957 98.7559 50.8666 98.4396C51.2757 98.2719 51.4965 97.9309 51.5675 97.4977C51.6006 97.2966 51.5272 97.2552 51.3664 97.2502C51.069 97.2409 50.7714 97.2401 50.474 97.2335C50.401 97.2317 50.3426 97.1689 50.3319 97.0888C50.3268 97.0521 50.3245 97.015 50.3252 96.978C50.3271 96.8703 50.3909 96.785 50.4789 96.784C50.739 96.7808 50.9993 96.7828 51.2594 96.7828C51.2605 96.7822 51.2605 96.7815 51.2605 96.7808ZM75.0431 99.0866C74.7636 99.0726 74.4884 99.0637 74.2219 98.9542C73.6056 98.7014 73.2444 98.2274 73.0512 97.6157C72.8595 97.0079 72.9014 96.4037 73.149 95.8161C73.5537 94.8546 74.4614 94.4975 75.3178 94.6121C75.4839 94.6338 75.6468 94.6749 75.8034 94.7344C76.3459 94.944 76.6743 95.3495 76.8237 95.9044C76.8326 95.9404 76.831 95.9782 76.819 96.0132C76.8083 96.0444 76.7836 96.0831 76.7555 96.0939C76.6305 96.1423 76.5007 96.1331 76.3736 96.1012C76.3389 96.0904 76.3091 96.0676 76.2897 96.0369C76.252 95.9729 76.2184 95.9065 76.1891 95.8383C75.929 95.2653 75.3317 95.0718 74.7914 95.1602C74.366 95.2301 74.0316 95.4488 73.8113 95.8277C73.6786 96.0556 73.593 96.298 73.5685 96.5625C73.5468 96.7848 73.5509 97.0089 73.5808 97.2302C73.6242 97.5455 73.7584 97.8413 73.967 98.0817C74.2672 98.4342 74.6646 98.5675 75.1122 98.5465C75.353 98.5351 75.5914 98.4779 75.7953 98.3308C75.949 98.2205 76.0748 98.0865 76.161 97.9169C76.2029 97.8339 76.2336 97.7441 76.2851 97.6679C76.301 97.6465 76.321 97.6286 76.3439 97.615C76.3668 97.6014 76.3921 97.5925 76.4184 97.5888C76.5281 97.5802 76.6394 97.5906 76.7497 97.5968C76.7927 97.5993 76.8371 97.6779 76.83 97.7264C76.7967 97.9479 76.7104 98.1582 76.5784 98.3392C76.27 98.7706 75.8594 99.0315 75.3205 99.0687C75.2273 99.0751 75.1345 99.0807 75.0431 99.0866ZM68.9347 96.8667C68.9347 96.2909 68.9338 95.7151 68.9357 95.1392C68.9347 95.028 68.943 94.9169 68.9604 94.8071C68.9686 94.7587 68.9979 94.7004 69.0653 94.6915C69.1202 94.6841 69.1748 94.6696 69.2295 94.6696C69.9729 94.6685 70.716 94.669 71.4592 94.6709C71.5143 94.6713 71.5688 94.681 71.6206 94.6999C71.6509 94.711 71.6874 94.7448 71.6931 94.7739C71.7063 94.846 71.7111 94.9197 71.7071 94.9929C71.7035 95.0726 71.6409 95.1392 71.573 95.1439C71.462 95.152 71.3507 95.1605 71.2397 95.1609C70.8124 95.163 70.3849 95.1609 69.9576 95.1627C69.865 95.1627 69.7706 95.1643 69.6807 95.1824C69.6315 95.1923 69.5742 95.2258 69.5699 95.2921C69.5603 95.4396 69.5482 95.5874 69.5477 95.735C69.547 95.9575 69.5539 96.1799 69.5608 96.4024C69.5631 96.4729 69.635 96.5457 69.7042 96.5472C70.0013 96.5533 70.2982 96.5556 70.5953 96.5612C70.8365 96.5651 71.0776 96.5709 71.3186 96.5786C71.3885 96.5808 71.4452 96.6475 71.451 96.7299C71.4546 96.7853 71.4542 96.8407 71.4501 96.8959C71.4447 96.9732 71.3837 97.0408 71.3145 97.0451C71.1851 97.0531 71.0555 97.0617 70.926 97.0627C70.573 97.0653 70.2198 97.0627 69.8668 97.0656C69.7935 97.0674 69.7208 97.0786 69.6504 97.0991C69.6208 97.1075 69.5825 97.1449 69.5783 97.1736C69.5194 97.5789 69.5393 97.987 69.57 98.3934C69.5735 98.438 69.6248 98.4891 69.6894 98.4921C69.819 98.498 69.9487 98.5078 70.0783 98.5083C70.5057 98.5105 70.933 98.5083 71.3604 98.5101C71.4531 98.5108 71.5457 98.5177 71.6372 98.5314C71.6706 98.5361 71.7063 98.5626 71.7293 98.5892C71.7852 98.6534 71.7946 98.8959 71.7433 98.9643C71.7193 98.9925 71.6868 99.0124 71.6507 99.021C71.5965 99.0335 71.5409 99.0396 71.4852 99.0389C70.7418 99.0399 69.9987 99.0399 69.2553 99.0389C69.2 99.037 69.1447 99.0324 69.0898 99.0249C69.0258 99.0183 68.9587 98.9463 68.953 98.8712C68.9444 98.7604 68.9357 98.6492 68.9356 98.5381C68.9338 97.9812 68.9347 97.4239 68.9347 96.8667ZM98.0653 96.2452C98.0653 96.6542 98.0635 97.0631 98.0661 97.472C98.0687 97.6955 98.0294 97.9174 97.9503 98.1264C97.7545 98.6404 97.3741 98.9338 96.8461 99.0443C96.6085 99.0941 96.3662 99.094 96.1238 99.0713C95.3272 98.9971 94.7919 98.4631 94.7179 97.6672C94.7128 97.6113 94.711 97.5554 94.711 97.4995C94.7104 96.6445 94.7104 95.7894 94.711 94.9347C94.711 94.8797 94.7197 94.8251 94.7368 94.7729C94.7434 94.756 94.7533 94.7405 94.766 94.7275C94.7786 94.7145 94.7938 94.7041 94.8105 94.6971C94.9371 94.6551 95.068 94.6604 95.1949 94.6949C95.2253 94.703 95.2649 94.7426 95.2685 94.7719C95.2843 94.8819 95.2925 94.993 95.2932 95.1042C95.2952 95.8291 95.2952 96.5538 95.2932 97.2787C95.2924 97.485 95.3085 97.6864 95.3771 97.8826C95.4374 98.0594 95.548 98.2148 95.6952 98.3298C95.7985 98.4112 95.9126 98.4697 96.0454 98.4909C96.2475 98.5228 96.4532 98.5269 96.6564 98.5029C97.0049 98.4618 97.235 98.2676 97.3726 97.9579C97.4564 97.7686 97.4826 97.5664 97.4814 97.3593C97.4776 96.6717 97.4796 95.9838 97.4804 95.2962C97.4804 95.1476 97.4834 94.9991 97.489 94.8506C97.4928 94.7482 97.5607 94.6808 97.6634 94.6759C97.7376 94.6722 97.8121 94.6719 97.886 94.6759C97.9858 94.6803 98.0585 94.7515 98.0589 94.8528C98.0608 95.3172 98.0597 95.7819 98.0597 96.2463L98.0653 96.2452ZM65.7791 97.0835C65.7791 96.5817 65.7801 96.0796 65.7781 95.5775C65.7781 95.4854 65.776 95.3909 65.7548 95.3021C65.7438 95.2564 65.6948 95.1971 65.6522 95.186C65.5639 95.1633 65.4684 95.165 65.3755 95.1635C65.1339 95.1597 64.8921 95.1625 64.6504 95.1569C64.4947 95.1532 64.4301 95.0729 64.433 94.9016C64.433 94.883 64.4342 94.8646 64.4358 94.8457C64.4434 94.7587 64.4939 94.6936 64.5616 94.6852C64.6165 94.6762 64.6719 94.6704 64.7275 94.6681C65.6389 94.667 66.5502 94.667 67.4616 94.6681C67.5172 94.6678 67.5727 94.6746 67.6266 94.6884C67.6599 94.6972 67.701 94.7193 67.7156 94.7474C67.77 94.8505 67.7657 94.9611 67.7212 95.0662C67.7125 95.0823 67.7006 95.0965 67.6862 95.1078C67.6717 95.1191 67.6551 95.1273 67.6373 95.1318C67.5464 95.1486 67.4545 95.1584 67.3621 95.1609C67.102 95.1679 66.8416 95.1681 66.5815 95.1749C66.4907 95.1772 66.4119 95.2622 66.4085 95.3585C66.4031 95.5071 66.4004 95.6558 66.4006 95.8046C66.3999 96.697 66.3996 97.5894 66.3996 98.482C66.3996 98.6118 66.3939 98.7418 66.3879 98.8717C66.3845 98.946 66.3197 99.0213 66.2533 99.0262C66.161 99.0336 66.0684 99.0363 65.9759 99.0341C65.87 99.0313 65.7951 98.9616 65.7905 98.8679C65.7843 98.7566 65.7809 98.6453 65.7803 98.5338C65.7786 98.0504 65.7783 97.5671 65.7791 97.0835ZM63.2279 96.9104C63.2279 97.4673 63.229 98.024 63.2269 98.5808C63.2269 98.6915 63.2226 98.8044 63.2014 98.9121C63.193 98.9541 63.1371 99.0093 63.0942 99.0187C63.0052 99.0381 62.9102 99.0354 62.818 99.0333C62.7201 99.0312 62.6493 98.956 62.6444 98.8556C62.6396 98.763 62.637 98.6703 62.6366 98.5776V95.1252C62.6366 95.0141 62.6379 94.9016 62.6552 94.7926C62.6591 94.7648 62.6722 94.7391 62.6925 94.7198C62.7128 94.7004 62.7391 94.6884 62.767 94.6859C62.8405 94.6808 62.9143 94.6706 62.988 94.6719C63.1619 94.6747 63.2219 94.7309 63.2226 94.9059C63.2252 95.5741 63.2238 96.2422 63.2238 96.9106L63.2279 96.9104ZM87.9374 89.6867C87.8942 89.5457 87.8536 89.4033 87.7993 89.2665C87.1098 87.5394 86.4192 85.8128 85.7275 84.0866C84.5869 81.2385 83.4461 78.3902 82.3049 75.5422C82.1044 75.0416 81.9027 74.5415 81.7039 74.0403C81.6424 73.8859 81.5456 73.8093 81.3677 73.8105C80.3996 73.8164 79.4315 73.8133 78.4635 73.8134C78.4263 73.8134 78.3891 73.8171 78.3516 73.8195C78.2724 73.8246 78.2073 73.859 78.171 73.929C78.1286 74.0117 78.0907 74.0966 78.0574 74.1834C77.611 75.3265 77.1651 76.4699 76.7198 77.6134L73.2763 86.4499C72.9049 87.4027 72.5303 88.3543 72.1602 89.3078C72.1139 89.4275 72.0838 89.5539 72.055 89.6793C72.0499 89.7017 72.0846 89.7533 72.108 89.7584C72.1979 89.7786 72.2896 89.7897 72.3817 89.7915C73.2753 89.7938 74.1691 89.7939 75.0627 89.7923C75.137 89.7931 75.2111 89.7888 75.2848 89.7796C75.3613 89.7689 75.4247 89.731 75.4555 89.6547C75.4834 89.5859 75.5114 89.5171 75.5372 89.4472L76.4896 86.8258C76.5539 86.6514 76.6223 86.4786 76.695 86.3075C76.7261 86.2339 76.7917 86.1979 76.8716 86.1948C76.9645 86.191 77.0575 86.1882 77.1511 86.1882H82.6804C82.7734 86.1882 82.8667 86.1892 82.9599 86.1952C82.9972 86.1968 83.0335 86.2084 83.0648 86.2288C83.0961 86.2492 83.1214 86.2777 83.138 86.3112C83.1884 86.4103 83.2338 86.5122 83.2734 86.6161C83.6261 87.5365 83.978 88.4571 84.329 89.378C84.3689 89.482 84.4082 89.5876 84.4627 89.6841C84.4863 89.726 84.5444 89.7627 84.5929 89.7726C84.683 89.7906 84.7773 89.7918 84.8699 89.7921C85.3173 89.7939 85.7635 89.7921 86.2104 89.7921C86.6758 89.7921 87.1413 89.7936 87.6066 89.7911C87.6985 89.7911 87.7903 89.7758 87.882 89.766C87.9264 89.7617 87.9509 89.7311 87.9374 89.6867ZM81.8808 83.475C81.7513 83.4805 81.6217 83.491 81.4922 83.4915C80.9345 83.4933 80.3766 83.4923 79.8187 83.4923V83.4795H77.8678C77.8235 83.4795 77.7675 83.4037 77.7787 83.3627C77.7982 83.291 77.815 83.2184 77.8398 83.1485C77.9581 82.8162 78.0776 82.4843 78.1982 82.1528C78.7079 80.7576 79.2184 79.3626 79.7299 77.9677C79.7548 77.8999 79.7952 77.8375 79.832 77.7748C79.8399 77.7617 79.8643 77.7536 79.8815 77.7525C79.8892 77.7527 79.8968 77.7547 79.9036 77.7584C79.9103 77.7621 79.9161 77.7673 79.9205 77.7737C79.9611 77.8567 80.0044 77.9391 80.0364 78.0254C80.6648 79.7136 81.2919 81.4023 81.9178 83.0915C81.9497 83.1773 81.9614 83.2707 81.9805 83.3611C81.9882 83.3964 81.9201 83.4734 81.8808 83.475ZM72.7079 77.2776C72.4636 76.2178 71.8957 75.3696 71.0266 74.7253C70.5024 74.3342 69.8879 74.0818 69.2402 73.9913C68.4278 73.8739 67.6091 73.8368 66.7927 73.8256C64.9133 73.8 63.0335 73.8143 61.1541 73.8128C61.0423 73.8128 60.9308 73.8151 60.8195 73.8198C60.7144 73.8243 60.637 73.8932 60.6336 73.9884C60.6275 74.1555 60.6244 74.3227 60.6242 74.49C60.6237 76.9269 60.6237 79.364 60.6242 81.8008V83.1403C60.6242 85.168 60.6245 87.1957 60.625 89.2234C60.6234 89.372 60.6303 89.5207 60.6457 89.6685C60.6505 89.6963 60.6645 89.7216 60.6854 89.7405C60.7064 89.7594 60.733 89.7707 60.7611 89.7727C60.835 89.7788 60.9088 89.7915 60.9826 89.7916C61.82 89.7929 62.6573 89.7929 63.4949 89.7916C63.5687 89.7916 63.6427 89.7811 63.7164 89.7742C63.7805 89.768 63.8475 89.6931 63.8498 89.6205C63.8549 89.4526 63.8605 89.2859 63.8605 89.1188C63.8614 87.5747 63.8614 86.0307 63.8605 84.4867C63.8605 84.319 63.862 84.1513 63.8671 83.9845C63.8709 83.8625 63.951 83.7889 64.0853 83.7828C64.1971 83.7774 64.3091 83.7761 64.4201 83.7759C64.9971 83.7759 65.5741 83.7843 66.1508 83.7738C67.0431 83.7572 67.9346 83.7526 68.8241 83.635C69.6591 83.5248 70.4071 83.2284 71.0723 82.7266C71.92 82.087 72.4642 81.24 72.7089 80.2067C72.9401 79.2318 72.9327 78.2547 72.7079 77.2776ZM69.5187 79.0947C69.3808 80.1358 68.6304 80.7795 67.6903 80.9345C67.287 81.0008 66.8795 81.0499 66.4682 81.0491C65.705 81.0475 64.9416 81.0565 64.1782 81.06C64.1223 81.06 64.0672 81.0517 64.0116 81.047C63.9441 81.0411 63.875 80.971 63.8729 80.9C63.8676 80.7142 63.8622 80.5282 63.8615 80.3425C63.86 79.8213 63.8615 79.2999 63.8615 78.7789C63.8615 78.164 63.8605 77.5506 63.8627 76.9361C63.8632 76.8437 63.8717 76.7514 63.8883 76.6604C63.8938 76.6303 63.9302 76.5945 63.961 76.5827C64.0129 76.5623 64.0682 76.5517 64.1239 76.5519C65.1849 76.5632 66.246 76.5741 67.307 76.5919C67.6069 76.5968 67.8953 76.6739 68.1761 76.7786C69.1095 77.1257 69.6608 78.0221 69.5187 79.0942V79.0947ZM93.374 96.2176C93.1287 95.3245 92.5741 94.7579 91.6466 94.6175C90.9421 94.5108 90.3163 94.7071 89.8224 95.237C89.3968 95.6941 89.2154 96.2495 89.2194 96.9522C89.2166 97.3474 89.3451 97.7908 89.6079 98.1869C89.9563 98.7119 90.4403 99.0282 91.0812 99.0711C91.2481 99.0828 91.4156 99.0828 91.5827 99.0711C92.219 99.0236 92.717 98.7265 93.0572 98.1915C93.444 97.5838 93.5683 96.9254 93.374 96.2176ZM92.8408 96.9023C92.8465 97.259 92.7377 97.624 92.5073 97.9561C92.0263 98.6499 91.013 98.7139 90.4313 98.243C90.3003 98.1385 90.1897 98.0109 90.1049 97.8665C89.706 97.1787 89.705 96.4885 90.1182 95.81C90.6473 94.9412 91.9465 94.9169 92.5194 95.7551C92.7556 96.1007 92.8475 96.4713 92.8408 96.9023ZM56.374 98.8153C56.1157 98.3642 55.8518 97.9161 55.5927 97.4655C55.4517 97.2202 55.4161 97.1848 55.6863 97.0354C55.767 96.9908 55.8494 96.9423 55.9158 96.8797C56.2997 96.5176 56.4454 96.0829 56.2923 95.5667C56.1457 95.0719 55.8065 94.7609 55.3068 94.6992C54.7182 94.6267 54.121 94.6525 53.5278 94.6892C53.4621 94.6931 53.4256 94.7502 53.4177 94.799C53.4021 94.9092 53.3953 95.0205 53.3971 95.1316C53.3953 95.689 53.3963 96.2462 53.3963 96.8034C53.3963 97.3977 53.3948 97.9914 53.3976 98.5864C53.3998 98.6973 53.4099 98.8077 53.428 98.9171C53.4322 98.9346 53.4401 98.9509 53.4511 98.9651C53.4622 98.9793 53.4761 98.991 53.492 98.9994C53.6344 99.0618 53.781 99.054 53.9226 98.9965C53.9505 98.9853 53.9775 98.9406 53.9819 98.9084C53.9935 98.8163 53.9992 98.7237 53.999 98.631C54.001 98.2594 53.9991 97.8878 54.0022 97.5166C54.0035 97.4428 54.0145 97.3694 54.0349 97.2984C54.0433 97.2685 54.0811 97.2295 54.1099 97.2253C54.2374 97.2062 54.3664 97.1973 54.4951 97.1871C54.6804 97.1731 54.8111 97.2476 54.9043 97.4142C55.159 97.8675 55.4216 98.3158 55.683 98.7655C55.7195 98.8299 55.7603 98.8919 55.8047 98.9509C55.8265 98.9807 55.8571 99.0026 55.8923 99.0134C56.0564 99.0509 56.2219 99.0553 56.386 99.01C56.3932 99.0065 56.3994 99.0012 56.404 98.9947C56.4086 98.9882 56.4115 98.9806 56.4123 98.9726C56.4031 98.9194 56.4 98.8603 56.374 98.8153ZM54.1084 96.6718C54.0793 96.669 54.0364 96.6291 54.0306 96.6003C54.013 96.5102 54.0031 96.4187 54.001 96.3269C53.9966 96.1796 53.9999 96.0318 53.9999 95.8843H54.0097C54.0097 95.7002 54.0083 95.5158 54.0106 95.3317C54.0112 95.2699 54.0916 95.1818 54.147 95.178C54.4599 95.1538 54.7739 95.138 55.0845 95.192C55.5278 95.2684 55.7437 95.5568 55.7262 96.012C55.7221 96.1707 55.663 96.3229 55.559 96.4427C55.455 96.5626 55.3126 96.6426 55.1562 96.669C54.8099 96.7215 54.4576 96.7062 54.1084 96.6718ZM88.0079 98.7637C87.7564 98.3304 87.5022 97.8987 87.2502 97.4656C87.0977 97.2036 87.1019 97.2073 87.3835 97.0133C87.5045 96.9295 87.627 96.8379 87.7189 96.7256C88.0124 96.37 88.0865 95.9644 87.9391 95.5249C87.7832 95.0603 87.4548 94.761 86.9777 94.7002C86.3888 94.626 85.7918 94.6545 85.1984 94.6897C85.1604 94.692 85.1031 94.7564 85.0952 94.7993C85.0751 94.9078 85.0731 95.0203 85.0728 95.1313C85.071 95.6883 85.072 96.245 85.072 96.8021C85.072 97.3961 85.0708 97.9901 85.073 98.5843C85.072 98.6953 85.0797 98.8063 85.0957 98.9162C85.0996 98.9439 85.1128 98.9694 85.1331 98.9886C85.1534 99.0078 85.1796 99.0195 85.2075 99.0218C85.2995 99.0282 85.3921 99.0315 85.4843 99.0289C85.5636 99.0266 85.6335 98.9638 85.6381 98.896C85.6451 98.785 85.652 98.6741 85.652 98.5629C85.6543 98.1915 85.652 97.8203 85.656 97.449C85.6581 97.2876 85.6839 97.1907 85.9312 97.1878C86.043 97.1866 86.1538 97.1902 86.2653 97.1934C86.388 97.1968 86.4738 97.2614 86.5331 97.364C86.7567 97.7496 86.9776 98.1361 87.2012 98.5212C87.285 98.6657 87.3689 98.8105 87.4629 98.9481C87.4899 98.9876 87.5507 99.0144 87.6009 99.0251C87.6724 99.0402 87.7483 99.0378 87.8223 99.0379C88.1 99.0394 88.1368 98.9865 88.0079 98.7637ZM85.7548 96.6694C85.7255 96.6656 85.6931 96.6258 85.677 96.5952C85.6607 96.5646 85.657 96.5234 85.6566 96.4867C85.6548 96.3011 85.6558 96.1156 85.6558 95.93H85.6654C85.6654 95.7263 85.6637 95.5226 85.6663 95.3189C85.6673 95.249 85.7408 95.1765 85.8107 95.1755C86.0887 95.1709 86.3669 95.1648 86.6448 95.1707C86.7357 95.1726 86.8278 95.2026 86.9157 95.2306C87.2135 95.3261 87.4246 95.6406 87.4131 95.9639C87.4014 96.296 87.1293 96.6358 86.8092 96.674C86.4588 96.7149 86.1048 96.7133 85.7548 96.6694ZM61.3802 98.8873C61.3545 98.7981 61.3265 98.7096 61.2963 98.6218C60.981 97.7279 60.665 96.8341 60.3485 95.9409C60.2181 95.5729 60.0842 95.2061 59.9547 94.838C59.92 94.7393 59.8541 94.6805 59.7529 94.676C59.6044 94.6706 59.4556 94.6706 59.307 94.676C59.2033 94.6788 59.1382 94.7434 59.0989 94.834C59.0765 94.885 59.0599 94.9384 59.0413 94.9909C58.6066 96.2169 58.1722 97.4433 57.7384 98.6698C57.7079 98.7563 57.6964 98.8495 57.678 98.9403C57.6755 98.9493 57.6751 98.9589 57.6769 98.9681C57.6787 98.9773 57.6827 98.986 57.6884 98.9935C57.6941 99.001 57.7015 99.0071 57.7099 99.0113C57.7183 99.0155 57.7276 99.0178 57.737 99.0179C57.8474 99.0276 57.9583 99.035 58.069 99.0356C58.1693 99.0356 58.2472 98.9929 58.2834 98.8924C58.3654 98.6652 58.4462 98.4375 58.5294 98.2106C58.5798 98.0735 58.6788 98.0074 58.8271 98.0085C59.1066 98.0107 59.3853 98.0077 59.6645 98.0075C59.8504 98.0075 60.0367 98.0093 60.2227 98.009C60.3646 98.009 60.4806 98.0455 60.5175 98.2038C60.5222 98.2218 60.528 98.2394 60.5349 98.2566C60.6119 98.4662 60.6878 98.6759 60.7664 98.8845C60.8026 98.9805 60.877 99.0292 60.9788 99.0348C61.016 99.0369 61.0531 99.0348 61.1917 99.0348L61.2575 99.031C61.3437 99.0264 61.4012 98.9593 61.3802 98.8873ZM60.0012 97.4676C59.9453 97.4686 59.8894 97.4676 59.8343 97.4676H59.3337C58.7592 97.4729 58.7852 97.4686 58.9547 96.9694C59.1096 96.5137 59.274 96.061 59.4374 95.6082C59.4486 95.5778 59.4869 95.5563 59.5149 95.5331C59.5505 95.5035 59.5787 95.5149 59.5959 95.5639C59.7936 96.1229 59.9932 96.6802 60.1878 97.2397C60.2465 97.4096 60.1974 97.464 60.0012 97.4676ZM61.1929 99.035H61.1917C61.1727 99.0358 61.1672 99.0358 61.1929 99.035ZM102.147 95.092C101.91 94.8378 101.613 94.6856 101.26 94.6793C100.739 94.6701 100.217 94.6736 99.6961 94.6729C99.6589 94.6716 99.6219 94.6786 99.5877 94.6935C99.5563 94.7091 99.5156 94.7377 99.5097 94.7669C99.4906 94.8577 99.4805 94.9501 99.4794 95.0428C99.4771 95.6383 99.4782 96.2338 99.4782 96.8295C99.4782 97.4064 99.4773 97.9834 99.4791 98.5603C99.4791 98.6714 99.4888 98.7827 99.497 98.8939C99.5018 98.9608 99.5733 99.0261 99.6486 99.0282C99.741 99.0308 99.8335 99.0264 99.9259 99.0239C99.9917 99.0225 100.032 98.9723 100.046 98.924C100.067 98.8541 100.067 98.7772 100.068 98.7032C100.07 98.4237 100.068 98.1448 100.071 97.8655C100.073 97.7922 100.083 97.7192 100.103 97.6485C100.111 97.6187 100.149 97.5786 100.177 97.5758C100.324 97.5575 100.472 97.5467 100.62 97.5432C100.88 97.5396 101.14 97.5424 101.398 97.4893C101.938 97.3783 102.309 97.0676 102.471 96.5436C102.635 96.0076 102.539 95.5099 102.147 95.092ZM101.951 96.2417C101.864 96.6829 101.559 96.9737 101.112 97.0048C100.816 97.0253 100.518 97.0068 100.221 97.0033C100.154 97.0033 100.082 96.9287 100.082 96.8576C100.079 96.5979 100.081 96.3381 100.081 96.0783H100.068V95.9106C100.078 95.0461 99.9623 95.1698 100.859 95.1632C101.006 95.1622 101.155 95.1855 101.299 95.215C101.795 95.3162 102.024 95.8682 101.951 96.2417Z" fill="#778187"/>
</g>
<defs>
<clipPath id="clip0_44_770">
<rect width="146.33" height="150" fill="white"/>
</clipPath>
</defs>
</svg>
