<svg width="77" height="79" viewBox="0 0 77 79" fill="none" xmlns="http://www.w3.org/2000/svg">
<g id="ibs" clip-path="url(#clip0_44_482)">
<path id="Vector" fill-rule="evenodd" clip-rule="evenodd" d="M0 24.2603V31.4755H2.55481V47.1138H0V54.3285H16.6122V47.1134H14.0565V31.4751H16.6122V24.2603H0ZM39.5215 24.2603H17.8903V31.4755H20.4451V47.1138H17.8903V54.3285H40.5694C45.4989 54.3285 48.5574 50.5494 48.5574 45.5645C48.5574 42.0856 46.7314 39.2493 43.5831 38.0914C47.1877 36.1158 47.2793 33.1947 47.2793 31.6489C47.2802 26.2771 43.3548 24.2165 39.5215 24.2603ZM30.6675 31.4751H34.4087C35.6417 31.4751 36.6449 32.4193 36.6449 33.5808C36.6449 34.7412 35.6413 35.6846 34.4087 35.6846H30.6675V31.4751ZM30.6675 42.9029H34.8208C36.0532 42.9029 37.0565 43.8467 37.0565 45.0073C37.0565 46.1651 36.0532 47.1129 34.8208 47.1129H30.6675V42.9029ZM75.3924 24.2603H59.4201C51.9349 24.2603 48.5578 28.7273 48.5578 33.4074C48.5578 38.907 52.346 42.9034 57.9579 42.9034H64.2115C65.4422 42.9034 66.4468 43.8472 66.4468 45.0077C66.4468 46.1655 65.4422 47.1134 64.2115 47.1134H60.0578V44.7066H49.8355V54.3277H66.584C72.6547 54.3277 76.67 51.15 76.67 45.3929C76.67 35.471 67.7718 35.6842 65.2608 35.6842H62.0656C60.834 35.6842 59.8312 34.7412 59.8312 33.5803C59.8312 32.4188 60.834 31.4746 62.0656 31.4746H65.1683V33.8801H75.3924V24.2603Z" fill="#778187"/>
</g>
<defs>
<clipPath id="clip0_44_482">
<rect width="76.67" height="78.5929" fill="white" transform="translate(0 -0.000244141)"/>
</clipPath>
</defs>
</svg>
