<svg width="147" height="150" viewBox="0 0 147 150" fill="none" xmlns="http://www.w3.org/2000/svg">
<g id="gazprom" clip-path="url(#clip0_45_2379)">
<path id="Vector" d="M45.166 86.0808H54.4401V89.111H50.0283V110.402H45.166V86.0808Z" fill="#778187"/>
<path id="Vector_2" d="M59.9388 101.272L60.7721 89.111H61.0512L61.8845 101.272H59.9388ZM54.5542 110.402H59.3148L59.7654 103.943H62.0579L62.5105 110.402H67.2692L64.7333 86.0808H57.09L54.5542 110.402Z" fill="#778187"/>
<path id="Vector_3" d="M74.2339 101.89V106.475C74.2339 107.093 74.7123 107.272 74.9915 107.272C75.45 107.272 75.769 106.894 75.769 106.475V100.813C75.769 100.056 75.6294 99.2184 73.8152 99.2184H71.8416V96.547H73.895C75.2706 96.547 75.769 96.228 75.769 94.7329V89.9085C75.769 89.4898 75.45 89.111 74.9915 89.111C74.7123 89.111 74.2339 89.2705 74.2339 89.9085V93.8756H69.3696V90.4267C69.3696 88.7323 69.569 86.0808 72.978 86.0808H77.005C80.4136 86.0808 80.6331 88.7323 80.6331 90.4267V94.3142C80.6331 96.9656 78.7796 97.6834 77.324 97.6236V97.8627C80.5938 97.783 80.6331 100.295 80.6331 101.152V106.056C80.6331 107.771 80.4136 110.402 77.005 110.402H72.978C69.569 110.402 69.3696 107.771 69.3696 106.056V101.89H74.2339Z" fill="#778187"/>
<path id="Vector_4" d="M83.8193 86.0808H95.0827V110.402H90.2184V89.111H88.6836V110.402H83.8193V86.0808Z" fill="#778187"/>
<path id="Vector_5" d="M103.14 99.4576V89.111H103.778C104.296 89.111 104.674 89.5496 104.674 90.3271V98.2415C104.674 99.019 104.296 99.4576 103.778 99.4576H103.14ZM98.2754 110.402H103.14V102.129H105.931C109.32 102.129 109.539 99.4975 109.539 97.783V90.4267C109.539 88.7323 109.32 86.0808 105.931 86.0808H98.2754V110.402Z" fill="#778187"/>
<path id="Vector_6" d="M119.131 106.475C119.131 106.894 118.812 107.272 118.353 107.272C118.074 107.272 117.596 107.093 117.596 106.475V89.9085C117.596 89.2705 118.074 89.111 118.353 89.111C118.812 89.111 119.131 89.4898 119.131 89.9085V106.475ZM112.731 106.056C112.731 107.771 112.951 110.402 116.34 110.402H120.387C123.776 110.402 123.995 107.771 123.995 106.056V90.4267C123.995 88.7323 123.776 86.0808 120.387 86.0808H116.34C112.951 86.0808 112.731 88.7323 112.731 90.4267V106.056Z" fill="#778187"/>
<path id="Vector_7" d="M139.82 86.0808H146.16V110.402H141.296V95.1515H141.116L138.604 110.402H134.717L132.225 95.1515H132.045V110.402H127.181V86.0808H133.501L136.67 103.186L139.82 86.0808Z" fill="#778187"/>
<path id="Vector_8" d="M38.8619 52.8272C37.3726 46.3083 33.6407 41.0054 33.1264 40.1481C32.313 41.3642 29.3366 46.0491 27.8235 51.2324C26.1708 57.0337 25.9276 62.1771 26.4978 67.2208C27.0639 72.2844 29.2031 77.4877 29.2031 77.4877C30.3394 80.1989 32.0419 83.1295 33.1503 84.5648C34.7751 82.4516 38.5091 76.152 39.6732 67.9385C40.3212 63.3532 40.3491 59.3462 38.8619 52.8272ZM33.1264 82.9301C32.3947 81.5546 31.2584 78.943 31.1508 74.8761C31.1229 70.9687 32.6918 67.5996 33.1503 66.9018C33.559 67.5996 34.9106 70.5302 35.0721 74.5372C35.1817 78.4446 33.8819 81.5346 33.1264 82.9301ZM38.4293 63.8915C38.3734 66.3835 38.0764 69.015 37.6976 70.5899C37.8332 67.8787 37.5083 64.0709 36.8862 61.0806C36.2643 58.1102 34.5039 53.1262 33.0985 50.8337C31.8007 53.0266 30.2018 57.3327 29.3645 61.0607C28.5233 64.7887 28.4993 69.3141 28.4993 70.6696C28.276 69.5333 27.7178 65.4465 27.8753 61.3597C28.0069 57.9905 28.7963 54.5018 29.2289 52.907C30.8796 47.5842 32.7476 44.1751 33.0985 43.6369C33.4493 44.1751 35.8017 48.3816 37.0219 52.7873C38.2359 57.1931 38.4811 61.4195 38.4293 63.8915Z" fill="#778187"/>
<path id="Vector_9" d="M35.6518 86.0797H24.3304V93.6751C24.3404 93.6751 24.3483 93.6552 24.3583 93.6552C27.0256 90.9839 31.3517 90.9839 34.0211 93.6552C36.6885 96.3067 36.6885 100.633 34.0211 103.304C34.0091 103.324 33.9971 103.324 33.9852 103.344C33.9713 103.344 33.9572 103.364 33.9453 103.384C31.2839 106.015 27.8071 107.331 24.3304 107.331C20.8376 107.331 17.3449 106.015 14.6815 103.344C9.98463 98.6591 9.42843 91.3825 13.0089 86.0797C13.4913 85.362 14.0475 84.6842 14.6815 84.0462C17.3449 81.3749 20.8376 80.0591 24.3304 80.0591V61.7981C10.9096 61.7981 0.0307617 72.6629 0.0307617 86.0797C0.0307617 99.4964 10.9096 110.381 24.3304 110.381C31.3278 110.381 37.6314 107.411 42.0652 102.686V86.0797H35.6518Z" fill="#778187"/>
</g>
<defs>
<clipPath id="clip0_45_2379">
<rect width="146.33" height="150" fill="white"/>
</clipPath>
</defs>
</svg>
