<svg width="147" height="150" viewBox="0 0 147 150" fill="none" xmlns="http://www.w3.org/2000/svg">
<g id="integration" clip-path="url(#clip0_45_2316)">
<path id="Vector" d="M53.9135 68.4568V82.042H51.0189V73.1074L45.2489 82.042H42.3545V68.4568H45.2489V77.4107L51.0189 68.4568H53.9135Z" fill="#778187"/>
<path id="Vector_2" d="M65.0325 72.0652V82.042H62.215V78.1442H58.6838V82.042H55.8662V72.0652H58.6838V75.7128H62.215V72.0652H65.0325Z" fill="#778187"/>
<path id="Vector_3" d="M74.8567 74.497H71.8656V82.042H69.0484V74.497H66.0576V72.0652H74.8567V74.497Z" fill="#778187"/>
<path id="Vector_4" d="M78.1974 75.8863H82.1728C82.0954 74.7481 81.3618 74.0336 80.2421 74.0336C79.1237 74.0336 78.3515 74.7287 78.1974 75.8863ZM78.1779 77.8545V77.8931C78.1779 79.109 79.0847 80.0544 80.4361 80.0544C81.4003 80.0544 81.9598 79.572 82.0954 79.1864H84.8159C84.5457 80.5755 83.2141 82.2735 80.3775 82.2735C77.3483 82.2735 75.3408 80.3439 75.3408 77.1021C75.3408 73.8406 77.3284 71.8337 80.2234 71.8337C83.079 71.8337 84.9124 73.8019 84.9124 76.8898V77.8545H78.1779Z" fill="#778187"/>
<path id="Vector_5" d="M93.1932 74.497H88.9294V82.042H86.1118V72.0652H93.1932V74.497Z" fill="#778187"/>
<path id="Vector_6" d="M101.396 77.0634C101.396 75.3651 100.547 74.2649 99.2351 74.2649C97.9226 74.2649 97.055 75.3458 97.055 77.0246V77.102C97.055 78.7806 97.9226 79.8421 99.2351 79.8421C100.547 79.8421 101.396 78.7613 101.396 77.0634ZM104.233 77.0634C104.233 80.3438 102.284 82.2734 99.8336 82.2734C98.5596 82.2734 97.6144 81.7716 97.1125 81.0772V85.7276H94.2949V72.0653H96.9964V73.2235C97.4979 72.4707 98.4436 71.8336 99.9101 71.8336C102.284 71.8336 104.233 73.7252 104.233 77.0634Z" fill="#778187"/>
<path id="Vector_7" d="M111.144 78.2789V77.8352H109.176C108.307 77.8352 107.69 78.2596 107.69 78.9736C107.69 79.6687 108.249 80.0931 109.118 80.0931C110.198 80.0931 111.144 79.4371 111.144 78.2789ZM113.903 75.5194V82.042H111.298V80.9612C110.681 81.7717 109.639 82.2735 108.346 82.2735C106.416 82.2735 104.872 81.116 104.872 79.109C104.872 77.0634 106.416 75.8863 108.964 75.8863H111.144V75.4232C111.144 74.4971 110.449 74.0147 109.504 74.0147C108.539 74.0147 108.037 74.4584 107.883 74.9795H105.258C105.529 73.2622 107.015 71.8337 109.619 71.8337C112.186 71.8337 113.903 73.0881 113.903 75.5194Z" fill="#778187"/>
<path id="Vector_8" d="M126.045 79.6107V84.512H123.343V82.042H115.547V72.0653H118.364V79.6107H121.818V72.0653H124.635V79.6107H126.045Z" fill="#778187"/>
<path id="Vector_9" d="M136.35 72.0652V82.042H133.592V76.2145L129.733 82.042H127.07V72.0652H129.829V77.8545L133.687 72.0652H136.35Z" fill="#778187"/>
<path id="Vector_10" d="M143.436 76.8509V74.2649H141.988C141.101 74.2649 140.561 74.8053 140.561 75.5387C140.561 76.2912 141.082 76.8509 141.988 76.8509H143.436ZM146.215 72.0652V82.042H143.436V78.9929H142.259L140.29 82.042H137.185L139.518 78.4718C138.399 77.8545 137.782 76.7736 137.782 75.5193C137.782 73.5898 139.055 72.0652 141.603 72.0652H146.215Z" fill="#778187"/>
<path id="Vector_11" d="M28.0298 86.6984V63.3948H32.7497V86.6984H28.0298Z" fill="#778187"/>
<path id="Vector_12" d="M9.28522 86.7274V77.4423H0V72.6759H9.28522V63.3907H14.0517V72.6759H23.3368V77.4423H14.0517V86.7274" fill="#778187"/>
</g>
<defs>
<clipPath id="clip0_45_2316">
<rect width="146.33" height="150" fill="white"/>
</clipPath>
</defs>
</svg>
