<svg width="147" height="150" viewBox="0 0 147 150" fill="none" xmlns="http://www.w3.org/2000/svg">
<g id="softline" clip-path="url(#clip0_45_2358)">
<g id="Group" style="mix-blend-mode:luminosity">
<path id="Vector" d="M0.15038 83.413L7.73859 82.693C7.95545 83.4588 8.41532 84.1334 9.04887 84.6152C9.7232 85.0343 10.5094 85.2378 11.3023 85.1984C12.1482 85.2494 12.9871 85.0163 13.6853 84.536C13.8861 84.401 14.0508 84.2188 14.165 84.0055C14.2792 83.7921 14.3394 83.5541 14.3405 83.3122C14.3272 83.0427 14.2385 82.7824 14.0845 82.5609C13.9304 82.3395 13.7173 82.1657 13.4694 82.0595C12.4031 81.6834 11.3004 81.4204 10.1792 81.2747C8.30619 80.9977 6.45931 80.5667 4.65723 79.986C3.61461 79.5824 2.70995 78.8878 2.05103 77.9845C1.34731 77.0636 0.97448 75.9325 0.992718 74.7736C0.961474 73.5425 1.36413 72.3396 2.13023 71.3755C2.95198 70.3675 4.04677 69.6177 5.28358 69.2156C7.02513 68.6847 8.84164 68.4415 10.6616 68.4957C12.4284 68.4488 14.193 68.6524 15.9027 69.1005C16.9863 69.4099 17.9759 69.9838 18.7825 70.7707C19.6173 71.6565 20.2596 72.7057 20.6688 73.8521L13.3542 74.6152C13.2195 74.0427 12.8915 73.5341 12.4254 73.1753C11.7842 72.7569 11.0309 72.5435 10.2656 72.5634C9.61039 72.5092 8.95543 72.671 8.40094 73.0242C8.2242 73.1531 8.07923 73.3206 7.97694 73.5139C7.87465 73.7073 7.81776 73.9214 7.81058 74.14C7.8082 74.3752 7.87523 74.6058 8.0033 74.803C8.13136 75.0003 8.31477 75.1553 8.53051 75.2488C9.58113 75.6241 10.6787 75.8518 11.7919 75.9256C13.7246 76.0793 15.6292 76.4835 17.4578 77.1278C18.5992 77.5677 19.5857 78.3338 20.2944 79.3308C20.9434 80.2456 21.2884 81.3411 21.2807 82.4626C21.2664 83.6621 20.9065 84.8319 20.244 85.832C19.4349 87.0077 18.2912 87.9132 16.961 88.431C15.0119 89.1518 12.9399 89.4821 10.8632 89.4028C7.22502 89.4028 4.63563 88.8845 3.09495 87.8478C1.56058 86.8166 0.49275 85.2239 0.121582 83.413" fill="#778187"/>
<path id="Vector_2" d="M25.7444 86.9623C27.7266 88.5894 30.3184 89.4029 33.5198 89.4029C37.1099 89.4029 39.9249 88.4238 41.9648 86.4655C42.9701 85.4892 43.7608 84.314 44.2865 83.0149C44.8121 81.7157 45.0609 80.3213 45.0173 78.9205C45.0833 76.3905 44.1997 73.9275 42.5407 72.0162C40.4961 69.7077 37.4795 68.5509 33.491 68.5461C29.9921 68.5461 27.2179 69.5325 25.1684 71.5051C24.1569 72.4733 23.3603 73.6435 22.8307 74.9397C22.3011 76.2359 22.0502 77.629 22.0943 79.0285C22.05 80.5393 22.355 82.0399 22.9856 83.4135C23.6162 84.7871 24.5554 85.9967 25.73 86.9479M30.8416 74.9896C31.1724 74.574 31.5945 74.2402 32.0753 74.0142C32.556 73.7883 33.0823 73.6761 33.6134 73.6865C34.1248 73.6826 34.6302 73.796 35.0908 74.0182C35.5513 74.2404 35.9548 74.5654 36.27 74.968C37.062 76.1081 37.4382 77.4857 37.3355 78.8701C37.3355 80.7468 36.9827 82.1098 36.2772 82.9594C35.9469 83.3618 35.5316 83.6859 35.061 83.9085C34.5904 84.131 34.0764 84.2465 33.5558 84.2465C33.0352 84.2465 32.5212 84.131 32.0506 83.9085C31.58 83.6859 31.1647 83.3618 30.8344 82.9594C30.1145 82.1003 29.7545 80.7708 29.7545 78.9709C29.7545 77.1998 30.1145 75.8751 30.8416 75.0112" fill="#778187"/>
<path id="Vector_3" d="M55.3208 68.9997H58.9637V74.6152H55.3208V88.9493H47.6606V74.6152H44.7808V68.9997H47.6606V68.0997C47.6686 67.2012 47.7553 66.305 47.9197 65.4216C48.048 64.5549 48.3893 63.7335 48.9133 63.0313C49.4532 62.3675 50.1513 61.8501 50.9435 61.5267C52.1729 61.0875 53.4768 60.8943 54.7808 60.9579C56.7416 61.0019 58.6982 61.1581 60.6412 61.4259L59.7772 66.0335C59.0421 65.905 58.2986 65.8304 57.5526 65.8103C57.0309 65.765 56.5083 65.8887 56.0623 66.1631C55.7279 66.4422 55.5013 66.8292 55.4215 67.2574C55.3382 67.8342 55.3069 68.4173 55.328 68.9997" fill="#778187"/>
<path id="Vector_4" d="M69.0495 74.6152V81.6923C69.0031 82.2645 69.0842 82.8398 69.2871 83.3769C69.4246 83.5947 69.62 83.77 69.8514 83.8831C70.0828 83.9962 70.341 84.0428 70.5974 84.0176C71.4045 83.9733 72.2005 83.8084 72.9588 83.5281L73.5275 88.7837C71.7913 89.1808 70.017 89.3885 68.2359 89.4028C66.7976 89.4924 65.3582 89.2459 64.0315 88.6829C63.1293 88.1923 62.4229 87.4071 62.0301 86.4583C61.5167 84.9046 61.2993 83.2684 61.3893 81.6347V74.6152H58.5815V68.9997H61.3893V65.3351L69.0495 61.4115V74.6152Z" fill="#778187"/>
<path id="Vector_5" d="M82.9012 61.4115H75.2407V88.9493H82.9012V61.4115Z" fill="#778187"/>
<path id="Vector_6" d="M93.788 68.9997H86.1274V88.9493H93.788V68.9997Z" fill="#778187"/>
<path id="Vector_7" d="M93.788 61.4115H86.1274V66.6454H93.788V61.4115Z" fill="#778187"/>
<path id="Vector_8" d="M96.7114 68.9997H103.853V72.2466C104.715 71.0736 105.81 70.0929 107.071 69.3669C108.31 68.766 109.677 68.4745 111.052 68.5173C111.966 68.4638 112.879 68.6042 113.735 68.9293C114.59 69.2544 115.366 69.7569 116.013 70.4036C117.208 71.6635 117.798 73.6074 117.798 76.2351V88.9493H110.145V77.9774C110.228 77.0323 109.973 76.0886 109.426 75.3136C109.176 75.0484 108.871 74.8412 108.533 74.7069C108.195 74.5725 107.831 74.5142 107.467 74.536C107.04 74.5284 106.617 74.6184 106.23 74.7994C105.843 74.9803 105.503 75.2473 105.235 75.5799C104.66 76.2999 104.379 77.5382 104.379 79.3597V88.9493H96.7114V68.9997Z" fill="#778187"/>
<path id="Vector_9" d="M142.614 80.0364C142.704 77.8228 142.26 75.6203 141.319 73.6145C140.482 71.9867 139.158 70.6604 137.532 69.8204C135.881 68.9565 133.632 68.5245 130.786 68.5245C127.273 68.5245 124.521 69.4844 122.528 71.4043C121.53 72.3889 120.748 73.5711 120.232 74.8753C119.716 76.1794 119.478 77.5768 119.533 78.9781C119.479 80.999 119.993 82.9944 121.017 84.7377C121.901 86.2579 123.206 87.4903 124.775 88.287C126.737 89.1174 128.86 89.4986 130.988 89.4028C134.026 89.4028 136.351 88.9709 137.979 88.0998C139.745 87.0835 141.186 85.5852 142.132 83.7801L134.624 83.1034C134.266 83.5987 133.818 84.0234 133.306 84.3561C132.663 84.7273 131.933 84.921 131.189 84.9176C130.643 84.9356 130.1 84.8289 129.601 84.6056C129.102 84.3823 128.66 84.0483 128.309 83.6289C127.715 82.8391 127.373 81.8879 127.33 80.9004H142.614V80.0364ZM127.381 77.2647C127.415 76.3044 127.704 75.3705 128.216 74.5577C128.525 74.1484 128.917 73.8081 129.366 73.5589C129.814 73.3095 130.31 73.1567 130.821 73.1099C131.332 73.0632 131.847 73.1236 132.333 73.2873C132.819 73.451 133.266 73.7145 133.644 74.0609C134.388 74.9656 134.807 76.0938 134.832 77.2647H127.381Z" fill="#778187"/>
<path id="Vector_10" d="M35.2838 64.0609C42.1813 64.6961 49.0003 66.003 55.6438 67.963C62.4257 69.7916 73.2177 68.9997 73.2177 68.9997V74.6152C66.1137 75.3165 58.9418 74.4943 52.1809 72.2034C38.502 67.2286 32.3464 66.2207 25.039 65.7239C15.1398 65.004 3.34713 66.5231 3.34713 66.5231L3.23193 65.5007C3.23193 65.5007 20.3018 62.477 35.2838 64.0609Z" fill="#778187"/>
<path id="Vector_11" d="M142.456 65.112H142.831C143.371 65.112 143.421 64.8384 143.421 64.6944C143.421 64.32 142.903 64.3272 142.831 64.3272H142.456V65.112ZM143.126 63.6721C143.897 63.6721 144.3 64.0825 144.3 64.6224C144.302 64.8164 144.236 65.0051 144.112 65.1543C143.987 65.3034 143.814 65.4033 143.623 65.436C143.786 65.5084 143.918 65.6393 143.99 65.8031L144.552 67.1638H143.623L143.169 66.0551C143.133 65.9676 143.071 65.8935 142.991 65.8432C142.911 65.7928 142.818 65.7688 142.723 65.7743H142.456V67.1638H141.6V63.6649L143.126 63.6721ZM142.896 68.0493C143.418 68.0493 143.929 67.8944 144.363 67.6041C144.798 67.3137 145.137 66.9011 145.337 66.4183C145.537 65.9355 145.589 65.4042 145.488 64.8917C145.385 64.3792 145.134 63.9084 144.764 63.5388C144.395 63.1693 143.924 62.9177 143.411 62.8157C142.899 62.7138 142.367 62.7661 141.885 62.9661C141.402 63.1661 140.989 63.5047 140.699 63.9392C140.409 64.3737 140.253 64.8846 140.253 65.4072C140.256 66.1073 140.534 66.7783 141.03 67.2734C141.524 67.7685 142.196 68.0474 142.896 68.0493ZM142.896 61.973C143.575 61.973 144.239 62.1744 144.803 62.5518C145.368 62.9291 145.809 63.4655 146.069 64.093C146.329 64.7205 146.397 65.411 146.264 66.0771C146.132 66.7433 145.805 67.3552 145.324 67.8355C144.844 68.3157 144.232 68.6428 143.566 68.7753C142.899 68.9078 142.209 68.8398 141.582 68.5799C140.954 68.32 140.418 67.8798 140.041 67.3151C139.663 66.7503 139.462 66.0864 139.462 65.4072C139.461 64.9559 139.549 64.5089 139.721 64.0918C139.894 63.6748 140.146 63.2958 140.465 62.9767C140.785 62.6577 141.163 62.4047 141.581 62.2325C141.998 62.0603 142.445 61.9721 142.896 61.973Z" fill="#778187"/>
</g>
</g>
<defs>
<clipPath id="clip0_45_2358">
<rect width="146.33" height="150" fill="white"/>
</clipPath>
</defs>
</svg>
