<svg width="147" height="102" viewBox="0 0 147 102" fill="none" xmlns="http://www.w3.org/2000/svg">
<g id="SVG">
<g id="Clip path group">
<mask id="mask0_45_1739" style="mask-type:luminance" maskUnits="userSpaceOnUse" x="0" y="11" width="147" height="80">
<g id="clip0_4263_49059">
<path id="Vector" d="M146.33 11.5146H0V90.4853H146.33V11.5146Z" fill="white"/>
</g>
</mask>
<g mask="url(#mask0_45_1739)">
<g id="Group">
<path id="Vector_2" d="M60.51 48.4686H55.4121V70.1201H60.51V48.4686Z" fill="#778187"/>
<path id="Vector_3" d="M83.9786 48.4686V56.9224C84.5492 56.3836 85.222 55.9659 85.959 55.6945C86.6953 55.4232 87.4788 55.3038 88.2624 55.3438C93.0834 55.3438 95.2102 59.2905 95.2102 62.9766C95.2102 66.6628 93.0834 70.6016 88.2624 70.6016C85.6857 70.6016 84.097 69.4097 83.3786 68.2337V70.1438H78.8811V48.4686H83.9786ZM86.8873 59.5193C86.2834 59.5177 85.6912 59.6846 85.1771 60.0012C84.6638 60.3178 84.248 60.7715 83.9786 61.3112V64.6184C84.2472 65.1593 84.6614 65.614 85.1755 65.9308C85.6904 66.2476 86.2834 66.4137 86.8873 66.4103C89.0451 66.4103 89.9695 64.65 89.9695 62.9766C89.9695 61.3033 89.0451 59.5351 86.8873 59.5351" fill="#778187"/>
<path id="Vector_4" d="M111.324 55.7632V70.145H106.827V68.4795C106.259 69.1382 105.556 69.6662 104.764 70.0273C103.973 70.3884 103.112 70.574 102.243 70.5713C98.2912 70.5713 96.4888 67.9112 96.4888 64.6748V55.7632H101.571V63.9882C101.543 64.2839 101.581 64.5822 101.681 64.8618C101.781 65.1415 101.942 65.3957 102.151 65.6065C102.361 65.8173 102.614 65.9796 102.894 66.0818C103.173 66.1841 103.471 66.2238 103.768 66.1983C104.245 66.1844 104.713 66.0646 105.138 65.8475C105.563 65.6304 105.935 65.3216 106.226 64.9433V55.7632H111.324Z" fill="#778187"/>
<path id="Vector_5" d="M119.671 55.3139C122.247 55.3139 123.836 56.5059 124.555 57.682V55.7638H129.052V69.5299C129.052 75.2684 124.887 77.1548 120.54 77.1548C118.398 77.1725 116.279 76.7141 114.336 75.8129L115.529 72.0874C116.897 72.6665 118.367 72.967 119.853 72.9714C122.161 72.9714 123.955 72.2768 123.955 69.814V68.9616C123.385 69.5005 122.711 69.9181 121.975 70.1895C121.239 70.4608 120.454 70.5802 119.671 70.5403C114.85 70.5403 112.724 66.5935 112.724 62.9152C112.724 59.2369 114.85 55.2823 119.671 55.2823M121.054 59.4738C118.897 59.4738 117.964 61.2339 117.964 62.9152C117.964 64.5965 118.897 66.3488 121.054 66.3488C121.65 66.3585 122.238 66.2019 122.751 65.8965C123.263 65.5912 123.68 65.1493 123.955 64.6202V61.297C123.687 60.7575 123.273 60.3036 122.761 59.9869C122.248 59.6703 121.657 59.5033 121.054 59.5053" fill="#778187"/>
<path id="Vector_6" d="M53.7329 66.9861L54.302 70.0408C53.4768 70.3431 52.6043 70.4954 51.7254 70.4907C51.0681 70.5453 50.408 70.4285 49.8095 70.1518C49.2109 69.8751 48.6946 69.4478 48.3111 68.9121C46.8959 70.0536 45.1271 70.6676 43.308 70.6486C40.5497 70.617 38.3367 68.9673 38.3367 66.1967C38.3367 62.5737 41.7827 61.4607 44.5647 61.4607C45.6116 61.4589 46.6558 61.57 47.6787 61.7923V61.2792C47.6787 60.2609 46.7224 59.4874 44.6833 59.4874C43.2604 59.5159 41.8525 59.7827 40.5181 60.2767L39.6487 56.33C41.4607 55.7424 43.3479 55.4181 45.2523 55.3671C49.8364 55.3671 52.7765 56.9457 52.7765 62.0764V66.0863C52.7765 66.773 53.2587 66.9782 53.7645 66.9782M45.3156 67.1913C46.1683 67.2177 47.0046 66.9532 47.6866 66.4415V64.4839C47.0949 64.3038 46.4795 64.2133 45.8609 64.2155C44.6596 64.2155 43.5847 64.6339 43.5847 65.7942C43.5847 66.544 44.2407 67.1992 45.3235 67.1992" fill="#778187"/>
<path id="Vector_7" d="M77.2328 66.988L77.8015 70.0427C76.9768 70.3449 76.1041 70.4973 75.2252 70.4926C74.568 70.5472 73.9078 70.4303 73.3093 70.1536C72.7108 69.8769 72.1945 69.4497 71.8109 68.9139C70.3873 70.0476 68.6126 70.6504 66.7921 70.6189C64.0338 70.6189 61.7812 68.9692 61.7812 66.1907C61.7812 62.5676 65.2272 61.4547 68.0171 61.4547C69.0641 61.4532 70.1081 61.5644 71.1312 61.7862V61.2731C71.1312 60.2549 70.1748 59.4814 68.1358 59.4814C66.7129 59.5098 65.3049 59.7767 63.9705 60.2707L63.1011 56.324C64.9131 55.7364 66.8003 55.412 68.7048 55.361C73.2889 55.361 76.229 56.9397 76.229 62.0704V66.0802C76.229 66.7669 76.7032 66.9722 77.217 66.9722M68.768 67.1853C69.6207 67.2117 70.457 66.9472 71.1391 66.4354V64.4858C70.5474 64.3057 69.932 64.2152 69.3133 64.2174C68.112 64.2174 67.0371 64.6357 67.0371 65.7961C67.0371 66.5459 67.6931 67.201 68.7759 67.201" fill="#778187"/>
<path id="Vector_8" d="M145.761 66.9866L146.33 70.0414C145.504 70.3436 144.632 70.496 143.753 70.4913C143.096 70.5458 142.436 70.429 141.838 70.1523C141.239 69.8756 140.723 69.4484 140.339 68.9126C138.923 70.0541 137.155 70.6681 135.336 70.6491C132.578 70.6491 130.325 68.9994 130.325 66.221C130.325 62.5979 133.771 61.485 136.561 61.485C137.608 61.4835 138.652 61.5947 139.675 61.8165V61.3034C139.675 60.2852 138.718 59.5116 136.68 59.5116C135.257 59.5401 133.848 59.8069 132.514 60.3009L131.645 56.3543C133.457 55.7666 135.344 55.4423 137.249 55.3913C141.833 55.3913 144.773 56.9699 144.773 62.1006V66.1105C144.773 66.7972 145.247 67.0024 145.761 67.0024M137.312 67.2155C138.165 67.2418 139.001 66.9774 139.683 66.4657V64.4845C139.091 64.3044 138.476 64.2139 137.857 64.216C136.656 64.216 135.581 64.6344 135.581 65.7948C135.581 66.5446 136.237 67.1997 137.32 67.1997" fill="#778187"/>
<path id="Vector_9" d="M14.4169 18.4044L14.7757 18.6091L14.9807 18.732L15.7086 19.1619L15.8623 19.2541L16.2006 19.4588L16.4465 19.6124L16.7848 19.8273L17.0514 20.0014L17.3794 20.2061L17.6664 20.4006L18.1686 20.7385L18.5172 20.9739L18.8144 21.1889L19.1322 21.4039L19.4295 21.6189L19.7575 21.8543L20.0445 22.0591L20.4751 22.3764L20.8133 22.6324L21.2336 22.9498L21.5001 23.1647L21.8589 23.4412L22.1357 23.6561L22.5149 23.9632L22.7609 24.1578L23.253 24.557L23.7348 24.1578L23.991 23.953L24.36 23.6561L24.6368 23.4309C24.7598 23.349 24.8726 23.2569 24.9853 23.1647L25.2621 22.9498L25.6516 22.6528L26.0616 22.356L26.4511 22.0591L26.7484 21.8441L27.0559 21.6189L27.3737 21.4039L27.671 21.1889L27.9785 20.9739L28.2962 20.7282L28.8498 20.3597L29.1163 20.1754L29.4546 19.9604L29.7211 19.8273L30.0594 19.6124L30.2951 19.469L30.6539 19.2438H30.7462L31.5252 18.6808L31.7712 18.6091L32.1403 18.4044L32.3145 18.302C29.4867 15.7937 26.4558 13.5235 23.253 11.5146C20.0626 13.5231 17.0454 15.7934 14.2324 18.302L14.4169 18.4044Z" fill="#778187"/>
<path id="Vector_10" d="M39.6501 26.0725L39.2708 26.2773L39.076 26.3899L38.707 26.5947L38.5225 26.7072L37.6922 27.1986H37.6307L37.2719 27.4136L37.0361 27.5569L36.6876 27.7822L36.4416 27.9357L36.1033 28.1609L35.8369 28.3349L35.2628 28.7138L34.9655 28.9185L34.6477 29.1437L34.3607 29.3485L34.043 29.5737L33.7355 29.7886L33.4382 30.0138L33.0384 30.3005C32.9154 30.4029 32.7719 30.495 32.6386 30.5974L32.2491 30.8943L31.9723 31.1195L31.6238 31.3857L31.3368 31.6109L31.0601 31.8361L31.6341 32.4504L31.8186 32.6449L32.2696 33.1363L32.4849 33.3717L32.9256 33.8529L33.1102 34.0678L33.7355 34.7742L34.3505 35.4806L34.535 35.7059L34.9552 36.2075L35.1603 36.4531L35.5908 36.965C35.6523 37.0367 35.7035 37.1084 35.7651 37.1698L36.3391 37.8864L36.4211 37.9887L36.9131 38.603L37.1079 38.8487L37.4872 39.3401L37.6819 39.596L37.928 39.9134L38.3175 39.596L38.584 39.3913L38.953 39.1558L39.2093 38.9511L39.6501 38.6235L39.9576 38.388L40.4086 38.0604L40.6853 37.8556L41.0236 37.61L41.3209 37.4053L41.6386 37.18L41.9256 36.9753L42.3049 36.7193L42.7662 36.4122C42.8683 36.3381 42.9743 36.2697 43.084 36.2075L43.3916 36.0027L43.6683 35.8184L43.9963 35.6137L44.2628 35.4499L44.5908 35.2452L44.7958 35.1223L45.4621 34.7333L45.6877 34.6002L46.0259 34.4057L46.2515 34.2828L46.4974 34.1497C44.7344 31.6928 42.797 29.2461 40.7059 26.8505L39.9063 25.9496L39.7936 26.0111L39.6398 26.093" fill="#778187"/>
<path id="Vector_11" d="M23.3607 24.6492L23.576 24.8233L24.0373 25.202L24.2731 25.4068L24.6728 25.7549L24.9189 25.9596L25.3493 26.3487L25.5441 26.5124L26.1694 27.0755L26.3334 27.229L26.7947 27.6488L27.0305 27.8637L27.4507 28.263L27.6762 28.4678L28.1581 28.9387L28.3015 29.0718L28.9269 29.686L29.1011 29.8601L29.5623 30.3207L29.7776 30.546L30.2184 30.9862L30.4234 31.2011C30.6079 31.3854 30.7822 31.5799 30.9667 31.7744C30.999 31.7962 31.0268 31.824 31.0487 31.8563L31.0999 31.9075L31.3767 31.6823L31.6637 31.4571L32.0123 31.1909L32.289 30.9657L32.6786 30.6688L33.0783 30.3719L33.4781 30.0853C33.5727 30.0045 33.672 29.9294 33.7753 29.8601L34.0829 29.6451L34.4007 29.4198L34.6877 29.2151L35.0054 28.9898L35.3027 28.7851L35.8767 28.4063L36.1432 28.2323L36.4815 28.0071L36.7275 27.8535L37.0761 27.6283L37.3118 27.485L37.6706 27.27H37.7321L38.5624 26.7786L38.7469 26.666L39.1159 26.4612L39.3107 26.3487L39.6899 26.1439L39.8437 26.062L39.9565 26.0006C37.5583 23.3118 35.0014 20.6834 32.3059 18.2921L32.0457 18.3738L31.7433 18.4826L31.4741 18.655L30.7515 19.1927H30.6592L30.3004 19.418L30.0646 19.5613L29.7264 19.8275L29.4207 19.644L29.0335 20.0311L28.6464 20.4182L28.3015 20.7284L27.9838 20.9434L27.6762 21.1584L27.3789 21.3733L27.0612 21.5883L26.7537 21.8135L26.4565 22.0285L26.0669 22.3253L25.6568 22.6223L25.2673 22.9192L24.9906 23.1341L24.6421 23.4106L24.3653 23.6255L23.9963 23.9224L23.74 24.1271L23.2632 24.5493L23.3182 24.6043" fill="#778187"/>
<path id="Vector_12" d="M0.471528 34.3856L0.820048 34.5801L1.04556 34.7132L1.7016 35.1022L1.90662 35.2251L2.23463 35.4298L2.50115 35.5936L2.82916 35.7984L3.07518 35.9826L3.39295 36.1873L3.70046 36.3921L4.16175 36.6992L4.54101 36.9551L4.82803 37.1599L5.15606 37.3851L5.44307 37.5898L5.78134 37.8356L6.0581 38.0403L6.50913 38.3679L6.81665 38.6033L7.25743 38.9309L7.51369 39.1356L7.88274 39.4223L8.14923 39.6373L8.53874 39.9444L8.78479 39.627C8.84626 39.5348 8.91803 39.453 8.97951 39.3711L9.3588 38.8797L9.55359 38.634L10.0353 38.0301L10.1276 37.9175L10.7016 37.2009C10.7651 37.1374 10.8234 37.0689 10.8759 36.9961L11.3064 36.4842L11.5114 36.2385L11.9317 35.7369L12.1265 35.5117L12.7312 34.8053L13.3566 34.0989L13.5513 33.8839L13.9818 33.4028L14.1971 33.1673L14.6481 32.6759L14.8326 32.4814L15.4512 31.8239L15.1518 31.5971L14.8675 31.337L14.559 31.0376L14.2263 30.8803L13.8392 30.5507L13.4945 30.2543L13.0559 30.0033L12.7867 29.7674L12.451 29.5345L12.1547 29.347L11.8492 29.1202L11.5529 28.8994L11.2757 28.7448L10.7323 28.3865L10.4556 28.2022L10.1276 27.9872L9.86111 27.8132L9.52278 27.6085L9.24832 27.4327L8.88544 27.2209L8.77952 27.1272L8.0084 26.6796L7.84488 26.5466L7.47587 26.3419L7.28555 26.2471L6.92264 26.0324L6.72606 25.9749L6.59904 25.9073C6.33252 26.2041 6.04785 26.5233 5.79159 26.8305C3.70046 29.226 1.76311 31.6727 0 34.1297L0.246015 34.2628L0.471528 34.3856Z" fill="#778187"/>
<path id="Vector_13" d="M30.1271 46.8734L29.9323 46.6277L29.4506 46.0237C29.4175 45.9907 29.3899 45.9527 29.3685 45.9111L28.7843 45.2048L28.61 44.9898L28.1898 44.4779L27.9745 44.2731L27.5542 43.7715L27.3697 43.5565L26.7547 42.8399C26.5497 42.6045 26.3446 42.369 26.1293 42.1438L25.9448 41.9288L25.5041 41.4374L25.2888 41.202C25.1351 41.0381 24.9915 40.8744 24.8378 40.7208L24.6533 40.5161L24.0382 39.8506L23.946 39.7687C23.7718 39.5742 23.5872 39.39 23.4027 39.1954L23.2592 39.0419L23.1055 39.1954L22.5724 39.7585L22.4801 39.8506L21.8549 40.5161L21.6704 40.7208L21.2193 41.202L21.0041 41.4374L20.5735 41.9288L20.3788 42.1438L19.7535 42.8399L19.1384 43.5565L18.9539 43.7715L18.5337 44.2731L18.3287 44.5188L17.8981 45.0307L17.7238 45.2457L17.1498 45.952L17.0678 46.0545L16.5758 46.6789L16.381 46.9144L16.2888 47.0474L16.4221 47.1908L16.9756 47.7538L17.0576 47.8459L17.6829 48.5114L17.8572 48.7059L18.3081 49.1973L18.5235 49.4225L18.9642 49.9139L19.1589 50.1289L19.774 50.8353L20.389 51.5416L20.5735 51.7668L21.0041 52.2582L21.2091 52.5142L21.6293 53.0158L21.8036 53.2308L22.3879 53.9474L22.4699 54.0498L22.9619 54.664L23.1464 54.9097L23.2592 55.0428L23.3617 54.9097L23.5564 54.664L24.0382 54.0498L24.1202 53.9474L24.7045 53.2308L24.8788 53.0158L25.2991 52.5142L25.5143 52.2582L25.9346 51.7668L26.1191 51.5416L26.7342 50.8353L27.3594 50.1289L27.5439 49.9139L27.9848 49.3918L28.2 49.1666L28.651 48.6752L28.8356 48.4806C29.0406 48.2554 29.2456 48.0302 29.4608 47.8153L29.5428 47.7231L30.0861 47.1601L30.2193 47.0167L30.1271 46.8837" fill="#778187"/>
<path id="Vector_14" d="M6.83488 26.0562L7.2039 26.261L7.39867 26.3735L7.7677 26.5783L7.96242 26.691L8.75174 27.1618L8.84395 27.2232L9.20272 27.4382L9.43855 27.5815L9.77681 27.7965L10.0433 27.9706L10.3713 28.1856L10.6481 28.3699L11.1914 28.7282L11.5091 28.9431L11.8167 29.1581L12.1242 29.3731L12.4317 29.5881L12.7494 29.8235L13.0364 30.0385C13.18 30.1307 13.3132 30.233 13.4568 30.3457L13.8155 30.6118L14.2256 30.9292L14.5023 31.1339L14.8508 31.4103L15.1276 31.6253L15.3636 31.8591L15.4146 31.8096L15.5069 31.7174C15.6811 31.523 15.8657 31.3387 16.0399 31.1544L16.2552 30.9394L16.6754 30.4992L16.901 30.274L17.393 29.8235L17.5775 29.6393C17.7825 29.4345 17.9875 29.2298 18.2027 29.0353L18.4181 28.9022L18.8896 28.4518L19.1253 28.2266L19.4431 27.8785C19.5166 27.7983 19.5953 27.723 19.6789 27.6532L20.1299 27.2438L20.3144 27.0697L20.9192 26.5271L21.1344 26.3326L21.5547 25.9743L21.811 25.7491L22.1903 25.4215L22.4466 25.2065L22.877 24.8379L23.0718 24.6742L23.2162 24.5332L22.8064 24.1872L22.5183 23.9473L22.139 23.6402L21.8623 23.4252L21.4932 23.1488L21.2267 22.9338L20.8065 22.6165L20.4682 22.3605L20.0377 22.0431L19.7506 21.8384L19.4431 21.603L19.1458 21.388L18.8281 21.173L18.5308 20.958L18.1413 20.7123L17.639 20.3745L17.393 20.1902L17.0649 19.9855L16.7985 19.8115L16.4602 19.5965L16.2142 19.4429L15.8759 19.2381L15.7221 19.146L14.9944 18.716L14.7894 18.5932L14.4306 18.3884L14.2461 18.2861C11.553 20.6801 8.9998 23.2265 6.59912 25.9129L6.70163 25.9743L6.87588 26.0562" fill="#778187"/>
<path id="Vector_15" d="M41.0399 87.9484V82.5861H42.3772C42.8389 82.5861 43.225 82.6536 43.5355 82.7887C43.8538 82.9158 44.1085 83.1025 44.2996 83.3488C44.4906 83.595 44.6259 83.8929 44.7055 84.2425C44.7931 84.584 44.8369 84.9694 44.8369 85.3983C44.8369 85.867 44.7772 86.2643 44.6578 86.59C44.5384 86.9157 44.3792 87.1818 44.1802 87.3884C43.9812 87.5869 43.7543 87.7299 43.4996 87.8174C43.2449 87.9047 42.9822 87.9484 42.7115 87.9484H41.0399ZM39.1653 81.0132V89.5214H42.8429C43.4956 89.5214 44.0608 89.4138 44.5384 89.1993C45.024 88.9771 45.426 88.6753 45.7444 88.294C46.0707 87.9127 46.3135 87.4598 46.4727 86.9355C46.6319 86.4112 46.7116 85.8392 46.7116 85.2196C46.7116 84.5126 46.612 83.8969 46.413 83.3725C46.2219 82.8482 45.9513 82.4114 45.6011 82.0618C45.2588 81.7122 44.8488 81.4501 44.3712 81.2753C43.9016 81.1005 43.3921 81.0132 42.8429 81.0132H39.1653Z" fill="#778187"/>
<path id="Vector_16" d="M48.0144 81.0132V89.5214H54.486V87.9484H49.889V85.8631H54.0204V84.4093H49.889V82.5861H54.3905V81.0132H48.0144Z" fill="#778187"/>
<path id="Vector_17" d="M59.7211 89.5214L62.551 81.0132H60.6166L58.6943 86.9951H58.6705L56.7719 81.0132H54.8496L57.6077 89.5214H59.7211Z" fill="#778187"/>
<path id="Vector_18" d="M63.2815 81.0132V89.5214H69.7531V87.9484H65.1561V85.8631H69.2874V84.4093H65.1561V82.5861H69.6575V81.0132H63.2815Z" fill="#778187"/>
<path id="Vector_19" d="M71.0237 81.0132V89.5214H77.0535V87.9484H72.8983V81.0132H71.0237Z" fill="#778187"/>
<path id="Vector_20" d="M79.6058 85.303C79.6058 84.9296 79.6453 84.5682 79.7251 84.2186C79.8126 83.869 79.948 83.5593 80.1308 83.2891C80.3142 83.0111 80.5527 82.7926 80.8477 82.6338C81.1419 82.4669 81.5004 82.3835 81.9223 82.3835C82.3443 82.3835 82.7019 82.4669 82.9969 82.6338C83.2911 82.7926 83.5304 83.0111 83.7131 83.2891C83.8966 83.5593 84.0274 83.869 84.1072 84.2186C84.1947 84.5682 84.2388 84.9296 84.2388 85.303C84.2388 85.6605 84.1947 86.01 84.1072 86.3516C84.0274 86.6853 83.8966 86.9871 83.7131 87.2573C83.5304 87.5273 83.2911 87.7458 82.9969 87.9126C82.7019 88.0715 82.3443 88.1509 81.9223 88.1509C81.5004 88.1509 81.1419 88.0715 80.8477 87.9126C80.5527 87.7458 80.3142 87.5273 80.1308 87.2573C79.948 86.9871 79.8126 86.6853 79.7251 86.3516C79.6453 86.01 79.6058 85.6605 79.6058 85.303ZM77.7314 85.303C77.7314 85.9227 77.8267 86.5026 78.0179 87.0427C78.2084 87.575 78.4832 88.0398 78.8417 88.4369C79.2001 88.8341 79.6376 89.1482 80.1548 89.3782C80.6805 89.6011 81.2696 89.7119 81.9223 89.7119C82.5827 89.7119 83.1719 89.6011 83.6891 89.3782C84.207 89.1482 84.6445 88.8341 85.0029 88.4369C85.3606 88.0398 85.6355 87.575 85.8267 87.0427C86.0179 86.5026 86.1132 85.9227 86.1132 85.303C86.1132 84.6674 86.0179 84.0796 85.8267 83.5394C85.6355 82.9912 85.3606 82.5146 85.0029 82.1095C84.6445 81.7043 84.207 81.3865 83.6891 81.1562C83.1719 80.9258 82.5827 80.8105 81.9223 80.8105C81.2696 80.8105 80.6805 80.9258 80.1548 81.1562C79.6376 81.3865 79.2001 81.7043 78.8417 82.1095C78.4832 82.5146 78.2084 82.9912 78.0179 83.5394C77.8267 84.0796 77.7314 84.6674 77.7314 85.303Z" fill="#778187"/>
<path id="Vector_21" d="M89.266 85.017V82.4669H90.7231C90.9375 82.4669 91.145 82.4828 91.344 82.5146C91.543 82.5464 91.718 82.6099 91.8689 82.7052C92.0207 82.7927 92.1399 82.9198 92.2274 83.0866C92.3226 83.2534 92.3706 83.4719 92.3706 83.742C92.3706 84.0121 92.3226 84.2305 92.2274 84.3974C92.1399 84.5642 92.0207 84.6953 91.8689 84.7906C91.718 84.878 91.543 84.9376 91.344 84.9694C91.145 85.0011 90.9375 85.017 90.7231 85.017H89.266ZM87.3916 81.0132V89.5214H89.266V86.4708H91.2364C91.7698 86.4708 92.2235 86.3953 92.5975 86.2444C92.9714 86.0855 93.2741 85.8789 93.5049 85.6248C93.7441 85.3705 93.9152 85.0806 94.0182 84.7548C94.1297 84.4212 94.1854 84.0836 94.1854 83.742C94.1854 83.3924 94.1297 83.0548 94.0182 82.7291C93.9152 82.4034 93.7441 82.1134 93.5049 81.8593C93.2741 81.605 92.9714 81.4025 92.5975 81.2515C92.2235 81.0926 91.7698 81.0132 91.2364 81.0132H87.3916Z" fill="#778187"/>
<path id="Vector_22" d="M95.3577 81.0132V89.5214H97.1128V83.5513H97.1361L99.2257 89.5214H100.67L102.76 83.4918H102.784V89.5214H104.539V81.0132H101.901L100.014 86.8641H99.9898L97.9962 81.0132H95.3577Z" fill="#778187"/>
<path id="Vector_23" d="M106.191 81.0132V89.5214H112.662V87.9484H108.065V85.8631H112.196V84.4093H108.065V82.5861H112.566V81.0132H106.191Z" fill="#778187"/>
<path id="Vector_24" d="M113.933 81.0132V89.5214H115.688V83.8254H115.712L119.259 89.5214H121.133V81.0132H119.378V86.7211H119.354L115.796 81.0132H113.933Z" fill="#778187"/>
<path id="Vector_25" d="M124.672 82.5861V89.5214H126.547V82.5861H129.102V81.0132H122.117V82.5861H124.672Z" fill="#778187"/>
<path id="Vector_26" fill-rule="evenodd" clip-rule="evenodd" d="M44.7068 84.2407C44.6272 83.8911 44.4918 83.5932 44.3008 83.347C44.1098 83.1007 43.855 82.914 43.5366 82.7869C43.2261 82.6518 42.8401 82.5843 42.3784 82.5843H41.0411V87.9466H42.7127C42.9834 87.9466 43.246 87.9029 43.5007 87.8155C43.7555 87.7281 43.9824 87.5851 44.1814 87.3865C44.3803 87.18 44.5396 86.9139 44.659 86.5882C44.7784 86.2625 44.8381 85.8652 44.8381 85.3966C44.8381 84.9676 44.7943 84.5822 44.7068 84.2407ZM44.0985 87.3052C44.2839 87.1125 44.4352 86.8614 44.55 86.5481C44.6633 86.2389 44.7219 85.8561 44.7219 85.3966C44.7219 84.9752 44.679 84.5999 44.5943 84.2695L44.5935 84.2664C44.5171 83.931 44.3882 83.6492 44.209 83.4181C44.0319 83.1898 43.7947 83.015 43.4935 82.8947L43.4903 82.8934C43.1987 82.7666 42.8296 82.7004 42.3784 82.7004H41.1572V87.8305H42.7127C42.9706 87.8305 43.2205 87.7889 43.4631 87.7057C43.7 87.6244 43.9116 87.4915 44.0985 87.3052ZM39.0503 80.8952H42.844C43.4057 80.8952 43.9289 80.9846 44.4126 81.1646C44.9055 81.345 45.3301 81.6162 45.6848 81.9783C46.0481 82.341 46.3271 82.7926 46.5231 83.3303C46.728 83.8706 46.8289 84.5005 46.8289 85.2178C46.8289 85.8474 46.7479 86.4309 46.585 86.9675C46.4217 87.5055 46.1718 87.9726 45.8343 88.3672C45.504 88.7625 45.0878 89.0747 44.588 89.3031L44.5871 89.3038C44.0914 89.526 43.5093 89.636 42.844 89.636H39.0503V80.8952ZM45.6023 82.06C45.2599 81.7104 44.8501 81.4483 44.3724 81.2735C43.9028 81.0988 43.3933 81.0114 42.844 81.0114H39.1664V89.5198H42.844C43.4968 89.5198 44.062 89.4122 44.5396 89.1978C45.0251 88.9756 45.4272 88.6735 45.7455 88.2922C46.072 87.9109 46.3147 87.458 46.4739 86.9337C46.6331 86.4094 46.7127 85.8374 46.7127 85.2178C46.7127 84.5108 46.6132 83.8951 46.4143 83.3707C46.2232 82.8464 45.9525 82.4095 45.6023 82.06ZM47.9006 80.8952H54.509V82.7004H50.0075V84.2914H54.1389V85.9774H50.0075V87.8305H54.6045V89.636H47.9006V80.8952ZM54.4884 87.9466V89.5198H48.0168V81.0114H54.3929V82.5843H49.8914V84.4075H54.0227V85.8613H49.8914V87.9466H54.4884ZM59.8073 89.636H57.5257L54.6921 80.8952H56.8593L58.6853 86.6489L60.5344 80.8952H62.7144L59.8073 89.636ZM60.619 81.0114H62.5534L59.7235 89.5198H57.61L54.8518 81.0114H56.7743L58.6728 86.9933H58.6967L60.619 81.0114ZM63.1642 80.8952H69.7726V82.7004H65.2711V84.2914H69.4025V85.9774H65.2711V87.8305H69.8682V89.636H63.1642V80.8952ZM69.752 87.9466V89.5198H63.2804V81.0114H69.6565V82.5843H65.1549V84.4075H69.2863V85.8613H65.1549V87.9466H69.752ZM70.9068 80.8952H73.0137V87.8305H77.1689V89.636H70.9068V80.8952ZM77.0528 87.9466V89.5198H71.0229V81.0114H72.8976V87.9466H77.0528ZM80.1307 83.2874C79.948 83.5575 79.8125 83.8672 79.725 84.2168C79.6452 84.5664 79.605 84.9279 79.605 85.3012C79.605 85.6587 79.6452 86.0082 79.725 86.3499C79.8125 86.6835 79.948 86.9854 80.1307 87.2555C80.3134 87.5255 80.5526 87.744 80.8469 87.9109C81.1418 88.0697 81.4995 88.1492 81.9215 88.1492C82.3434 88.1492 82.7019 88.0697 82.9961 87.9109C83.2911 87.744 83.5296 87.5255 83.7131 87.2555C83.8958 86.9854 84.0274 86.6835 84.1072 86.3499C84.1946 86.0082 84.238 85.6587 84.238 85.3012C84.238 84.9279 84.1946 84.5664 84.1072 84.2168C84.0274 83.8672 83.8958 83.5575 83.7131 83.2874C83.5296 83.0093 83.2911 82.7908 82.9961 82.632C82.7019 82.4651 82.3434 82.3817 81.9215 82.3817C81.4995 82.3817 81.1418 82.4651 80.8469 82.632C80.5526 82.7908 80.3134 83.0093 80.1307 83.2874ZM82.9404 87.8092C83.2191 87.651 83.4444 87.4447 83.6163 87.1903C83.7913 86.9324 83.9175 86.6436 83.9941 86.3229V86.321C84.0793 85.9889 84.1219 85.6491 84.1219 85.3012C84.1219 84.937 84.0793 84.585 83.9941 84.2451L83.9933 84.2426C83.9167 83.9057 83.7913 83.6096 83.6163 83.3525L83.6155 83.3512C83.4436 83.0893 83.2191 82.884 82.9412 82.7342L82.9388 82.733C82.6655 82.5782 82.3287 82.4979 81.9215 82.4979C81.515 82.4979 81.1775 82.5782 80.9042 82.733L80.9026 82.7342C80.6247 82.884 80.4001 83.0893 80.2275 83.3512L80.2267 83.3525C80.0525 83.61 79.9224 83.9066 79.838 84.2438C79.7606 84.5842 79.7211 84.9366 79.7211 85.3012C79.7211 85.6494 79.7598 85.9896 79.8373 86.3219C79.9216 86.643 80.0517 86.9321 80.2267 87.1903C80.3994 87.4447 80.6239 87.651 80.9034 87.8092C81.1767 87.9565 81.515 88.033 81.9215 88.033C82.3287 88.033 82.6663 87.9565 82.9404 87.8092ZM77.9079 87.0797C77.712 86.5261 77.6144 85.9329 77.6144 85.3012C77.6144 84.6541 77.712 84.0531 77.9079 83.4994C78.103 82.938 78.3856 82.448 78.7541 82.0307C79.1242 81.6126 79.5756 81.2851 80.1075 81.0483C80.6494 80.8106 81.2549 80.6926 81.9215 80.6926C82.5958 80.6926 83.2013 80.8102 83.7363 81.0483C84.2682 81.2851 84.7196 81.6126 85.0897 82.0307C85.4582 82.4479 85.74 82.9377 85.9359 83.4989C86.1318 84.0528 86.2293 84.6539 86.2293 85.3012C86.2293 85.9329 86.1318 86.5261 85.9359 87.0797C85.74 87.6253 85.4574 88.1039 85.0889 88.513C84.7188 88.9229 84.2674 89.2458 83.7363 89.4827L83.7347 89.4835C83.2005 89.7126 82.5958 89.8264 81.9215 89.8264C81.2556 89.8264 80.651 89.7126 80.109 89.4835L80.1075 89.4827C79.5763 89.2458 79.125 88.9229 78.7549 88.513C78.3863 88.1039 78.1038 87.6253 77.9079 87.0797ZM78.017 83.5376C77.8266 84.0778 77.7306 84.6657 77.7306 85.3012C77.7306 85.9209 77.8266 86.5008 78.017 87.0409C78.2083 87.5732 78.4831 88.038 78.8408 88.4352C79.1993 88.8324 79.6375 89.1459 80.1547 89.3766C80.6796 89.5988 81.2688 89.7103 81.9215 89.7103C82.5827 89.7103 83.1719 89.5988 83.6891 89.3766C84.2063 89.1459 84.6445 88.8324 85.0022 88.4352C85.3606 88.038 85.6355 87.5732 85.8259 87.0409C86.0172 86.5008 86.1132 85.9209 86.1132 85.3012C86.1132 84.6657 86.0172 84.0778 85.8259 83.5376C85.6355 82.9894 85.3606 82.5128 85.0022 82.1077C84.6445 81.7025 84.2063 81.3847 83.6891 81.1544C83.1719 80.924 82.5827 80.8088 81.9215 80.8088C81.2688 80.8088 80.6796 80.924 80.1547 81.1544C79.6375 81.3847 79.1993 81.7025 78.8408 82.1077C78.4831 82.5128 78.2083 82.9894 78.017 83.5376ZM91.8719 82.7034C91.721 82.6081 91.5452 82.5446 91.3462 82.5128C91.1473 82.481 90.9405 82.4651 90.7253 82.4651H89.269V85.0152H90.7253C90.9405 85.0152 91.1473 84.9993 91.3462 84.9676C91.5452 84.9358 91.721 84.8762 91.8719 84.7888C92.0229 84.6935 92.1429 84.5624 92.2304 84.3956C92.3256 84.2287 92.3736 84.0102 92.3736 83.7402C92.3736 83.4701 92.3256 83.2516 92.2304 83.0848C92.1429 82.918 92.0229 82.7908 91.8719 82.7034ZM89.3851 84.8991H90.7253C90.9351 84.8991 91.1356 84.8836 91.3284 84.8528C91.5142 84.8231 91.6753 84.7681 91.8115 84.6893C91.9439 84.6056 92.0492 84.4906 92.1274 84.3416L92.129 84.3378C92.2118 84.1943 92.2575 83.9978 92.2575 83.7402C92.2575 83.4825 92.2118 83.286 92.129 83.1425L92.1274 83.1388C92.0492 82.9898 91.9447 82.8796 91.8139 82.804L91.81 82.8018C91.6737 82.7158 91.5135 82.6571 91.3284 82.6275C91.1356 82.5967 90.9351 82.5813 90.7253 82.5813H89.3851V84.8991ZM87.2784 80.8952H91.2394C91.7829 80.8952 92.2529 80.9761 92.6446 81.1425C93.0317 81.2985 93.3492 81.5099 93.5931 81.7786C93.8424 82.0447 94.0228 82.349 94.1311 82.6907C94.2465 83.0284 94.3046 83.3784 94.3046 83.7402C94.3046 84.0945 94.2465 84.4444 94.1311 84.7893C94.0228 85.1312 93.8431 85.4357 93.5931 85.7018C93.3492 85.9702 93.0317 86.1854 92.6454 86.3495L92.6438 86.3503C92.2521 86.5083 91.7829 86.5852 91.2394 86.5852H89.3851V89.636H87.2784V80.8952ZM93.5079 85.623C93.7463 85.3687 93.9175 85.0788 94.0212 84.753C94.1327 84.4194 94.1884 84.0818 94.1884 83.7402C94.1884 83.3906 94.1327 83.053 94.0212 82.7273C93.9175 82.4016 93.7463 82.1116 93.5079 81.8574C93.2772 81.6032 92.9744 81.4007 92.6005 81.2497C92.2258 81.0908 91.7721 81.0114 91.2394 81.0114H87.3945V89.5198H89.269V86.469H91.2394C91.7721 86.469 92.2258 86.3935 92.6005 86.2426C92.9744 86.0837 93.2772 85.8771 93.5079 85.623ZM95.2422 80.8952H98.0805L100.001 86.5293L101.817 80.8952H104.657V89.636H102.669V84.1108L100.755 89.636H99.1443L97.2296 84.1646V89.636H95.2422V80.8952ZM97.1135 83.5495H97.1375L99.2271 89.5198H100.672L102.762 83.49H102.786V89.5198H104.541V81.0114H101.901L100.015 86.8622H99.9913L97.9969 81.0114H95.3583V89.5198H97.1135V83.5495ZM106.075 80.8952H112.683V82.7004H108.182V84.2914H112.313V85.9774H108.182V87.8305H112.779V89.636H106.075V80.8952ZM112.662 87.9466V89.5198H106.191V81.0114H112.567V82.5843H108.066V84.4075H112.197V85.8613H108.066V87.9466H112.662ZM113.818 80.8952H115.861L119.262 86.3517V80.8952H121.249V89.636H119.195L115.805 84.1915V89.636H113.818V80.8952ZM115.689 83.8236H115.713L119.259 89.5198H121.133V81.0114H119.378V86.7192H119.355L115.797 81.0114H113.934V89.5198H115.689V83.8236ZM122.115 82.5843V81.0114H129.1V82.5843H126.545V89.5198H124.671V82.5843H122.115ZM124.555 82.7004H121.999V80.8952H129.216V82.7004H126.661V89.636H124.555V82.7004Z" fill="#778187"/>
</g>
</g>
</g>
</g>
</svg>
