<svg width="147" height="150" viewBox="0 0 147 150" fill="none" xmlns="http://www.w3.org/2000/svg">
<g id="graitek" clip-path="url(#clip0_45_1724)">
<path id="Vector" d="M102.53 81.8036V89.062C102.53 89.2297 102.53 89.3974 102.527 89.5644C102.524 89.6992 102.451 89.7803 102.332 89.787C102.277 89.7903 102.221 89.7921 102.165 89.7924C101.401 89.7924 100.638 89.7921 99.8747 89.7915C99.7819 89.7906 99.6894 89.7808 99.5985 89.762C99.5691 89.7561 99.5355 89.715 99.5255 89.6831C99.5107 89.6293 99.5036 89.5737 99.5045 89.5179C99.5015 89.3502 99.5017 89.1825 99.5017 89.0154V80.1378C99.5017 79.9701 99.4951 79.8033 99.4888 79.6361C99.4888 79.6264 99.4653 79.6134 99.4505 79.609C99.4359 79.6047 99.4086 79.6016 99.4014 79.61C99.3428 79.6809 99.2807 79.7499 99.2323 79.8278C98.2804 81.3612 97.3294 82.8951 96.3796 84.4299L93.351 89.3171C93.2923 89.412 93.2236 89.5016 93.1726 89.6004C93.0929 89.7551 92.9638 89.8008 92.803 89.7928C92.7844 89.7918 92.7657 89.7928 92.7471 89.7928C91.8909 89.7928 91.0342 89.7938 90.178 89.7915C90.0855 89.7896 89.9934 89.7783 89.9032 89.7578C89.8738 89.7513 89.8447 89.7124 89.8288 89.6815C89.8136 89.6478 89.806 89.6112 89.8066 89.5743C89.8031 89.4253 89.8015 89.2762 89.8016 89.1271V74.4987C89.8016 74.3685 89.8001 74.2381 89.8029 74.1074C89.8079 73.8679 89.8588 73.8138 90.101 73.8138C90.9203 73.8116 91.7394 73.8138 92.5587 73.8138C92.5957 73.8154 92.6327 73.819 92.6695 73.8243C92.7381 73.8315 92.8116 73.9006 92.8144 73.9703C92.8216 74.1557 92.829 74.3415 92.8292 74.5272C92.83 77.5793 92.8305 80.6317 92.8305 83.6838C92.8305 83.8507 92.8389 84.0176 92.8468 84.1843C92.8468 84.1927 92.8778 84.2029 92.8956 84.2062C92.9134 84.2096 92.9367 84.2103 92.9448 84.2009C93.0043 84.131 93.0692 84.0651 93.1162 83.9878C93.7752 82.9078 94.4327 81.8269 95.0887 80.7451C96.4235 78.5518 97.7585 76.3586 99.0939 74.1654C99.123 74.1178 99.1559 74.0721 99.1822 74.0232C99.2595 73.88 99.3693 73.8088 99.5405 73.8098C100.434 73.8148 101.328 73.8121 102.221 73.8124C102.258 73.8124 102.296 73.8157 102.333 73.818C102.438 73.8249 102.515 73.8927 102.521 73.9864C102.527 74.0803 102.53 74.172 102.53 74.2651C102.531 74.6371 102.53 75.0094 102.53 75.3816V81.8036ZM119.534 81.7579V74.553C119.534 74.3853 119.534 74.2174 119.538 74.0497C119.541 73.882 119.608 73.8202 119.779 73.8152C119.909 73.8113 120.04 73.812 120.171 73.812H130.731C130.898 73.812 131.065 73.8194 131.233 73.8259C131.296 73.8286 131.367 73.9083 131.372 73.9767C131.377 74.0328 131.384 74.0877 131.384 74.1432C131.384 74.8321 131.384 75.521 131.384 76.2099C131.384 76.2658 131.379 76.3217 131.374 76.3766C131.37 76.4383 131.29 76.5263 131.233 76.5289C131.066 76.5361 130.899 76.5443 130.732 76.5443C128.515 76.5455 126.299 76.5455 124.083 76.5443C123.766 76.5443 123.449 76.5447 123.132 76.5452C123.076 76.5452 123.021 76.548 122.965 76.5512C122.868 76.5573 122.785 76.6353 122.78 76.7232C122.776 76.8161 122.77 76.909 122.77 77.0019C122.77 77.8769 122.77 78.7519 122.77 79.6269C122.771 79.7379 122.78 79.8486 122.797 79.9581C122.802 79.986 122.842 80.0209 122.873 80.0317C122.926 80.0493 122.981 80.0585 123.037 80.059C123.205 80.0628 123.372 80.062 123.54 80.062C125.738 80.062 127.935 80.0621 130.133 80.0626C130.301 80.0626 130.469 80.0685 130.635 80.0743C130.707 80.0768 130.78 80.146 130.786 80.2113C130.792 80.2852 130.801 80.3594 130.801 80.4332C130.802 81.0849 130.802 81.7365 130.801 82.3881C130.801 82.444 130.798 82.4999 130.795 82.5558C130.789 82.6659 130.728 82.7375 130.632 82.746C130.576 82.751 130.521 82.7562 130.465 82.7569C130.316 82.7587 130.167 82.758 130.018 82.758C127.839 82.758 125.66 82.7584 123.481 82.759C123.295 82.759 123.109 82.769 122.924 82.7782C122.856 82.7815 122.787 82.858 122.782 82.927C122.776 83.0012 122.769 83.0753 122.769 83.1495C122.769 84.3412 122.769 85.5327 122.77 86.724C122.771 86.8161 122.781 86.908 122.8 86.9981C122.805 87.0269 122.846 87.0592 122.877 87.0698C122.93 87.0865 122.985 87.0951 123.041 87.0956C123.209 87.099 123.377 87.0984 123.544 87.0984H130.975C131.162 87.0984 131.348 87.104 131.534 87.1094C131.606 87.1114 131.679 87.1793 131.685 87.2452C131.691 87.3192 131.699 87.3932 131.7 87.4673C131.701 88.1189 131.701 88.7705 131.7 89.422C131.7 89.4781 131.697 89.534 131.694 89.5899C131.687 89.7191 131.62 89.7796 131.477 89.7865C131.421 89.7893 131.365 89.7903 131.309 89.7906C131.197 89.7913 131.085 89.7906 130.973 89.7906C127.398 89.7906 123.822 89.7905 120.246 89.79C120.06 89.79 119.874 89.7819 119.689 89.7745C119.619 89.7716 119.546 89.6989 119.544 89.63C119.538 89.4442 119.532 89.2581 119.532 89.0722C119.533 86.6349 119.534 84.1968 119.534 81.7579ZM48.1025 59.2084V51.8353C48.1025 51.1476 48.0456 51.2038 48.7322 51.2036C52.5504 51.2028 56.3688 51.2028 60.1871 51.2036C60.8778 51.2036 60.8284 51.1461 60.8284 51.8267V66.5722C60.8284 66.7208 60.8222 66.8694 60.8161 67.0181C60.8132 67.0894 60.7433 67.1631 60.6788 67.1697C60.6229 67.1752 60.5678 67.1846 60.5126 67.1846C59.6373 67.1856 58.7617 67.1856 57.8862 67.1846C57.8303 67.1846 57.7695 67.1869 57.7218 67.1646C57.6774 67.1438 57.6274 67.0967 57.6166 67.0528C57.5947 66.964 57.5924 66.8691 57.5921 66.7765C57.5898 66.3671 57.5909 65.9574 57.5909 65.5479V54.6001C57.5909 54.4143 57.5839 54.2282 57.577 54.0424C57.5747 53.9746 57.5013 53.9074 57.4287 53.9026C57.3359 53.8964 57.2432 53.89 57.1503 53.89C55.3623 53.8892 53.5743 53.8892 51.7862 53.89C51.6933 53.89 51.6003 53.8949 51.5076 53.9007C51.4147 53.9063 51.3454 53.9806 51.343 54.0868C51.3387 54.2728 51.3366 54.4589 51.3367 54.645V64.2525C51.3367 65.0532 51.3364 65.8537 51.3359 66.6542C51.3379 66.7841 51.3308 66.9142 51.3149 67.0431C51.3084 67.0873 51.259 67.1384 51.2154 67.1608C51.169 67.1849 51.107 67.1851 51.052 67.1853C50.1579 67.1864 49.2639 67.1861 48.3698 67.1846C48.3141 67.1854 48.2587 67.1768 48.2058 67.1593C48.175 67.1483 48.1347 67.1108 48.1323 67.082C48.1168 66.916 48.1043 66.7489 48.1043 66.5822C48.1022 64.1241 48.1015 61.6662 48.1025 59.2084ZM140.909 81.5787C141.009 81.628 141.106 81.6816 141.207 81.7255C141.768 81.9687 142.219 82.3491 142.582 82.8348C142.738 83.0431 142.891 83.2554 143.024 83.4777C143.31 83.9569 143.604 84.4337 143.856 84.9312C144.615 86.4241 145.355 87.9257 146.101 89.4248C146.141 89.5075 146.172 89.594 146.194 89.683C146.199 89.7045 146.166 89.7528 146.141 89.7622C146.089 89.7816 146.034 89.7915 145.979 89.7913C144.898 89.7929 143.818 89.7934 142.738 89.7928C142.719 89.7928 142.701 89.791 142.682 89.7916C142.533 89.7971 142.443 89.7196 142.383 89.5884C141.939 88.6251 141.486 87.6663 141.051 86.6992C140.668 85.8497 140.233 85.0282 139.778 84.2169C139.651 83.99 139.505 83.7734 139.364 83.5544C139.03 83.0349 138.534 82.8345 137.936 82.836C137.841 82.836 137.765 82.9096 137.762 83.0124C137.757 83.1798 137.755 83.3472 137.754 83.5147C137.754 85.432 137.754 87.3494 137.754 89.2668C137.754 89.8013 137.768 89.7944 137.241 89.7939C136.458 89.7929 135.676 89.7946 134.894 89.792C134.802 89.79 134.71 89.7786 134.62 89.7578C134.59 89.7515 134.561 89.7134 134.545 89.683C134.529 89.6498 134.521 89.6134 134.521 89.5766C134.517 89.4089 134.515 89.2411 134.515 89.0733V74.5531C134.515 74.3673 134.52 74.1812 134.526 73.9954C134.53 73.9044 134.614 73.8277 134.711 73.8212C134.767 73.8171 134.823 73.8134 134.879 73.8134C135.717 73.8128 136.555 73.8128 137.393 73.8134C137.467 73.8134 137.545 73.8115 137.614 73.833C137.659 73.847 137.718 73.8971 137.725 73.9386C137.745 74.0666 137.754 74.1962 137.753 74.3257C137.755 75.4055 137.756 76.4852 137.754 77.5649C137.754 78.4399 137.753 79.3147 137.756 80.1896C137.758 80.3 137.77 80.41 137.79 80.5185C137.794 80.5444 137.839 80.5654 137.868 80.5843C137.884 80.594 137.902 80.5985 137.921 80.5973C138.294 80.5753 138.656 80.4636 138.977 80.2718C139.106 80.1958 139.215 80.0898 139.294 79.9627C139.393 79.8051 139.486 79.6439 139.572 79.4795C139.899 78.8506 140.154 78.1913 140.415 77.5344C140.6 77.0675 140.786 76.5999 141.024 76.1573C141.201 75.83 141.391 75.5102 141.594 75.1986C142.008 74.5615 142.588 74.1572 143.332 73.9805C143.749 73.8813 144.165 73.7891 144.596 73.7766C144.987 73.7654 145.377 73.7388 145.767 73.7225C145.841 73.7192 145.916 73.7263 145.988 73.7434C146.039 73.7561 146.089 73.7899 146.101 73.8522C146.11 73.8881 146.116 73.9247 146.118 73.9617C146.12 74.5946 146.12 75.2274 146.12 75.8602C146.117 75.8972 146.113 75.934 146.107 75.9705C146.1 76.0365 146.027 76.1049 145.955 76.107C145.676 76.1152 145.397 76.1225 145.118 76.1287C144.912 76.1333 144.713 76.1739 144.515 76.2329C144.183 76.3319 143.914 76.5202 143.694 76.7846C143.539 76.9709 143.414 77.1803 143.323 77.4052C143.127 77.8879 142.939 78.3731 142.747 78.8571C142.61 79.2031 142.478 79.5508 142.334 79.8938C142.26 80.0645 142.177 80.2311 142.085 80.3929C141.904 80.7199 141.652 81.0018 141.346 81.2176C141.211 81.3155 141.077 81.4151 140.944 81.5155C140.931 81.5262 140.926 81.5471 140.909 81.5787ZM87.1703 67.4373C86.3997 67.4449 85.7371 67.3839 85.0812 67.218C83.6403 66.8546 82.4631 66.0835 81.5159 64.9515C80.6968 63.9733 80.2147 62.8347 79.9636 61.5926C79.7807 60.6792 79.7101 59.7468 79.7534 58.8163C79.8048 57.6393 79.977 56.4829 80.4133 55.3801C81.1014 53.6407 82.2788 52.352 83.9841 51.5681C84.6954 51.2396 85.4599 51.0415 86.2412 50.9831C86.4081 50.9703 86.5741 50.948 86.7418 50.9328C86.8346 50.9244 86.9276 50.9164 87.0207 50.9164C88.0312 50.9161 89.0251 51.0251 89.9787 51.3886C90.5194 51.592 91.0282 51.8722 91.4892 52.2204C92.1674 52.735 92.7042 53.3685 93.0801 54.1351C93.2788 54.5351 93.4431 54.9512 93.5714 55.3791C93.6152 55.5279 93.5565 55.6249 93.3954 55.6647C92.9258 55.7802 92.4555 55.8929 91.9854 56.0063C91.6779 56.0805 91.3734 56.171 91.063 56.2214C90.8657 56.2533 90.6778 56.3682 90.4672 56.3065C90.3399 56.1592 90.3296 55.9639 90.2585 55.7934C89.8029 54.701 89.0155 54.0161 87.8461 53.7662C87.1905 53.6264 86.5462 53.6616 85.9148 53.8467C84.8741 54.152 84.1304 54.8217 83.6628 55.794C83.4192 56.3008 83.2942 56.8448 83.2033 57.3976C83.0698 58.2104 83.0604 59.0292 83.1005 59.8475C83.1352 60.554 83.2248 61.2557 83.43 61.9372C83.5267 62.2585 83.6461 62.5712 83.8128 62.8633C84.3073 63.7298 85.0316 64.3059 85.9992 64.5601C86.5962 64.7181 87.2226 64.7284 87.8245 64.5902C88.5775 64.4193 89.1856 64.0068 89.6515 63.3895C89.946 62.9991 90.154 62.5636 90.3126 62.1036C90.3853 61.8931 90.4404 61.6764 90.5045 61.4629C90.5324 61.3682 90.6184 61.3272 90.7245 61.3568C90.814 61.382 90.9032 61.4084 90.992 61.4361C91.7901 61.6871 92.588 61.9387 93.3857 62.1909C93.4563 62.2142 93.5235 62.2461 93.5861 62.2857C93.6124 62.3022 93.6259 62.3433 93.6391 62.3758C93.645 62.391 93.6391 62.413 93.634 62.4308C93.3308 63.5392 92.8553 64.5594 92.0898 65.4303C91.3031 66.3247 90.3171 66.8898 89.1722 67.1935C88.4838 67.3766 87.7833 67.4533 87.1703 67.4373ZM63.5781 59.3738C63.6044 58.4021 63.6551 57.511 63.8613 56.6363C64.0544 55.8169 64.33 55.029 64.7678 54.3054C65.6394 52.8658 66.8607 51.8532 68.4642 51.3182C68.9953 51.1413 69.5366 51.0091 70.0995 50.9808C70.2482 50.9733 70.3961 50.9529 70.5446 50.9404C70.6743 50.9295 70.8045 50.9124 70.9344 50.9134C71.9642 50.9274 72.9774 51.041 73.9394 51.4389C74.9222 51.845 75.7674 52.4374 76.4009 53.3017C76.8789 53.9541 77.2103 54.6792 77.418 55.4605C77.4341 55.5211 77.3797 55.6176 77.3193 55.6372C77.284 55.6487 77.2495 55.6615 77.2128 55.6702C76.2903 55.8906 75.3677 56.1104 74.4452 56.3299C74.3497 56.3526 74.276 56.3055 74.2356 56.1983C74.1765 56.0417 74.1238 55.8823 74.0606 55.7276C73.7272 54.9149 73.1641 54.3183 72.3546 53.9733C70.9944 53.3936 69.1893 53.6623 68.0978 54.8789C67.7566 55.2589 67.5083 55.6931 67.3405 56.171C67.155 56.6991 67.0422 57.2443 66.9858 57.8027C66.8998 58.6362 66.8957 59.476 66.9735 60.3103C67.023 60.8312 67.1014 61.3445 67.2372 61.8478C67.4039 62.4659 67.6704 63.0358 68.1096 63.5133C68.699 64.1537 69.4154 64.5474 70.2893 64.6418C70.622 64.6803 70.9579 64.6826 71.291 64.6485C72.195 64.5507 72.9094 64.1241 73.4613 63.4177C73.8449 62.9271 74.0797 62.3606 74.2558 61.7674C74.2926 61.6431 74.3319 61.5191 74.3788 61.3982C74.3886 61.3726 74.4347 61.3517 74.4667 61.3466C74.5014 61.3414 74.5406 61.3537 74.5757 61.3647C75.4808 61.648 76.3856 61.9322 77.2901 62.2174C77.3428 62.2354 77.3912 62.264 77.4328 62.3012C77.4566 62.3219 77.4775 62.368 77.4716 62.3971C77.4489 62.5056 77.4205 62.6129 77.3864 62.7185C77.1171 63.5771 76.7399 64.3817 76.1951 65.1033C75.3891 66.1703 74.3174 66.8346 73.0401 67.1871C72.1876 67.4225 71.316 67.457 70.4374 67.4342C69.7291 67.4148 69.028 67.2863 68.3588 67.0532C66.8987 66.5501 65.7601 65.6266 64.9025 64.3516C64.3223 63.4893 63.9875 62.5274 63.7758 61.517C63.6215 60.7837 63.6163 60.0381 63.5781 59.3738ZM30.3678 51.1222H37.9076C38.0935 51.1222 38.2795 51.129 38.4653 51.1362C38.5332 51.1385 38.6008 51.2118 38.6077 51.2834C38.6129 51.3393 38.6197 51.394 38.6205 51.4494C38.6226 51.5798 38.6218 51.71 38.6218 51.8407C38.6218 56.8098 38.6216 61.7787 38.621 66.7474C38.621 66.9331 38.6096 67.1184 38.6021 67.3036C38.6001 67.3498 38.5741 67.3762 38.5337 67.3712C38.4996 67.3673 38.4556 67.3642 38.4358 67.3425C38.3979 67.3028 38.3696 67.255 38.353 67.2027C38.3192 67.0771 38.2903 66.9502 38.2663 66.8224C37.6583 63.7158 36.3695 60.9229 34.4001 58.4442C32.4509 55.9984 30.0506 54.1305 27.1993 52.8405C25.9447 52.2718 24.6315 51.8422 23.2833 51.5594C23.0105 51.502 22.735 51.4586 22.4614 51.4047C22.368 51.3863 22.2827 51.3432 22.2457 51.2485C22.2361 51.2238 22.2542 51.1734 22.2764 51.1546C22.3017 51.1333 22.3463 51.1283 22.3818 51.1267C22.5495 51.1227 22.7174 51.1217 22.8851 51.1217L30.3678 51.1222ZM8.24221 51.1222C10.7364 51.1222 13.2303 51.1224 15.724 51.1231C15.9094 51.1231 16.095 51.1326 16.2802 51.1451C16.3032 51.1467 16.3361 51.1906 16.3408 51.2191C16.3434 51.2364 16.3424 51.254 16.3378 51.2709C16.3332 51.2878 16.3251 51.3035 16.314 51.3171C16.2465 51.3851 16.1559 51.4095 16.0625 51.4239C15.1043 51.5709 14.1699 51.8177 13.2516 52.1227C11.1991 52.8033 9.27662 53.8263 7.56548 55.1484C5.56602 56.6885 3.92696 58.5465 2.64846 60.7222C1.79926 62.1667 1.14407 63.7168 0.699804 65.3325C0.541637 65.9066 0.422928 66.4887 0.296328 67.0695C0.276763 67.1595 0.273146 67.2568 0.200638 67.3244C0.176798 67.3469 0.138489 67.3563 0.105277 67.3658C0.0623647 67.3781 0.0354005 67.3564 0.0280018 67.3099C0.0191233 67.2555 0.00498357 67.2014 0.00284616 67.1466C-0.00142865 67.0348 0.000379926 66.923 0.000379926 66.8112C0.00021551 61.7879 0.000379926 56.7646 0.000708757 51.7416C0.000708757 51.593 0.0053124 51.4442 0.0122179 51.2957C0.0163283 51.2053 0.10018 51.1331 0.202611 51.1301C0.370315 51.1254 0.537855 51.1229 0.704901 51.1226C3.21717 51.1222 5.72977 51.1221 8.24238 51.1224L8.24221 51.1222ZM8.25832 89.7551H0.713944C0.52799 89.7551 0.341871 89.7482 0.155917 89.7412C0.0967276 89.739 0.0181368 89.6547 0.0153418 89.5897C0.00827188 89.4219 0.00136642 89.2553 0.00136642 89.0881C0.000544342 87.3379 5.10944e-05 85.5876 5.10944e-05 83.8374V74.1732C5.10944e-05 73.9871 0.00613448 73.8009 0.0112314 73.615C0.0128755 73.5523 0.0671327 73.505 0.111525 73.5109C0.173016 73.5188 0.219711 73.552 0.234837 73.6045C0.281202 73.7648 0.325923 73.9259 0.356833 74.0903C0.602141 75.3934 0.99082 76.6537 1.50363 77.8751C2.21654 79.5781 3.17228 81.1688 4.34112 82.5979C6.17271 84.8387 8.39232 86.5882 11 87.8465C12.4144 88.5261 13.8884 89.0368 15.4326 89.3347C15.67 89.3806 15.9078 89.421 16.1435 89.4758C16.2101 89.4912 16.2718 89.5427 16.3254 89.5887C16.343 89.6037 16.3338 89.6545 16.331 89.6884C16.3297 89.7024 16.3139 89.7257 16.303 89.7272C16.2113 89.739 16.1189 89.7537 16.0268 89.754C15.5051 89.7566 14.9836 89.7555 14.4621 89.7555L8.25832 89.7551ZM30.4224 73.4475H37.9081C38.094 73.4475 38.28 73.4544 38.4659 73.4606C38.5342 73.4627 38.6021 73.5348 38.6082 73.6046C38.6131 73.6605 38.62 73.7156 38.6208 73.7713C38.623 73.9016 38.6221 74.0318 38.6221 74.1626C38.6221 79.1327 38.6218 84.1028 38.6211 89.0728C38.6211 89.2578 38.6078 89.4429 38.5989 89.6277C38.5965 89.6747 38.5659 89.6954 38.5195 89.683C38.4855 89.6736 38.4408 89.6668 38.4217 89.6425C38.328 89.5205 38.3048 89.3714 38.2798 89.2249C38.1922 88.7109 38.0728 88.2045 37.9347 87.7014C37.1938 85.0062 35.9298 82.5836 34.1425 80.4334C32.2538 78.1648 29.9671 76.4153 27.2819 75.1851C26.0267 74.6107 24.7257 74.1709 23.3713 73.8914C23.0799 73.8312 22.7882 73.7717 22.498 73.7069C22.4268 73.6901 22.3585 73.6628 22.2953 73.626C22.272 73.612 22.2651 73.564 22.2587 73.53C22.2508 73.4894 22.2764 73.4631 22.3238 73.4618C22.5094 73.456 22.695 73.4478 22.8806 73.4478C25.3946 73.4471 27.9085 73.447 30.4224 73.4475ZM112.698 83.164V89.1394C112.698 89.3073 112.691 89.4741 112.684 89.6412C112.681 89.7081 112.607 89.7724 112.533 89.78C112.496 89.7853 112.459 89.7888 112.422 89.7905C111.528 89.7911 110.634 89.7911 109.74 89.7905C109.685 89.7905 109.624 89.7888 109.577 89.7645C109.534 89.742 109.484 89.6913 109.478 89.6476C109.461 89.5192 109.46 89.3883 109.459 89.2581C109.458 88.5322 109.458 87.8062 109.459 87.0803V77.3628C109.459 77.214 109.46 77.0649 109.458 76.9156C109.453 76.5776 109.425 76.5478 109.064 76.5471C107.872 76.5448 106.68 76.5445 105.489 76.546C105.321 76.546 105.153 76.5475 104.985 76.5435C104.762 76.5379 104.704 76.4736 104.697 76.2297C104.695 76.1553 104.696 76.0809 104.696 76.0061C104.696 75.429 104.695 74.852 104.697 74.2749C104.696 74.1637 104.707 74.0527 104.728 73.9436C104.738 73.9009 104.795 73.8572 104.84 73.8365C104.888 73.8144 104.949 73.8149 105.004 73.8134C105.134 73.8103 105.265 73.8116 105.395 73.8116H116.736C116.885 73.8116 117.034 73.8116 117.184 73.8152C117.338 73.819 117.404 73.8937 117.411 74.0652C117.412 74.0837 117.413 74.1025 117.413 74.1211C117.413 74.8285 117.413 75.5358 117.412 76.2433C117.412 76.2982 117.4 76.3533 117.393 76.4082C117.39 76.4362 117.377 76.4624 117.358 76.483C117.339 76.5036 117.313 76.5175 117.286 76.5226C117.138 76.5386 116.989 76.5462 116.841 76.5448C115.686 76.5463 114.532 76.5468 113.377 76.5463C113.209 76.5463 113.042 76.5509 112.875 76.5575C112.777 76.5614 112.71 76.6353 112.707 76.7413C112.702 76.909 112.699 77.0764 112.699 77.2436C112.697 79.2172 112.697 81.1907 112.698 83.164ZM48.091 81.8066V74.49C48.091 74.3223 48.0941 74.1549 48.1004 73.9879C48.1037 73.8937 48.1826 73.8241 48.2875 73.8202C48.4179 73.8152 48.5484 73.8128 48.6789 73.8128H58.2889C58.9664 73.8128 58.9278 73.7776 58.9273 74.4468C58.9273 75.0058 58.9283 75.5638 58.9257 76.1223C58.9242 76.2143 58.9137 76.3059 58.8944 76.3959C58.8885 76.4255 58.8515 76.459 58.8209 76.4712C58.7695 76.492 58.7149 76.5038 58.6595 76.5059C58.4918 76.511 58.3241 76.5098 58.1564 76.5098H52.0662C51.8985 76.5098 51.7308 76.5098 51.5631 76.5133C51.4022 76.5172 51.3308 76.5904 51.3267 76.755C51.3224 76.9227 51.3231 77.0904 51.3231 77.2581C51.3231 81.205 51.3228 85.1519 51.3224 89.0986C51.3224 89.8659 51.3923 89.7913 50.6389 89.7934C49.9313 89.7957 49.2237 89.7957 48.5158 89.7934C48.4233 89.7934 48.3304 89.7839 48.2378 89.7772C48.173 89.7724 48.1063 89.6982 48.1023 89.6262C48.0972 89.5335 48.0915 89.4408 48.091 89.3477C48.0895 89.0314 48.091 88.7147 48.091 88.3982V81.8066ZM93.5393 69.8585H93.8188C94.2443 69.8622 94.2591 69.8248 94.3791 70.2848C94.535 70.8819 94.9477 71.2182 95.5453 71.3497C95.9641 71.4421 96.398 71.4431 96.8171 71.3527C97.3925 71.2321 97.7914 70.9163 97.9818 70.353C98.0055 70.2831 98.0287 70.2121 98.0499 70.1409C98.1288 69.8769 98.1409 69.8614 98.3739 69.8603C98.7269 69.859 99.0803 69.8641 99.4334 69.8688C99.5196 69.8701 99.5878 69.9354 99.5799 70.0004C99.4934 70.6948 99.2845 71.341 98.829 71.8888C98.4122 72.3898 97.8902 72.7301 97.2584 72.8929C96.5616 73.0723 95.8607 73.077 95.1619 72.9013C94.2833 72.68 93.6305 72.1647 93.2039 71.3683C92.9822 70.9548 92.8451 70.5127 92.8139 70.0416C92.8071 69.9423 92.8737 69.8729 92.9816 69.8664C93.0375 69.8629 93.0934 69.8595 93.1486 69.859C93.2787 69.858 93.4089 69.859 93.5391 69.859L93.5393 69.8585ZM82.8792 96.7767C83.1395 96.7767 83.3999 96.7744 83.6602 96.7781C83.7554 96.7792 83.8264 96.8629 83.8346 96.9622C83.866 97.3351 83.7997 97.7097 83.6424 98.0493C83.3749 98.6364 82.9072 98.9708 82.2696 99.0576C82.0851 99.0812 81.8988 99.0869 81.7132 99.0747C80.8579 99.0244 80.2928 98.5647 79.9895 97.7871C79.7433 97.1562 79.7545 96.5066 80.0016 95.8779C80.4059 94.8495 81.3551 94.4999 82.2475 94.6127C82.3771 94.6277 82.5047 94.657 82.628 94.6997C83.2125 94.9093 83.5959 95.3042 83.7268 95.9236C83.7362 95.9678 83.6821 96.0303 83.6267 96.0354C83.5527 96.042 83.4787 96.0466 83.4045 96.0494C83.2835 96.0546 83.187 96.013 83.1303 95.8996C83.121 95.8835 83.1127 95.8668 83.1053 95.8498C82.7738 94.9325 81.2717 94.8403 80.6913 95.8297C80.2787 96.5332 80.3102 97.2512 80.7407 97.9434C81.0723 98.4769 81.7762 98.644 82.2581 98.524C82.7612 98.3982 83.0773 98.1031 83.2056 97.61C83.2886 97.2904 83.2584 97.2453 82.9348 97.2458C82.6745 97.2458 82.4139 97.2458 82.1538 97.2371C82.0139 97.2325 81.9746 97.1592 81.9748 97.0091C81.9748 96.8589 82.0307 96.7813 82.154 96.779C82.3957 96.7743 82.6374 96.7776 82.8792 96.7776V96.7767ZM51.2606 96.7808C51.5023 96.7808 51.744 96.7794 51.9857 96.7818C52.0598 96.7825 52.1343 96.8502 52.1417 96.9124C52.1894 97.308 52.1526 97.6942 51.9814 98.0567C51.7063 98.6392 51.2456 98.9818 50.6038 99.0573C50.382 99.0818 50.1584 99.0836 49.9362 99.0629C49.3657 99.0131 48.9149 98.7428 48.586 98.2742C48.3695 97.9695 48.2352 97.6141 48.1961 97.2424C48.1619 96.9254 48.1591 96.6084 48.2207 96.2973C48.3422 95.6863 48.6401 95.1814 49.197 94.8715C49.8193 94.5253 50.4757 94.4869 51.1305 94.7666C51.6414 94.9848 51.9553 95.384 52.0677 95.9336C52.0771 95.9793 52.0588 96.0035 52.0154 96.0198C51.8888 96.0683 51.7589 96.0599 51.6317 96.0352C51.578 96.0229 51.5305 95.9918 51.4979 95.9474C51.4466 95.8712 51.4198 95.7787 51.3721 95.6992C51.1897 95.3917 50.9109 95.2109 50.5654 95.1558C49.8634 95.044 49.2602 95.3253 48.952 95.9764C48.6822 96.5462 48.6822 97.1335 48.9425 97.7047C49.2876 98.4628 50.0957 98.7559 50.8667 98.4396C51.2757 98.2719 51.4965 97.9309 51.5676 97.4977C51.6006 97.2966 51.5273 97.2552 51.3665 97.2502C51.0691 97.2409 50.7715 97.2401 50.474 97.2335C50.401 97.2317 50.3427 97.1689 50.332 97.0888C50.3269 97.0521 50.3246 97.015 50.3252 96.978C50.3272 96.8703 50.391 96.785 50.479 96.784C50.7391 96.7808 50.9993 96.7828 51.2594 96.7828C51.2606 96.7822 51.2606 96.7815 51.2606 96.7808ZM75.0432 99.0866C74.7637 99.0726 74.4884 99.0637 74.2219 98.9542C73.6057 98.7014 73.2445 98.2274 73.0513 97.6157C72.8596 97.0079 72.9015 96.4037 73.1491 95.8161C73.5537 94.8546 74.4615 94.4975 75.3179 94.6121C75.484 94.6338 75.6469 94.6749 75.8034 94.7344C76.346 94.944 76.6743 95.3495 76.8238 95.9044C76.8327 95.9404 76.831 95.9782 76.819 96.0132C76.8083 96.0444 76.7837 96.0831 76.7556 96.0939C76.6306 96.1423 76.5007 96.1331 76.3736 96.1012C76.3389 96.0904 76.3092 96.0676 76.2898 96.0369C76.2521 95.9729 76.2185 95.9065 76.1891 95.8383C75.929 95.2653 75.3317 95.0718 74.7915 95.1602C74.3661 95.2301 74.0317 95.4488 73.8114 95.8277C73.6787 96.0556 73.593 96.298 73.5685 96.5625C73.5468 96.7848 73.5509 97.0089 73.5809 97.2302C73.6242 97.5455 73.7584 97.8413 73.9671 98.0817C74.2673 98.4342 74.6647 98.5675 75.1122 98.5465C75.3531 98.5351 75.5915 98.4779 75.7954 98.3308C75.9491 98.2205 76.0749 98.0865 76.161 97.9169C76.203 97.8339 76.2337 97.7441 76.2852 97.6679C76.3011 97.6465 76.3211 97.6286 76.3439 97.615C76.3668 97.6014 76.3922 97.5925 76.4185 97.5888C76.5282 97.5802 76.6395 97.5906 76.7498 97.5968C76.7927 97.5993 76.8371 97.6779 76.83 97.7264C76.7968 97.9479 76.7105 98.1582 76.5785 98.3392C76.27 98.7706 75.8595 99.0315 75.3205 99.0687C75.2273 99.0751 75.1346 99.0807 75.0432 99.0866ZM68.9348 96.8667C68.9348 96.2909 68.9338 95.7151 68.9358 95.1392C68.9348 95.028 68.943 94.9169 68.9604 94.8071C68.9687 94.7587 68.9979 94.7004 69.0653 94.6915C69.1203 94.6841 69.1748 94.6696 69.2296 94.6696C69.9729 94.6685 70.7161 94.669 71.4592 94.6709C71.5143 94.6713 71.5689 94.681 71.6207 94.6999C71.6509 94.711 71.6874 94.7448 71.6932 94.7739C71.7064 94.846 71.7111 94.9197 71.7072 94.9929C71.7036 95.0726 71.6409 95.1392 71.573 95.1439C71.462 95.152 71.3507 95.1605 71.2397 95.1609C70.8124 95.163 70.3849 95.1609 69.9576 95.1627C69.8651 95.1627 69.7707 95.1643 69.6808 95.1824C69.6316 95.1923 69.5742 95.2258 69.5699 95.2921C69.5604 95.4396 69.5482 95.5874 69.5477 95.735C69.5471 95.9575 69.554 96.1799 69.5609 96.4024C69.5632 96.4729 69.635 96.5457 69.7043 96.5472C70.0014 96.5533 70.2983 96.5556 70.5954 96.5612C70.8365 96.5651 71.0776 96.5709 71.3187 96.5786C71.3885 96.5808 71.4453 96.6475 71.451 96.7299C71.4546 96.7853 71.4543 96.8407 71.4502 96.8959C71.4448 96.9732 71.3838 97.0408 71.3146 97.0451C71.1852 97.0531 71.0556 97.0617 70.926 97.0627C70.573 97.0653 70.2199 97.0627 69.8669 97.0656C69.7936 97.0674 69.7209 97.0786 69.6505 97.0991C69.6209 97.1075 69.5826 97.1449 69.5783 97.1736C69.5195 97.5789 69.5394 97.987 69.5701 98.3934C69.5736 98.438 69.6248 98.4891 69.6895 98.4921C69.819 98.498 69.9488 98.5078 70.0783 98.5083C70.5058 98.5105 70.9331 98.5083 71.3604 98.5101C71.4532 98.5108 71.5457 98.5177 71.6373 98.5314C71.6707 98.5361 71.7064 98.5626 71.7294 98.5892C71.7853 98.6534 71.7946 98.8959 71.7433 98.9643C71.7193 98.9925 71.6869 99.0124 71.6508 99.021C71.5965 99.0335 71.5409 99.0396 71.4852 99.0389C70.7419 99.0399 69.9987 99.0399 69.2554 99.0389C69.2 99.037 69.1448 99.0324 69.0898 99.0249C69.0259 99.0183 68.9588 98.9463 68.953 98.8712C68.9445 98.7604 68.9358 98.6492 68.9356 98.5381C68.9338 97.9812 68.9348 97.4239 68.9348 96.8667ZM98.0653 96.2452C98.0653 96.6542 98.0635 97.0631 98.0661 97.472C98.0688 97.6955 98.0295 97.9174 97.9504 98.1264C97.7546 98.6404 97.3741 98.9338 96.8462 99.0443C96.6086 99.0941 96.3662 99.094 96.1239 99.0713C95.3273 98.9971 94.792 98.4631 94.718 97.6672C94.7129 97.6113 94.7111 97.5554 94.7111 97.4995C94.7104 96.6445 94.7104 95.7894 94.7111 94.9347C94.7111 94.8797 94.7198 94.8251 94.7369 94.7729C94.7435 94.756 94.7534 94.7405 94.7661 94.7275C94.7787 94.7145 94.7938 94.7041 94.8105 94.6971C94.9371 94.6551 95.068 94.6604 95.195 94.6949C95.2254 94.703 95.265 94.7426 95.2686 94.7719C95.2844 94.8819 95.2926 94.993 95.2933 95.1042C95.2952 95.8291 95.2952 96.5538 95.2933 97.2787C95.2924 97.485 95.3086 97.6864 95.3771 97.8826C95.4375 98.0594 95.548 98.2148 95.6953 98.3298C95.7985 98.4112 95.9126 98.4697 96.0455 98.4909C96.2475 98.5228 96.4532 98.5269 96.6564 98.5029C97.005 98.4618 97.235 98.2676 97.3726 97.9579C97.4565 97.7686 97.4826 97.5664 97.4815 97.3593C97.4777 96.6717 97.4797 95.9838 97.4805 95.2962C97.4805 95.1476 97.4835 94.9991 97.489 94.8506C97.4928 94.7482 97.5607 94.6808 97.6635 94.6759C97.7376 94.6722 97.8121 94.6719 97.8861 94.6759C97.9859 94.6803 98.0586 94.7515 98.0589 94.8528C98.0609 95.3172 98.0597 95.7819 98.0597 96.2463L98.0653 96.2452ZM65.7792 97.0835C65.7792 96.5817 65.7802 96.0796 65.7782 95.5775C65.7782 95.4854 65.776 95.3909 65.7548 95.3021C65.7438 95.2564 65.6948 95.1971 65.6522 95.186C65.5639 95.1633 65.4684 95.165 65.3755 95.1635C65.134 95.1597 64.8921 95.1625 64.6505 95.1569C64.4948 95.1532 64.4301 95.0729 64.4331 94.9016C64.4331 94.883 64.4342 94.8646 64.4359 94.8457C64.4435 94.7587 64.4939 94.6936 64.5617 94.6852C64.6166 94.6762 64.672 94.6704 64.7276 94.6681C65.6389 94.667 66.5503 94.667 67.4616 94.6681C67.5173 94.6678 67.5728 94.6746 67.6267 94.6884C67.6599 94.6972 67.701 94.7193 67.7157 94.7474C67.7701 94.8505 67.7658 94.9611 67.7212 95.0662C67.7126 95.0823 67.7007 95.0965 67.6862 95.1078C67.6718 95.1191 67.6552 95.1273 67.6374 95.1318C67.5465 95.1486 67.4546 95.1584 67.3622 95.1609C67.1021 95.1679 66.8416 95.1681 66.5815 95.1749C66.4908 95.1772 66.412 95.2622 66.4086 95.3585C66.4031 95.5071 66.4005 95.6558 66.4007 95.8046C66.4 96.697 66.3997 97.5894 66.3997 98.482C66.3997 98.6118 66.3939 98.7418 66.388 98.8717C66.3845 98.946 66.3198 99.0213 66.2533 99.0262C66.1611 99.0336 66.0685 99.0363 65.976 99.0341C65.8701 99.0313 65.7951 98.9616 65.7905 98.8679C65.7844 98.7566 65.781 98.6453 65.7803 98.5338C65.7787 98.0504 65.7783 97.5671 65.7792 97.0835ZM63.2279 96.9104C63.2279 97.4673 63.2291 98.024 63.2269 98.5808C63.2269 98.6915 63.2227 98.8044 63.2015 98.9121C63.1931 98.9541 63.1372 99.0093 63.0943 99.0187C63.0053 99.0381 62.9103 99.0354 62.818 99.0333C62.7202 99.0312 62.6493 98.956 62.6444 98.8556C62.6396 98.763 62.637 98.6703 62.6367 98.5776V95.1252C62.6367 95.0141 62.638 94.9016 62.6553 94.7926C62.6591 94.7648 62.6723 94.7391 62.6926 94.7198C62.7129 94.7004 62.7391 94.6884 62.7671 94.6859C62.8406 94.6808 62.9144 94.6706 62.988 94.6719C63.162 94.6747 63.222 94.7309 63.2227 94.9059C63.2253 95.5741 63.2238 96.2422 63.2238 96.9106L63.2279 96.9104ZM87.9375 89.6867C87.8942 89.5457 87.8536 89.4033 87.7994 89.2665C87.1099 87.5394 86.4193 85.8128 85.7276 84.0866C84.587 81.2385 83.4461 78.3902 82.3049 75.5422C82.1045 75.0416 81.9028 74.5415 81.704 74.0403C81.6425 73.8859 81.5457 73.8093 81.3678 73.8105C80.3997 73.8164 79.4316 73.8133 78.4635 73.8134C78.4264 73.8134 78.3892 73.8171 78.3517 73.8195C78.2725 73.8246 78.2074 73.859 78.171 73.929C78.1286 74.0117 78.0907 74.0966 78.0574 74.1834C77.611 75.3265 77.1651 76.4699 76.7199 77.6134L73.2764 86.4499C72.9049 87.4027 72.5304 88.3543 72.1603 89.3078C72.1139 89.4275 72.0839 89.5539 72.0551 89.6793C72.05 89.7017 72.0847 89.7533 72.108 89.7584C72.198 89.7786 72.2897 89.7897 72.3818 89.7915C73.2754 89.7938 74.1691 89.7939 75.0627 89.7923C75.1371 89.7931 75.2112 89.7888 75.2849 89.7796C75.3613 89.7689 75.4248 89.731 75.4555 89.6547C75.4835 89.5859 75.5114 89.5171 75.5372 89.4472L76.4897 86.8258C76.5539 86.6514 76.6224 86.4786 76.6951 86.3075C76.7261 86.2339 76.7917 86.1979 76.8716 86.1948C76.9645 86.191 77.0576 86.1882 77.1511 86.1882H82.6804C82.7735 86.1882 82.8667 86.1892 82.96 86.1952C82.9973 86.1968 83.0335 86.2084 83.0649 86.2288C83.0962 86.2492 83.1215 86.2777 83.138 86.3112C83.1885 86.4103 83.2339 86.5122 83.2735 86.6161C83.6262 87.5365 83.978 88.4571 84.329 89.378C84.369 89.482 84.4083 89.5876 84.4627 89.6841C84.4864 89.726 84.5444 89.7627 84.5929 89.7726C84.683 89.7906 84.7774 89.7918 84.87 89.7921C85.3173 89.7939 85.7636 89.7921 86.2104 89.7921C86.6759 89.7921 87.1414 89.7936 87.6067 89.7911C87.6986 89.7911 87.7903 89.7758 87.8821 89.766C87.9265 89.7617 87.951 89.7311 87.9375 89.6867ZM81.8809 83.475C81.7513 83.4805 81.6218 83.491 81.4922 83.4915C80.9345 83.4933 80.3767 83.4923 79.8188 83.4923V83.4795H77.8678C77.8236 83.4795 77.7675 83.4037 77.7787 83.3627C77.7983 83.291 77.8151 83.2184 77.8399 83.1485C77.9581 82.8162 78.0776 82.4843 78.1983 82.1528C78.708 80.7576 79.2185 79.3626 79.73 77.9677C79.7548 77.8999 79.7953 77.8375 79.8321 77.7748C79.84 77.7617 79.8643 77.7536 79.8816 77.7525C79.8893 77.7527 79.8968 77.7547 79.9036 77.7584C79.9104 77.7621 79.9162 77.7673 79.9206 77.7737C79.9612 77.8567 80.0044 77.9391 80.0365 78.0254C80.6649 79.7136 81.292 81.4023 81.9179 83.0915C81.9498 83.1773 81.9615 83.2707 81.9805 83.3611C81.9883 83.3964 81.9202 83.4734 81.8809 83.475ZM72.708 77.2776C72.4637 76.2178 71.8958 75.3696 71.0267 74.7253C70.5024 74.3342 69.888 74.0818 69.2403 73.9913C68.4279 73.8739 67.6091 73.8368 66.7928 73.8256C64.9134 73.8 63.0336 73.8143 61.1542 73.8128C61.0424 73.8128 60.9309 73.8151 60.8196 73.8198C60.7145 73.8243 60.6371 73.8932 60.6336 73.9884C60.6275 74.1555 60.6244 74.3227 60.6242 74.49C60.6237 76.9269 60.6237 79.364 60.6242 81.8008V83.1403C60.6242 85.168 60.6246 87.1957 60.6251 89.2234C60.6234 89.372 60.6303 89.5207 60.6458 89.6685C60.6506 89.6963 60.6646 89.7216 60.6855 89.7405C60.7064 89.7594 60.7331 89.7707 60.7612 89.7727C60.835 89.7788 60.9088 89.7915 60.9827 89.7916C61.82 89.7929 62.6574 89.7929 63.4949 89.7916C63.5688 89.7916 63.6427 89.7811 63.7164 89.7742C63.7805 89.768 63.8476 89.6931 63.8499 89.6205C63.855 89.4526 63.8606 89.2859 63.8606 89.1188C63.8614 87.5747 63.8614 86.0307 63.8606 84.4867C63.8606 84.319 63.8621 84.1513 63.8672 83.9845C63.871 83.8625 63.951 83.7889 64.0854 83.7828C64.1972 83.7774 64.3091 83.7761 64.4201 83.7759C64.9972 83.7759 65.5741 83.7843 66.1509 83.7738C67.0432 83.7572 67.9347 83.7526 68.8241 83.635C69.6592 83.5248 70.4071 83.2284 71.0724 82.7266C71.9201 82.087 72.4643 81.24 72.709 80.2067C72.9401 79.2318 72.9327 78.2547 72.708 77.2776ZM69.5188 79.0947C69.3809 80.1358 68.6305 80.7795 67.6903 80.9345C67.287 81.0008 66.8796 81.0499 66.4682 81.0491C65.705 81.0475 64.9416 81.0565 64.1783 81.06C64.1224 81.06 64.0673 81.0517 64.0117 81.047C63.9441 81.0411 63.8751 80.971 63.8729 80.9C63.8677 80.7142 63.8622 80.5282 63.8616 80.3425C63.8601 79.8213 63.8616 79.2999 63.8616 78.7789C63.8616 78.164 63.8606 77.5506 63.8627 76.9361C63.8632 76.8437 63.8718 76.7514 63.8884 76.6604C63.8938 76.6303 63.9303 76.5945 63.9611 76.5827C64.013 76.5623 64.0683 76.5517 64.124 76.5519C65.185 76.5632 66.2461 76.5741 67.3071 76.5919C67.607 76.5968 67.8954 76.6739 68.1762 76.7786C69.1096 77.1257 69.6609 78.0221 69.5188 79.0942V79.0947ZM93.374 96.2176C93.1287 95.3245 92.5742 94.7579 91.6467 94.6175C90.9422 94.5108 90.3164 94.7071 89.8225 95.237C89.3968 95.6941 89.2155 96.2495 89.2194 96.9522C89.2166 97.3474 89.3452 97.7908 89.6079 98.1869C89.9563 98.7119 90.4404 99.0282 91.0813 99.0711C91.2481 99.0828 91.4157 99.0828 91.5827 99.0711C92.219 99.0236 92.717 98.7265 93.0572 98.1915C93.4441 97.5838 93.5684 96.9254 93.374 96.2176ZM92.8409 96.9023C92.8466 97.259 92.7378 97.624 92.5074 97.9561C92.0263 98.6499 91.013 98.7139 90.4313 98.243C90.3004 98.1385 90.1898 98.0109 90.105 97.8665C89.7061 97.1787 89.7051 96.4885 90.1183 95.81C90.6474 94.9412 91.9466 94.9169 92.5194 95.7551C92.7557 96.1007 92.8476 96.4713 92.8409 96.9023ZM56.3741 98.8153C56.1158 98.3642 55.8519 97.9161 55.5928 97.4655C55.4517 97.2202 55.4162 97.1848 55.6863 97.0354C55.7671 96.9908 55.8494 96.9423 55.9159 96.8797C56.2998 96.5176 56.4454 96.0829 56.2924 95.5667C56.1457 95.0719 55.8065 94.7609 55.3069 94.6992C54.7183 94.6267 54.1211 94.6525 53.5279 94.6892C53.4621 94.6931 53.4256 94.7502 53.4177 94.799C53.4021 94.9092 53.3954 95.0205 53.3972 95.1316C53.3954 95.689 53.3964 96.2462 53.3964 96.8034C53.3964 97.3977 53.3949 97.9914 53.3977 98.5864C53.3998 98.6973 53.41 98.8077 53.4281 98.9171C53.4323 98.9346 53.4402 98.9509 53.4512 98.9651C53.4622 98.9793 53.4762 98.991 53.4921 98.9994C53.6344 99.0618 53.7811 99.054 53.9227 98.9965C53.9506 98.9853 53.9776 98.9406 53.982 98.9084C53.9935 98.8163 53.9993 98.7237 53.9991 98.631C54.0011 98.2594 53.9991 97.8878 54.0022 97.5166C54.0035 97.4428 54.0146 97.3694 54.035 97.2984C54.0433 97.2685 54.0812 97.2295 54.1099 97.2253C54.2375 97.2062 54.3664 97.1973 54.4952 97.1871C54.6804 97.1731 54.8112 97.2476 54.9044 97.4142C55.1591 97.8675 55.4216 98.3158 55.6831 98.7655C55.7196 98.8299 55.7603 98.8919 55.8047 98.9509C55.8266 98.9807 55.8572 99.0026 55.8924 99.0134C56.0564 99.0509 56.222 99.0553 56.3861 99.01C56.3933 99.0065 56.3995 99.0012 56.4041 98.9947C56.4087 98.9882 56.4115 98.9806 56.4124 98.9726C56.4032 98.9194 56.4001 98.8603 56.3741 98.8153ZM54.1084 96.6718C54.0793 96.669 54.0364 96.6291 54.0307 96.6003C54.0131 96.5102 54.0032 96.4187 54.0011 96.3269C53.9966 96.1796 53.9999 96.0318 53.9999 95.8843H54.0098C54.0098 95.7002 54.0083 95.5158 54.0106 95.3317C54.0113 95.2699 54.0917 95.1818 54.1471 95.178C54.46 95.1538 54.774 95.138 55.0846 95.192C55.5278 95.2684 55.7437 95.5568 55.7263 96.012C55.7222 96.1707 55.663 96.3229 55.5591 96.4427C55.4551 96.5626 55.3127 96.6426 55.1563 96.669C54.81 96.7215 54.4577 96.7062 54.1084 96.6718ZM88.008 98.7637C87.7564 98.3304 87.5023 97.8987 87.2502 97.4656C87.0978 97.2036 87.1019 97.2073 87.3836 97.0133C87.5046 96.9295 87.6271 96.8379 87.719 96.7256C88.0124 96.37 88.0866 95.9644 87.9391 95.5249C87.7832 95.0603 87.4549 94.761 86.9778 94.7002C86.3888 94.626 85.7919 94.6545 85.1985 94.6897C85.1605 94.692 85.1031 94.7564 85.0952 94.7993C85.0752 94.9078 85.0732 95.0203 85.0729 95.1313C85.0711 95.6883 85.072 96.245 85.072 96.8021C85.072 97.3961 85.0709 97.9901 85.073 98.5843C85.072 98.6953 85.0798 98.8063 85.0957 98.9162C85.0996 98.9439 85.1128 98.9694 85.1331 98.9886C85.1535 99.0078 85.1797 99.0195 85.2075 99.0218C85.2996 99.0282 85.3922 99.0315 85.4844 99.0289C85.5636 99.0266 85.6335 98.9638 85.6381 98.896C85.6452 98.785 85.6521 98.6741 85.6521 98.5629C85.6544 98.1915 85.6521 97.8203 85.656 97.449C85.6582 97.2876 85.684 97.1907 85.9313 97.1878C86.0431 97.1866 86.1539 97.1902 86.2654 97.1934C86.388 97.1968 86.4738 97.2614 86.5332 97.364C86.7568 97.7496 86.9776 98.1361 87.2012 98.5212C87.2851 98.6657 87.3689 98.8105 87.463 98.9481C87.4899 98.9876 87.5508 99.0144 87.6009 99.0251C87.6724 99.0402 87.7484 99.0378 87.8224 99.0379C88.1001 99.0394 88.1369 98.9865 88.008 98.7637ZM85.7549 96.6694C85.7256 96.6656 85.6932 96.6258 85.6771 96.5952C85.6608 96.5646 85.657 96.5234 85.6567 96.4867C85.6549 96.3011 85.6559 96.1156 85.6559 95.93H85.6654C85.6654 95.7263 85.6638 95.5226 85.6664 95.3189C85.6674 95.249 85.7409 95.1765 85.8108 95.1755C86.0888 95.1709 86.367 95.1648 86.6448 95.1707C86.7358 95.1726 86.8278 95.2026 86.9158 95.2306C87.2135 95.3261 87.4247 95.6406 87.4132 95.9639C87.4015 96.296 87.1294 96.6358 86.8093 96.674C86.4589 96.7149 86.1049 96.7133 85.7549 96.6694ZM61.3802 98.8873C61.3545 98.7981 61.3266 98.7096 61.2964 98.6218C60.981 97.7279 60.665 96.8341 60.3485 95.9409C60.2181 95.5729 60.0843 95.2061 59.9547 94.838C59.9201 94.7393 59.8541 94.6805 59.753 94.676C59.6044 94.6706 59.4557 94.6706 59.3071 94.676C59.2034 94.6788 59.1383 94.7434 59.099 94.834C59.0766 94.885 59.06 94.9384 59.0414 94.9909C58.6067 96.2169 58.1723 97.4433 57.7384 98.6698C57.708 98.7563 57.6965 98.8495 57.6781 98.9403C57.6756 98.9493 57.6752 98.9589 57.677 98.9681C57.6788 98.9773 57.6827 98.986 57.6884 98.9935C57.6942 99.001 57.7015 99.0071 57.71 99.0113C57.7184 99.0155 57.7277 99.0178 57.7371 99.0179C57.8474 99.0276 57.9584 99.035 58.0691 99.0356C58.1693 99.0356 58.2473 98.9929 58.2835 98.8924C58.3655 98.6652 58.4462 98.4375 58.5294 98.2106C58.5799 98.0735 58.6789 98.0074 58.8272 98.0085C59.1067 98.0107 59.3854 98.0077 59.6645 98.0075C59.8505 98.0075 60.0368 98.0093 60.2227 98.009C60.3646 98.009 60.4807 98.0455 60.5175 98.2038C60.5223 98.2218 60.5281 98.2394 60.535 98.2566C60.6119 98.4662 60.6879 98.6759 60.7665 98.8845C60.8026 98.9805 60.8771 99.0292 60.9789 99.0348C61.016 99.0369 61.0532 99.0348 61.1918 99.0348L61.2576 99.031C61.3437 99.0264 61.4013 98.9593 61.3802 98.8873ZM60.0013 97.4676C59.9454 97.4686 59.8895 97.4676 59.8344 97.4676H59.3337C58.7593 97.4729 58.7853 97.4686 58.9548 96.9694C59.1096 96.5137 59.2741 96.061 59.4375 95.6082C59.4487 95.5778 59.487 95.5563 59.5149 95.5331C59.5506 95.5035 59.5787 95.5149 59.596 95.5639C59.7936 96.1229 59.9932 96.6802 60.1879 97.2397C60.2466 97.4096 60.1974 97.464 60.0013 97.4676ZM61.193 99.035H61.1918C61.1727 99.0358 61.1673 99.0358 61.193 99.035ZM102.147 95.092C101.91 94.8378 101.613 94.6856 101.26 94.6793C100.739 94.6701 100.217 94.6736 99.6962 94.6729C99.659 94.6716 99.6219 94.6786 99.5878 94.6935C99.5564 94.7091 99.5156 94.7377 99.5097 94.7669C99.4907 94.8577 99.4806 94.9501 99.4795 95.0428C99.4772 95.6383 99.4783 96.2338 99.4783 96.8295C99.4783 97.4064 99.4773 97.9834 99.4791 98.5603C99.4791 98.6714 99.4888 98.7827 99.4971 98.8939C99.5018 98.9608 99.5733 99.0261 99.6487 99.0282C99.7411 99.0308 99.8336 99.0264 99.926 99.0239C99.9918 99.0225 100.032 98.9723 100.046 98.924C100.067 98.8541 100.067 98.7772 100.068 98.7032C100.07 98.4237 100.068 98.1448 100.071 97.8655C100.073 97.7922 100.083 97.7192 100.103 97.6485C100.111 97.6187 100.149 97.5786 100.177 97.5758C100.324 97.5575 100.472 97.5467 100.62 97.5432C100.88 97.5396 101.14 97.5424 101.398 97.4893C101.938 97.3783 102.309 97.0676 102.471 96.5436C102.635 96.0076 102.539 95.5099 102.147 95.092ZM101.951 96.2417C101.864 96.6829 101.559 96.9737 101.112 97.0048C100.816 97.0253 100.518 97.0068 100.221 97.0033C100.154 97.0033 100.082 96.9287 100.082 96.8576C100.079 96.5979 100.081 96.3381 100.081 96.0783H100.068V95.9106C100.078 95.0461 99.9623 95.1698 100.859 95.1632C101.006 95.1622 101.155 95.1855 101.3 95.215C101.795 95.3162 102.024 95.8682 101.951 96.2417Z" fill="#778187"/>
</g>
<defs>
<clipPath id="clip0_45_1724">
<rect width="146.33" height="150" fill="white"/>
</clipPath>
</defs>
</svg>
