<svg width="24" height="24" viewBox="0 0 24 24" fill="none" xmlns="http://www.w3.org/2000/svg">
<g id="dashicons:pdf">
<path id="Vector" opacity="0.2" fill-rule="evenodd" clip-rule="evenodd" d="M6.95961 16.8H5.99961V18H6.95961C7.31961 18 7.55961 17.76 7.55961 17.4C7.55961 17.04 7.31961 16.8 6.95961 16.8ZM13.1996 2.4H3.59961V21.6H19.1996V8.4L13.1996 2.4ZM8.63961 17.52C8.63961 18.48 7.91961 19.2 6.95961 19.2H5.99961V20.4H4.79961V15.6H6.95961C7.91961 15.6 8.63961 16.32 8.63961 17.28V17.52ZM13.5596 18.12C13.5596 19.32 12.5996 20.4 11.2796 20.4H9.59961V15.6H11.2796C12.4796 15.6 13.5596 16.56 13.5596 17.88V18.12ZM17.9996 16.8H15.5996V18H17.3996V19.2H15.5996V20.4H14.3996V15.6H17.9996V16.8ZM17.9996 14.4H4.79961V3.6H13.1996V8.4H17.9996V14.4ZM11.2796 16.8H10.7996V19.2H11.2796C11.9996 19.2 12.4796 18.72 12.4796 18C12.4796 17.28 11.8796 16.8 11.2796 16.8Z" fill="black"/>
</g>
</svg>
